<svg xmlns="http://www.w3.org/2000/svg" viewBox="0 0 662.82 281.56"><defs><style>.cls-1{fill:#e8e8e8;}.cls-2{fill:#ce3a3a;}.cls-3{fill:#8c8c8c;}.cls-4{fill:#f4d3a2;}.cls-5{fill:#cc4040;}.cls-10,.cls-11,.cls-12,.cls-13,.cls-6,.cls-8,.cls-9{fill:none;}.cls-6{stroke:#000;stroke-miterlimit:10;}.cls-7{fill:#992e2e;}.cls-10,.cls-11,.cls-12,.cls-8,.cls-9{stroke:#b2b2b2;}.cls-10,.cls-11,.cls-12,.cls-13,.cls-8,.cls-9{stroke-linecap:round;stroke-linejoin:round;stroke-width:0.3px;}.cls-9{stroke-dasharray:1 2;}.cls-10{stroke-dasharray:1 2;}.cls-11{stroke-dasharray:0.99 1.98;}.cls-12{stroke-dasharray:1.01 2.02;}.cls-13{stroke:#ff434d;}</style></defs><title>1a</title><g id="Grid"><path class="cls-1" d="M107.34,67.17a99.65,99.65,0,0,0-5.21-17.55c-20.29,3-31.43,16.87-31.43,39.62,0,11.28,2.74,20.48,8,27.26a31.93,31.93,0,0,1,.07-13.21c.84-4.33,4.76-6,1-13.76s-2.86-13.76-1.91-15.48,6.68-2.58,14.3.86a18.4,18.4,0,0,1,10.49,17.2c-.17,2.57-2.64,10.39-1.91,12,.46,1,2.44,2.88,6.11,1a4.23,4.23,0,0,0,2.07-2.49C111.09,95.51,110.54,83.75,107.34,67.17ZM103.7,79.68c-1.45.57-3.55-.92-4.7-3.32s-.91-4.8.54-5.36,3.56.92,4.71,3.32S105.15,79.12,103.7,79.68Z"/><path class="cls-1" d="M151.18,89.24c0-22.75-11.14-36.62-31.43-39.62a99.65,99.65,0,0,0-5.21,17.55c-3.2,16.58-3.75,28.34-1.51,35.44a4.23,4.23,0,0,0,2.07,2.49c3.67,1.92,5.65.08,6.11-1,.73-1.64-1.74-9.46-1.91-12a18.4,18.4,0,0,1,10.49-17.2c7.62-3.44,13.34-2.58,14.3-.86s1.9,7.74-1.91,15.48.11,9.43.95,13.76a31.93,31.93,0,0,1,.07,13.21C148.44,109.72,151.18,100.52,151.18,89.24Zm-28.3-12.88c-1.15,2.4-3.25,3.89-4.7,3.32s-1.7-3-.55-5.36,3.25-3.89,4.7-3.32S124,74,122.88,76.36Z"/><path d="M142.18,89.53c3.81-7.74,2.86-13.76,1.91-15.48s-6.68-2.58-14.3.86a18.4,18.4,0,0,0-10.49,17.2c.17,2.57,2.64,10.39,1.91,12-.46,1-2.44,2.88-6.11,1a4.23,4.23,0,0,1-2.07-2.49c-2.24-7.1-1.69-18.86,1.51-35.44a99.65,99.65,0,0,1,5.21-17.55,62.9,62.9,0,0,0-17.62,0,99.65,99.65,0,0,1,5.21,17.55c3.2,16.58,3.75,28.34,1.51,35.44a4.23,4.23,0,0,1-2.07,2.49c-3.67,1.92-5.65.08-6.11-1-.73-1.64,1.74-9.46,1.91-12a18.4,18.4,0,0,0-10.49-17.2c-7.62-3.44-13.34-2.58-14.3-.86s-1.9,7.74,1.91,15.48-.11,9.43-1,13.76a31.93,31.93,0,0,0-.07,13.21c6.67,8.64,17.38,13.36,31.64,13.49-6.34-.26-11.38-4.4-11.38-9.49,0-3.38,2.23-5.31,5.58-6.25h0a27.77,27.77,0,0,1,12.82,0c3.36.94,5.59,2.87,5.59,6.25,0,5.09-5,9.23-11.38,9.49,14.26-.13,25-4.85,31.64-13.49a31.93,31.93,0,0,0-.07-13.21C142.29,99,138.37,97.27,142.18,89.53ZM94,89.53c-3.16,0-6.68-3.44-6.68-3.44A33,33,0,0,1,94,85.23c3.16,0,5.72,3.44,5.72,3.44A20,20,0,0,1,94,89.53Zm33.88,0a20,20,0,0,1-5.72-.86s2.56-3.44,5.72-3.44a32.85,32.85,0,0,1,6.67.86S131,89.53,127.88,89.53Z"/><path class="cls-1" d="M444.28,63.82c-3,4.74-7.5,11.77-8.64,13.34-1.66,2.27-4.15,5.3-7.47,6.82s-4.14.75-5.8-.76-3.32-2.28-4.15,1.51,4.15,6.06,7.46,6.06,9.13-6.06,10.79-7.57,9.47-6.72,9.47-6.72c.16,0-2,4-3,6a103.35,103.35,0,0,0-4.81,10.57c-1.66,4.54-5,5.3-5,5.3s-9.12,1.52-12.44,1.52-3.32-3.79-3.32-3.79S416.56,87,416.56,84s1.66-4.55,3.32-4.55,4.15,3,5.8,3,3.32-3.79,5-9.85c1.28-4.68,1.08-14.79.93-19.15-5.67-2.61-12.51-4-20.41-4-8.13,0-15.12,1.42-20.89,4.18-.16,4.47-.33,14.33.93,18.93,1.66,6.06,3.32,9.85,5,9.85s4.14-3,5.8-3,3.32,1.51,3.32,4.55-.83,12.12-.83,12.12,0,3.79-3.32,3.79-12.44-1.52-12.44-1.52-3.32-.76-5-5.3a103.35,103.35,0,0,0-4.81-10.57c-1-2-3.16-6-3-6,0,0,7.81,5.2,9.47,6.72s7.47,7.57,10.79,7.57,8.29-2.27,7.46-6.06-2.49-3-4.15-1.51-2.48,2.27-5.8.76-5.81-4.55-7.47-6.82c-1.11-1.53-5.44-8.26-8.42-13-4.52,6.51-6.88,15.1-6.88,25.57,0,20.13,8.72,33.63,24.8,38.61a39.69,39.69,0,0,1-3.69-7.25c-.83-3,0-5.3,0-6.82s5-4.54,5.8-6.06,1.66-4.54,3.32-6.06,4.15-3,5-2.27-.83,3.79-2.49,4.54.83,3.79,1.66,4.55,1.66-2.27,2.49-3,3.13,2.55,3.13,2.55,2.3-3.31,3.13-2.55,1.66,3.79,2.49,3,3.32-3.79,1.66-4.55-3.32-3.78-2.49-4.54,3.32.76,5,2.27,2.49,4.55,3.32,6.06,5.8,4.55,5.8,6.06.83,3.79,0,6.82a40.73,40.73,0,0,1-3.8,7.43c16.45-4.84,25.38-18.42,25.38-38.79C451.41,79.08,449,70.37,444.28,63.82Zm-31,23.94a43,43,0,0,0-2.3,4.5,43,43,0,0,0-2.3-4.5c-1.66-3,2.3-33.26,2.3-33.26S414.9,84.73,413.24,87.76Z"/><path class="cls-2" d="M413.24,87.76a43,43,0,0,0-2.3,4.5,43,43,0,0,0-2.3-4.5c-1.66-3,2.3-33.26,2.3-33.26S414.9,84.73,413.24,87.76Z"/><path d="M429.83,121.1a40.73,40.73,0,0,1-3.8,7.43,51.78,51.78,0,0,1-14.23,2c6.34-.26,11.38-4.4,11.38-9.49,0-3.38-2.23-5.31-5.59-6.25a27.77,27.77,0,0,0-12.82,0h0c-3.35.94-5.58,2.87-5.58,6.25,0,5.09,5,9.23,11.38,9.49a51,51,0,0,1-14.82-2.14,39.69,39.69,0,0,1-3.69-7.25c-.83-3,0-5.3,0-6.82s5-4.54,5.8-6.06,1.66-4.54,3.32-6.06,4.15-3,5-2.27-.83,3.79-2.49,4.54.83,3.79,1.66,4.55,1.66-2.27,2.49-3,3.13,2.55,3.13,2.55,2.3-3.31,3.13-2.55,1.66,3.79,2.49,3,3.32-3.79,1.66-4.55-3.32-3.78-2.49-4.54,3.32.76,5,2.27,2.49,4.55,3.32,6.06,5.8,4.55,5.8,6.06S430.66,118.07,429.83,121.1Z"/><path d="M445.94,76.5s-7.81,5.2-9.47,6.72-7.47,7.57-10.79,7.57-8.29-2.27-7.46-6.06,2.49-3,4.15-1.51,2.48,2.27,5.8.76,5.81-4.55,7.47-6.82c1.14-1.57,5.66-8.6,8.64-13.34a31.29,31.29,0,0,0-12.69-10.36c.15,4.36.35,14.47-.93,19.15-1.66,6.06-3.32,9.85-5,9.85s-4.14-3-5.8-3-3.32,1.51-3.32,4.55.83,12.12.83,12.12,0,3.79,3.32,3.79,12.44-1.52,12.44-1.52,3.32-.76,5-5.3a103.35,103.35,0,0,1,4.81-10.57C443.94,80.5,446.1,76.52,445.94,76.5Zm-17.44,20a20,20,0,0,1-5.72-.86s2.56-3.44,5.72-3.44a32.85,32.85,0,0,1,6.67.86S431.66,96.5,428.5,96.5Z"/><path class="cls-1" d="M255.7,58.57c-.34-1.78-1.29-5.65-2.18-9.14C232.35,52,220.7,66,220.7,89.24c0,9.82,2.08,18.06,6.08,24.51.78-3.35,1.69-7,1.92-8.18,1-5,0-11-3-19s-1-14,0-15,6-3,12,3,15,15,19,14S258.7,74.57,255.7,58.57Zm-1.2,23.37c-1.71,1.34-5.1-.12-7.58-3.27s-1.66-5.18,0-6.52,3.66-1.49,6.14,1.66S256.2,80.6,254.5,81.94Z"/><path class="cls-1" d="M268.33,49.43c-.84,3-1.58,6-2.15,9.07-3,16-5,29-1,30s13-8,19-14,11-4,12-3,3,7,0,15-4,14-3,19c.32,1.62,1.07,4.72,1.83,8.4,4.06-6.47,6.17-14.77,6.17-24.66C301.18,66,289.52,52,268.33,49.43ZM275,78.6c-2.48,3.15-5.87,4.61-7.58,3.27s-1.08-5,1.4-8.13,4.43-3,6.14-1.66S277.43,75.45,275,78.6Z"/><path class="cls-2" d="M296.18,71.5c-1-1-6-3-12,3s-15,15-19,14-2-14,1-30c.57-3,1.31-6.09,2.15-9.07a64,64,0,0,0-14.81,0c.89,3.49,1.84,7.36,2.18,9.14,3,16,5,29,1,30s-13-8-19-14-11-4-12-3-3,7,0,15,4,14,3,19c-.23,1.15-1.14,4.83-1.92,8.18,6.42,10.38,17.83,16.1,33.54,16.24-6.34-.26-11.38-4.4-11.38-9.49,0-3.38,2.23-5.31,5.58-6.25h0a27.77,27.77,0,0,1,12.82,0c3.36.94,5.59,2.87,5.59,6.25,0,5.09-5,9.23-11.38,9.49,15.63-.14,27-5.8,33.45-16.09-.76-3.68-1.51-6.78-1.83-8.4-1-5,0-11,3-19S297.18,72.5,296.18,71.5ZM243.5,91.63c-4.53,0-9.56-4.85-9.56-4.85a47.89,47.89,0,0,1,9.56-1.21c4.53,0,8.2,4.85,8.2,4.85A29.11,29.11,0,0,1,243.5,91.63Zm34.88-.07a29.11,29.11,0,0,1-8.2-1.21s3.67-4.85,8.2-4.85a47.89,47.89,0,0,1,9.56,1.21S282.91,91.56,278.38,91.56Z"/><path d="M121.67,77.23c-.65,1.55-2,2.54-3,2.2s-1.25-1.87-.59-3.43,2-2.53,3-2.19S122.33,75.68,121.67,77.23Z"/><path class="cls-3" d="M122.33,71c-1.45-.57-3.55.92-4.7,3.32s-.9,4.8.55,5.36,3.55-.92,4.7-3.32S123.78,71.56,122.33,71Zm-.66,6.23c-.65,1.55-2,2.54-3,2.2s-1.25-1.87-.59-3.43,2-2.53,3-2.19S122.33,75.68,121.67,77.23Z"/><path class="cls-1" d="M134.55,86.09s-3.51,3.44-6.67,3.44a20,20,0,0,1-5.72-.86s2.56-3.44,5.72-3.44A32.85,32.85,0,0,1,134.55,86.09Z"/><path class="cls-3" d="M104.25,74.32c-1.15-2.4-3.26-3.89-4.71-3.32s-1.69,3-.54,5.36,3.25,3.89,4.7,3.32S105.4,76.72,104.25,74.32Zm-1.07,5.11c-1,.34-2.32-.65-3-2.2s-.4-3.09.59-3.42,2.31.64,3,2.19S104.16,79.09,103.18,79.43Z"/><path d="M103.18,79.43c-1,.34-2.32-.65-3-2.2s-.4-3.09.59-3.42,2.31.64,3,2.19S104.16,79.09,103.18,79.43Z"/><path class="cls-1" d="M99.72,88.67a20,20,0,0,1-5.72.86c-3.16,0-6.68-3.44-6.68-3.44A33,33,0,0,1,94,85.23C97.16,85.23,99.72,88.67,99.72,88.67Z"/><path class="cls-4" d="M122.94,120.5c0,5.09-5,9.23-11.38,9.49h-1.24c-6.34-.26-11.38-4.4-11.38-9.49,0-3.38,2.23-5.31,5.58-6.25h0l.92,2.76a2.18,2.18,0,0,0,2.08,1.49h6.89a2.09,2.09,0,0,0,2-1.45l.93-2.8C120.71,115.19,122.94,117.12,122.94,120.5Z"/><path class="cls-5" d="M117.35,114.25l-.93,2.8a2.09,2.09,0,0,1-2,1.45h-6.89a2.18,2.18,0,0,1-2.08-1.49l-.92-2.76a27.77,27.77,0,0,1,12.82,0Z"/><path class="cls-6" d="M107.34,177.67a99.65,99.65,0,0,0-5.21-17.55c-20.29,3-31.43,16.87-31.43,39.62,0,11.28,2.74,20.48,8,27.26a31.93,31.93,0,0,1,.07-13.21c.84-4.33,4.76-6,1-13.76s-2.86-13.76-1.91-15.48,6.68-2.58,14.3.86a18.4,18.4,0,0,1,10.49,17.2c-.17,2.57-2.64,10.39-1.91,12,.46,1,2.44,2.88,6.11,1a4.23,4.23,0,0,0,2.07-2.49C111.09,206,110.54,194.25,107.34,177.67Zm-3.64,12.51c-1.45.57-3.55-.92-4.7-3.32s-.91-4.8.54-5.36,3.56.92,4.71,3.32S105.15,189.62,103.7,190.18Z"/><path class="cls-6" d="M151.18,199.74c0-22.75-11.14-36.62-31.43-39.62a99.65,99.65,0,0,0-5.21,17.55c-3.2,16.58-3.75,28.34-1.51,35.44a4.23,4.23,0,0,0,2.07,2.49c3.67,1.92,5.65.08,6.11-1,.73-1.64-1.74-9.46-1.91-12a18.4,18.4,0,0,1,10.49-17.2c7.62-3.44,13.34-2.58,14.3-.86s1.9,7.74-1.91,15.48.11,9.43.95,13.76A31.93,31.93,0,0,1,143.2,227C148.44,220.22,151.18,211,151.18,199.74Zm-28.3-12.88c-1.15,2.4-3.25,3.89-4.7,3.32s-1.7-3-.55-5.36,3.25-3.89,4.7-3.32S124,184.47,122.88,186.86Z"/><path class="cls-6" d="M142.18,200c3.81-7.74,2.86-13.76,1.91-15.48s-6.68-2.58-14.3.86a18.4,18.4,0,0,0-10.49,17.2c.17,2.57,2.64,10.39,1.91,12-.46,1-2.44,2.88-6.11,1a4.23,4.23,0,0,1-2.07-2.49c-2.24-7.1-1.69-18.86,1.51-35.44a99.65,99.65,0,0,1,5.21-17.55,62.9,62.9,0,0,0-17.62,0,99.65,99.65,0,0,1,5.21,17.55c3.2,16.58,3.75,28.34,1.51,35.44a4.23,4.23,0,0,1-2.07,2.49c-3.67,1.92-5.65.08-6.11-1-.73-1.64,1.74-9.46,1.91-12a18.4,18.4,0,0,0-10.49-17.2c-7.62-3.44-13.34-2.58-14.3-.86s-1.9,7.74,1.91,15.48-.11,9.43-1,13.76A31.93,31.93,0,0,0,78.68,227c6.67,8.64,17.38,13.36,31.64,13.49-6.34-.26-11.38-4.4-11.38-9.49,0-3.38,2.23-5.31,5.58-6.25h0a27.77,27.77,0,0,1,12.82,0c3.36.94,5.59,2.87,5.59,6.25,0,5.09-5,9.23-11.38,9.49,14.26-.13,25-4.85,31.64-13.49a31.93,31.93,0,0,0-.07-13.21C142.29,209.46,138.37,207.77,142.18,200ZM94,200c-3.16,0-6.68-3.44-6.68-3.44a33,33,0,0,1,6.68-.86c3.16,0,5.72,3.44,5.72,3.44A20,20,0,0,1,94,200Zm33.88,0a20,20,0,0,1-5.72-.86s2.56-3.44,5.72-3.44a32.85,32.85,0,0,1,6.67.86S131,200,127.88,200Z"/><path class="cls-6" d="M121.67,187.73c-.65,1.55-2,2.54-3,2.2s-1.25-1.87-.59-3.43,2-2.53,3-2.19S122.33,186.18,121.67,187.73Z"/><path class="cls-6" d="M122.33,181.5c-1.45-.57-3.55.92-4.7,3.32s-.9,4.8.55,5.36,3.55-.92,4.7-3.32S123.78,182.06,122.33,181.5Zm-.66,6.23c-.65,1.55-2,2.54-3,2.2s-1.25-1.87-.59-3.43,2-2.53,3-2.19S122.33,186.18,121.67,187.73Z"/><path class="cls-1" d="M435.17,93.06s-3.51,3.44-6.67,3.44a20,20,0,0,1-5.72-.86s2.56-3.44,5.72-3.44A32.85,32.85,0,0,1,435.17,93.06Z"/><path class="cls-1" d="M287.94,86.71s-5,4.85-9.56,4.85a29.11,29.11,0,0,1-8.2-1.21s3.67-4.85,8.2-4.85A47.89,47.89,0,0,1,287.94,86.71Z"/><path class="cls-6" d="M104.25,184.82c-1.15-2.4-3.26-3.89-4.71-3.32s-1.69,3-.54,5.36,3.25,3.89,4.7,3.32S105.4,187.22,104.25,184.82Zm-1.07,5.11c-1,.34-2.32-.65-3-2.2s-.4-3.09.59-3.42,2.31.64,3,2.19S104.16,189.59,103.18,189.93Z"/><path class="cls-6" d="M103.18,189.93c-1,.34-2.32-.65-3-2.2s-.4-3.09.59-3.42,2.31.64,3,2.19S104.16,189.59,103.18,189.93Z"/><path class="cls-4" d="M272.94,120.5c0,5.09-5,9.23-11.38,9.49h-1.24c-6.34-.26-11.38-4.4-11.38-9.49,0-3.38,2.23-5.31,5.58-6.25h0l.92,2.76a2.18,2.18,0,0,0,2.08,1.49h6.89a2.09,2.09,0,0,0,2-1.45l.93-2.8C270.71,115.19,272.94,117.12,272.94,120.5Z"/><path class="cls-7" d="M267.35,114.25l-.93,2.8a2.09,2.09,0,0,1-2,1.45h-6.89a2.18,2.18,0,0,1-2.08-1.49l-.92-2.76a27.77,27.77,0,0,1,12.82,0Z"/><path class="cls-3" d="M275,78.6c-2.48,3.15-5.87,4.61-7.58,3.27s-1.08-5,1.4-8.13,4.43-3,6.14-1.66S277.43,75.45,275,78.6Z"/><path class="cls-1" d="M251.7,90.42a29.11,29.11,0,0,1-8.2,1.21c-4.53,0-9.56-4.85-9.56-4.85a47.89,47.89,0,0,1,9.56-1.21C248,85.57,251.7,90.42,251.7,90.42Z"/><path class="cls-3" d="M254.5,81.94c-1.71,1.34-5.1-.12-7.58-3.27s-1.66-5.18,0-6.52,3.66-1.49,6.14,1.66S256.2,80.6,254.5,81.94Z"/><path class="cls-6" d="M255.7,169.07c-.34-1.78-1.29-5.65-2.18-9.14-21.17,2.57-32.82,16.54-32.82,39.81,0,9.82,2.08,18.06,6.08,24.51.78-3.35,1.69-7,1.92-8.18,1-5,0-11-3-19s-1-14,0-15,6-3,12,3,15,15,19,14S258.7,185.07,255.7,169.07Zm-1.2,23.37c-1.71,1.34-5.1-.12-7.58-3.27s-1.66-5.18,0-6.52,3.66-1.49,6.14,1.66S256.2,191.1,254.5,192.44Z"/><path class="cls-6" d="M268.33,159.93c-.84,3-1.58,6-2.15,9.07-3,16-5,29-1,30s13-8,19-14,11-4,12-3,3,7,0,15-4,14-3,19c.32,1.62,1.07,4.72,1.83,8.4,4.06-6.47,6.17-14.77,6.17-24.66C301.18,176.46,289.52,162.48,268.33,159.93ZM275,189.1c-2.48,3.15-5.87,4.61-7.58,3.27s-1.08-5,1.4-8.13,4.43-3,6.14-1.66S277.43,186,275,189.1Z"/><path class="cls-6" d="M296.18,182c-1-1-6-3-12,3s-15,15-19,14-2-14,1-30c.57-3,1.31-6.09,2.15-9.07a64,64,0,0,0-14.81,0c.89,3.49,1.84,7.36,2.18,9.14,3,16,5,29,1,30s-13-8-19-14-11-4-12-3-3,7,0,15,4,14,3,19c-.23,1.15-1.14,4.83-1.92,8.18,6.42,10.38,17.83,16.1,33.54,16.24-6.34-.26-11.38-4.4-11.38-9.49,0-3.38,2.23-5.31,5.58-6.25h0a27.77,27.77,0,0,1,12.82,0c3.36.94,5.59,2.87,5.59,6.25,0,5.09-5,9.23-11.38,9.49,15.63-.14,27-5.8,33.45-16.09-.76-3.68-1.51-6.78-1.83-8.4-1-5,0-11,3-19S297.18,183,296.18,182ZM243.5,202.13c-4.53,0-9.56-4.85-9.56-4.85a47.89,47.89,0,0,1,9.56-1.21c4.53,0,8.2,4.85,8.2,4.85A29.11,29.11,0,0,1,243.5,202.13Zm34.88-.07a29.11,29.11,0,0,1-8.2-1.21s3.67-4.85,8.2-4.85a47.89,47.89,0,0,1,9.56,1.21S282.91,202.06,278.38,202.06Z"/><path class="cls-6" d="M272.94,231c0,5.09-5,9.23-11.38,9.49h-1.24c-6.34-.26-11.38-4.4-11.38-9.49,0-3.38,2.23-5.31,5.58-6.25h0l.92,2.76a2.18,2.18,0,0,0,2.08,1.49h6.89a2.09,2.09,0,0,0,2-1.45l.93-2.8C270.71,225.69,272.94,227.62,272.94,231Z"/><path class="cls-6" d="M267.35,224.75l-.93,2.8a2.09,2.09,0,0,1-2,1.45h-6.89a2.18,2.18,0,0,1-2.08-1.49l-.92-2.76a27.77,27.77,0,0,1,12.82,0Z"/><path class="cls-2" d="M601.18,89.24c0,20.1-8.7,33.59-24.73,38.59a25.88,25.88,0,0,0,2.15-11.06,22.23,22.23,0,0,0-3.69-12.24c-1.61-2.15-4.6-4.9-6.44-4.08s-.92,4.08-.92,4.08.92,3.27-.93,4.08-5.68-2.11-5.68-2.11-3.84,2.93-5.68,2.11-.93-4.08-.93-4.08.93-3.26-.92-4.08-4.83,1.93-6.44,4.08a22.23,22.23,0,0,0-3.69,12.24,25.88,25.88,0,0,0,2.15,11.06c-16-5-24.73-18.49-24.73-38.59a53.42,53.42,0,0,1,2-15.28c2.52,3.63,5.31,7.67,5.8,8.53a61.84,61.84,0,0,1,3.69,7.35,10.21,10.21,0,0,0,.57,1.23,10.08,10.08,0,0,0,8.14,5c1.93.16,4.14.3,6,.3,4.6,0,7.36,0,10.13-1.63,2.21-1.31.88-7.85.26-10.4a17,17,0,0,0-1.18-2.66l-15-29a55.08,55.08,0,0,1,39.54,0l-15,29a17,17,0,0,0-1.18,2.66c-.62,2.55-1.95,9.09.26,10.4,2.77,1.63,5.53,1.63,10.13,1.63,1.89,0,4.1-.14,6-.3a10.08,10.08,0,0,0,8.14-5,10.21,10.21,0,0,0,.57-1.23,61.84,61.84,0,0,1,3.69-7.35c.49-.86,3.28-4.9,5.8-8.53A53.42,53.42,0,0,1,601.18,89.24Z"/><path class="cls-2" d="M601.18,89.24c0,20.1-8.7,33.59-24.73,38.59a25.88,25.88,0,0,0,2.15-11.06,22.23,22.23,0,0,0-3.69-12.24c-1.61-2.15-4.6-4.9-6.44-4.08s-.92,4.08-.92,4.08.92,3.27-.93,4.08-5.68-2.11-5.68-2.11-3.84,2.93-5.68,2.11-.93-4.08-.93-4.08.93-3.26-.92-4.08-4.83,1.93-6.44,4.08a22.23,22.23,0,0,0-3.69,12.24,25.88,25.88,0,0,0,2.15,11.06c-16-5-24.73-18.49-24.73-38.59a53.42,53.42,0,0,1,2-15.28c2.52,3.63,5.31,7.67,5.8,8.53a61.84,61.84,0,0,1,3.69,7.35,10.21,10.21,0,0,0,.57,1.23,10.08,10.08,0,0,0,8.14,5c1.93.16,4.14.3,6,.3,4.6,0,7.36,0,10.13-1.63,2.21-1.31.88-7.85.26-10.4a17,17,0,0,0-1.18-2.66l-15-29a55.08,55.08,0,0,1,39.54,0l-15,29a17,17,0,0,0-1.18,2.66c-.62,2.55-1.95,9.09.26,10.4,2.77,1.63,5.53,1.63,10.13,1.63,1.89,0,4.1-.14,6-.3a10.08,10.08,0,0,0,8.14-5,10.21,10.21,0,0,0,.57-1.23,61.84,61.84,0,0,1,3.69-7.35c.49-.86,3.28-4.9,5.8-8.53A53.42,53.42,0,0,1,601.18,89.24Z"/><path class="cls-1" d="M557.36,84.34a17,17,0,0,0-1.18-2.66l-15-29c-.9.39-1.78.81-2.62,1.27l15.78,29.37L529.07,61.7A34.75,34.75,0,0,0,522.74,74h0c2.52,3.63,5.31,7.67,5.8,8.53a61.84,61.84,0,0,1,3.69,7.35,10.21,10.21,0,0,0,.57,1.23,10.08,10.08,0,0,0,8.14,5c1.93.16,4.14.3,6,.3,4.6,0,7.36,0,10.13-1.63C559.31,93.43,558,86.89,557.36,84.34Zm-1.18,7.13c-.92,2.45-2.77,3.27-5.53,3.27h-10a6.51,6.51,0,0,1-3.86-1.24,8,8,0,0,1-2.7-4.48,49.27,49.27,0,0,0-3.69-9A48.22,48.22,0,0,0,527.62,76a21.88,21.88,0,0,1,10.13,3.27,111,111,0,0,0,12.9,6.53C554.05,87.26,557.1,89,556.18,91.47Z"/><path d="M554.33,83.31,529.07,61.7a30.93,30.93,0,0,1,9.48-7.76Z"/><path class="cls-1" d="M579.27,116.27A26.73,26.73,0,0,1,577,127.74,52.62,52.62,0,0,1,561.59,130c6.58-.27,11.81-4.57,11.81-9.85,0-3.51-2.32-5.51-5.8-6.49a28.78,28.78,0,0,0-13.31,0h0c-3.48,1-5.79,3-5.79,6.49,0,5.28,5.23,9.58,11.81,9.85a52.62,52.62,0,0,1-15.45-2.25,26.72,26.72,0,0,1-2.24-11.47,23.08,23.08,0,0,1,3.83-12.71c1.68-2.23,4.78-5.08,6.69-4.23s1,4.23,1,4.23-1,3.39,1,4.24,5.89-2.19,5.89-2.19,4,3,5.9,2.19,1-4.24,1-4.24-1-3.38,1-4.23,5,2,6.68,4.23A23.08,23.08,0,0,1,579.27,116.27Z"/><path d="M578.6,116.77a25.88,25.88,0,0,1-2.15,11.06A51.08,51.08,0,0,1,561.56,130c6.34-.26,11.38-4.4,11.38-9.49,0-3.38-2.23-5.31-5.59-6.25a27.77,27.77,0,0,0-12.82,0h0c-3.35.94-5.58,2.87-5.58,6.25,0,5.09,5,9.23,11.38,9.49a51.08,51.08,0,0,1-14.89-2.16,25.88,25.88,0,0,1-2.15-11.06A22.23,22.23,0,0,1,547,104.53c1.61-2.15,4.6-4.9,6.44-4.08s.92,4.08.92,4.08-.92,3.27.93,4.08,5.68-2.11,5.68-2.11,3.84,2.93,5.68,2.11.93-4.08.93-4.08-.93-3.26.92-4.08,4.83,1.93,6.44,4.08A22.23,22.23,0,0,1,578.6,116.77Z"/><path class="cls-1" d="M592.81,61.7,567.55,83.31l15.78-29.37c-.84-.46-1.72-.88-2.62-1.27l-15,29a17,17,0,0,0-1.18,2.66c-.62,2.55-1.95,9.09.26,10.4,2.77,1.63,5.53,1.63,10.13,1.63,1.89,0,4.1-.14,6-.3a10.08,10.08,0,0,0,8.14-5,10.21,10.21,0,0,0,.57-1.23,61.84,61.84,0,0,1,3.69-7.35c.49-.86,3.28-4.9,5.8-8.53h0A34.75,34.75,0,0,0,592.81,61.7ZM591.5,80.05a49.27,49.27,0,0,0-3.69,9,8,8,0,0,1-2.7,4.48,6.51,6.51,0,0,1-3.86,1.24h-10c-2.76,0-4.61-.82-5.53-3.27s2.13-4.21,5.53-5.71a111,111,0,0,0,12.9-6.53A21.88,21.88,0,0,1,594.26,76,48.22,48.22,0,0,0,591.5,80.05Z"/><path d="M592.81,61.7,567.55,83.31l15.78-29.37A30.93,30.93,0,0,1,592.81,61.7Z"/><path class="cls-5" d="M567.35,114.25l-.93,2.8a2.09,2.09,0,0,1-2,1.45h-6.89a2.18,2.18,0,0,1-2.08-1.49l-.92-2.76a27.77,27.77,0,0,1,12.82,0Z"/><path class="cls-1" d="M423.18,121c0,5.09-5,9.23-11.38,9.49h-1.24c-6.34-.26-11.38-4.4-11.38-9.49,0-3.38,2.23-5.31,5.58-6.25h0l.92,2.76a2.18,2.18,0,0,0,2.08,1.49h6.89a2.09,2.09,0,0,0,2-1.45l.93-2.8C421,115.69,423.18,117.62,423.18,121Z"/><path class="cls-5" d="M417.59,114.75l-.93,2.8a2.09,2.09,0,0,1-2,1.45h-6.89a2.18,2.18,0,0,1-2.08-1.49l-.92-2.76a27.77,27.77,0,0,1,12.82,0Z"/><path class="cls-6" d="M275,189.1c-2.48,3.15-5.87,4.61-7.58,3.27s-1.08-5,1.4-8.13,4.43-3,6.14-1.66S277.43,186,275,189.1Z"/><path class="cls-6" d="M251.7,200.92a29.11,29.11,0,0,1-8.2,1.21c-4.53,0-9.56-4.85-9.56-4.85a47.89,47.89,0,0,1,9.56-1.21C248,196.07,251.7,200.92,251.7,200.92Z"/><path class="cls-6" d="M254.5,192.44c-1.71,1.34-5.1-.12-7.58-3.27s-1.66-5.18,0-6.52,3.66-1.49,6.14,1.66S256.2,191.1,254.5,192.44Z"/><path d="M402,79.43c-1.66,0-4.15,3-5.8,3s-3.32-3.79-5-9.85c-1.26-4.6-1.09-14.46-.93-18.93a31.16,31.16,0,0,0-12.47,10.49c3,4.73,7.31,11.46,8.42,13,1.66,2.27,4.15,5.3,7.47,6.82s4.14.75,5.8-.76,3.32-2.28,4.15,1.51-4.15,6.06-7.46,6.06-9.13-6.06-10.79-7.57-9.47-6.72-9.47-6.72c-.16,0,2,4,3,6a103.35,103.35,0,0,1,4.81,10.57c1.66,4.54,5,5.3,5,5.3s9.12,1.52,12.44,1.52,3.32-3.79,3.32-3.79.83-9.09.83-12.12S403.66,79.43,402,79.43ZM394.62,96.5c-3.16,0-6.68-3.44-6.68-3.44a33,33,0,0,1,6.68-.86c3.16,0,5.72,3.44,5.72,3.44A20,20,0,0,1,394.62,96.5Z"/><path class="cls-1" d="M400.34,95.64a20,20,0,0,1-5.72.86c-3.16,0-6.68-3.44-6.68-3.44a33,33,0,0,1,6.68-.86C397.78,92.2,400.34,95.64,400.34,95.64Z"/><path class="cls-6" d="M444.28,169.82c-3,4.74-7.5,11.77-8.64,13.34-1.66,2.27-4.15,5.3-7.47,6.82s-4.14.75-5.8-.76-3.32-2.28-4.15,1.51,4.15,6.06,7.46,6.06,9.13-6.06,10.79-7.57,9.47-6.72,9.47-6.72c.16,0-2,4-3,6a103.35,103.35,0,0,0-4.81,10.57c-1.66,4.54-5,5.3-5,5.3s-9.12,1.52-12.44,1.52-3.32-3.79-3.32-3.79-.83-9.09-.83-12.12,1.66-4.55,3.32-4.55,4.15,3,5.8,3,3.32-3.79,5-9.85c1.28-4.68,1.08-14.79.93-19.15-5.67-2.61-12.51-4-20.41-4-8.13,0-15.12,1.42-20.89,4.18-.16,4.47-.33,14.33.93,18.93,1.66,6.06,3.32,9.85,5,9.85s4.14-3,5.8-3,3.32,1.51,3.32,4.55-.83,12.12-.83,12.12,0,3.79-3.32,3.79-12.44-1.52-12.44-1.52-3.32-.76-5-5.3a103.35,103.35,0,0,0-4.81-10.57c-1-2-3.16-6-3-6,0,0,7.81,5.2,9.47,6.72s7.47,7.57,10.79,7.57,8.29-2.27,7.46-6.06-2.49-3-4.15-1.51-2.48,2.27-5.8.76-5.81-4.55-7.47-6.82c-1.11-1.53-5.44-8.26-8.42-13-4.52,6.51-6.88,15.1-6.88,25.57,0,20.13,8.72,33.63,24.8,38.61a39.69,39.69,0,0,1-3.69-7.25c-.83-3,0-5.3,0-6.82s5-4.54,5.8-6.06,1.66-4.54,3.32-6.06,4.15-3,5-2.27-.83,3.79-2.49,4.54.83,3.79,1.66,4.55,1.66-2.27,2.49-3,3.13,2.55,3.13,2.55,2.3-3.31,3.13-2.55,1.66,3.79,2.49,3,3.32-3.79,1.66-4.55-3.32-3.78-2.49-4.54,3.32.76,5,2.27,2.49,4.55,3.32,6.06,5.8,4.55,5.8,6.06.83,3.79,0,6.82a40.73,40.73,0,0,1-3.8,7.43c16.45-4.84,25.38-18.42,25.38-38.79C451.41,185.08,449,176.37,444.28,169.82Zm-31,23.94a43,43,0,0,0-2.3,4.5,43,43,0,0,0-2.3-4.5c-1.66-3,2.3-33.26,2.3-33.26S414.9,190.73,413.24,193.76Z"/><path class="cls-6" d="M413.24,193.76a43,43,0,0,0-2.3,4.5,43,43,0,0,0-2.3-4.5c-1.66-3,2.3-33.26,2.3-33.26S414.9,190.73,413.24,193.76Z"/><path class="cls-6" d="M429.83,227.1a40.73,40.73,0,0,1-3.8,7.43,51.78,51.78,0,0,1-14.23,2c6.34-.26,11.38-4.4,11.38-9.49,0-3.38-2.23-5.31-5.59-6.25a27.77,27.77,0,0,0-12.82,0h0c-3.35.94-5.58,2.87-5.58,6.25,0,5.09,5,9.23,11.38,9.49a51,51,0,0,1-14.82-2.14,39.69,39.69,0,0,1-3.69-7.25c-.83-3,0-5.3,0-6.82s5-4.54,5.8-6.06,1.66-4.54,3.32-6.06,4.15-3,5-2.27-.83,3.79-2.49,4.54.83,3.79,1.66,4.55,1.66-2.27,2.49-3,3.13,2.55,3.13,2.55,2.3-3.31,3.13-2.55,1.66,3.79,2.49,3,3.32-3.79,1.66-4.55-3.32-3.78-2.49-4.54,3.32.76,5,2.27,2.49,4.55,3.32,6.06,5.8,4.55,5.8,6.06S430.66,224.07,429.83,227.1Z"/><path class="cls-6" d="M445.94,182.5s-7.81,5.2-9.47,6.72-7.47,7.57-10.79,7.57-8.29-2.27-7.46-6.06,2.49-3,4.15-1.51,2.48,2.27,5.8.76,5.81-4.55,7.47-6.82c1.14-1.57,5.66-8.6,8.64-13.34a31.29,31.29,0,0,0-12.69-10.36c.15,4.36.35,14.47-.93,19.15-1.66,6.06-3.32,9.85-5,9.85s-4.14-3-5.8-3-3.32,1.51-3.32,4.55.83,12.12.83,12.12,0,3.79,3.32,3.79,12.44-1.52,12.44-1.52,3.32-.76,5-5.3a103.35,103.35,0,0,1,4.81-10.57C443.94,186.5,446.1,182.52,445.94,182.5Zm-17.44,20a20,20,0,0,1-5.72-.86s2.56-3.44,5.72-3.44a32.85,32.85,0,0,1,6.67.86S431.66,202.5,428.5,202.5Z"/><path class="cls-6" d="M435.17,199.06s-3.51,3.44-6.67,3.44a20,20,0,0,1-5.72-.86s2.56-3.44,5.72-3.44A32.85,32.85,0,0,1,435.17,199.06Z"/><path class="cls-6" d="M423.18,227c0,5.09-5,9.23-11.38,9.49h-1.24c-6.34-.26-11.38-4.4-11.38-9.49,0-3.38,2.23-5.31,5.58-6.25h0l.92,2.76a2.18,2.18,0,0,0,2.08,1.49h6.89a2.09,2.09,0,0,0,2-1.45l.93-2.8C421,221.69,423.18,223.62,423.18,227Z"/><path class="cls-6" d="M417.59,220.75l-.93,2.8a2.09,2.09,0,0,1-2,1.45h-6.89a2.18,2.18,0,0,1-2.08-1.49l-.92-2.76a27.77,27.77,0,0,1,12.82,0Z"/><path class="cls-6" d="M410.94,198.26a2.35,2.35,0,0,0-.19.81"/><path class="cls-6" d="M402,185.43c-1.66,0-4.15,3-5.8,3s-3.32-3.79-5-9.85c-1.26-4.6-1.09-14.46-.93-18.93a31.16,31.16,0,0,0-12.47,10.49c3,4.73,7.31,11.46,8.42,13,1.66,2.27,4.15,5.3,7.47,6.82s4.14.75,5.8-.76,3.32-2.28,4.15,1.51-4.15,6.06-7.46,6.06-9.13-6.06-10.79-7.57-9.47-6.72-9.47-6.72c-.16,0,2,4,3,6a103.35,103.35,0,0,1,4.81,10.57c1.66,4.54,5,5.3,5,5.3s9.12,1.52,12.44,1.52,3.32-3.79,3.32-3.79.83-9.09.83-12.12S403.66,185.43,402,185.43Zm-7.38,17.07c-3.16,0-6.68-3.44-6.68-3.44a33,33,0,0,1,6.68-.86c3.16,0,5.72,3.44,5.72,3.44A20,20,0,0,1,394.62,202.5Z"/><path class="cls-6" d="M400.34,201.64a20,20,0,0,1-5.72.86c-3.16,0-6.68-3.44-6.68-3.44a33,33,0,0,1,6.68-.86C397.78,198.2,400.34,201.64,400.34,201.64Z"/><path class="cls-6" d="M411.13,199.07a2.35,2.35,0,0,0-.19-.81"/><path class="cls-1" d="M584.59,85.37s-3.72,4.66-7.82,5.35a30.19,30.19,0,0,1-7.62.28s2.48-4.45,6.58-5.14A49.93,49.93,0,0,1,584.59,85.37Z"/><path d="M584.13,79.23a111,111,0,0,1-12.9,6.53c-3.4,1.5-6.45,3.26-5.53,5.71s2.77,3.27,5.53,3.27h10a6.51,6.51,0,0,0,3.86-1.24,8,8,0,0,0,2.7-4.48,49.27,49.27,0,0,1,3.69-9A48.22,48.22,0,0,1,594.26,76,21.88,21.88,0,0,0,584.13,79.23Zm-7.36,11.49a30.19,30.19,0,0,1-7.62.28s2.48-4.45,6.58-5.14a49.93,49.93,0,0,1,8.86-.49S580.87,90,576.77,90.72Z"/><path d="M550.65,85.76a111,111,0,0,1-12.9-6.53A21.88,21.88,0,0,0,527.62,76a48.22,48.22,0,0,1,2.76,4.09,49.27,49.27,0,0,1,3.69,9,8,8,0,0,0,2.7,4.48,6.51,6.51,0,0,0,3.86,1.24h10c2.76,0,4.61-.82,5.53-3.27S554.05,87.26,550.65,85.76Zm-5.54,5c-4.1-.69-7.82-5.35-7.82-5.35a49.93,49.93,0,0,1,8.86.49c4.1.69,6.58,5.14,6.58,5.14A30.19,30.19,0,0,1,545.11,90.72Z"/><path class="cls-1" d="M552.73,91a30.19,30.19,0,0,1-7.62-.28c-4.1-.69-7.82-5.35-7.82-5.35a49.93,49.93,0,0,1,8.86.49C550.25,86.55,552.73,91,552.73,91Z"/><path class="cls-6" d="M601.18,196.74c0,20.1-8.7,33.59-24.73,38.59a25.88,25.88,0,0,0,2.15-11.06A22.23,22.23,0,0,0,574.91,212c-1.61-2.15-4.6-4.9-6.44-4.08s-.92,4.08-.92,4.08.92,3.27-.93,4.08-5.68-2.11-5.68-2.11-3.84,2.93-5.68,2.11-.93-4.08-.93-4.08.93-3.26-.92-4.08-4.83,1.93-6.44,4.08a22.23,22.23,0,0,0-3.69,12.24,25.88,25.88,0,0,0,2.15,11.06c-16-5-24.73-18.49-24.73-38.59a53.42,53.42,0,0,1,2-15.28c2.52,3.63,5.31,7.67,5.8,8.53a61.84,61.84,0,0,1,3.69,7.35,10.21,10.21,0,0,0,.57,1.23,10.08,10.08,0,0,0,8.14,5c1.93.16,4.14.3,6,.3,4.6,0,7.36,0,10.13-1.63,2.21-1.31.88-7.85.26-10.4a17,17,0,0,0-1.18-2.66l-15-29a55.08,55.08,0,0,1,39.54,0l-15,29a17,17,0,0,0-1.18,2.66c-.62,2.55-1.95,9.09.26,10.4,2.77,1.63,5.53,1.63,10.13,1.63,1.89,0,4.1-.14,6-.3a10.08,10.08,0,0,0,8.14-5,10.21,10.21,0,0,0,.57-1.23,61.84,61.84,0,0,1,3.69-7.35c.49-.86,3.28-4.9,5.8-8.53A53.42,53.42,0,0,1,601.18,196.74Z"/><path class="cls-6" d="M557.36,191.84a17,17,0,0,0-1.18-2.66l-15-29c-.9.39-1.78.81-2.62,1.27l15.78,29.37L529.07,169.2a34.75,34.75,0,0,0-6.33,12.25h0c2.52,3.63,5.31,7.67,5.8,8.53a61.84,61.84,0,0,1,3.69,7.35,10.21,10.21,0,0,0,.57,1.23,10.08,10.08,0,0,0,8.14,5c1.93.16,4.14.3,6,.3,4.6,0,7.36,0,10.13-1.63C559.31,200.93,558,194.39,557.36,191.84ZM556.18,199c-.92,2.45-2.77,3.27-5.53,3.27h-10a6.51,6.51,0,0,1-3.86-1.24,8,8,0,0,1-2.7-4.48,49.27,49.27,0,0,0-3.69-9,48.22,48.22,0,0,0-2.76-4.09,21.88,21.88,0,0,1,10.13,3.27,111,111,0,0,0,12.9,6.53C554.05,194.76,557.1,196.52,556.18,199Z"/><path class="cls-6" d="M554.33,190.81,529.07,169.2a30.93,30.93,0,0,1,9.48-7.76Z"/><path class="cls-6" d="M578.6,224.27a25.88,25.88,0,0,1-2.15,11.06,51.08,51.08,0,0,1-14.89,2.16c6.34-.26,11.38-4.4,11.38-9.49,0-3.38-2.23-5.31-5.59-6.25a27.77,27.77,0,0,0-12.82,0h0c-3.35.94-5.58,2.87-5.58,6.25,0,5.09,5,9.23,11.38,9.49a51.08,51.08,0,0,1-14.89-2.16,25.88,25.88,0,0,1-2.15-11.06A22.23,22.23,0,0,1,547,212c1.61-2.15,4.6-4.9,6.44-4.08s.92,4.08.92,4.08-.92,3.27.93,4.08,5.68-2.11,5.68-2.11,3.84,2.93,5.68,2.11.93-4.08.93-4.08-.93-3.26.92-4.08,4.83,1.93,6.44,4.08A22.23,22.23,0,0,1,578.6,224.27Z"/><path class="cls-6" d="M592.81,169.2l-25.26,21.61,15.78-29.37c-.84-.46-1.72-.88-2.62-1.27l-15,29a17,17,0,0,0-1.18,2.66c-.62,2.55-1.95,9.09.26,10.4,2.77,1.63,5.53,1.63,10.13,1.63,1.89,0,4.1-.14,6-.3a10.08,10.08,0,0,0,8.14-5,10.21,10.21,0,0,0,.57-1.23,61.84,61.84,0,0,1,3.69-7.35c.49-.86,3.28-4.9,5.8-8.53h0A34.75,34.75,0,0,0,592.81,169.2Zm-1.31,18.35a49.27,49.27,0,0,0-3.69,9,8,8,0,0,1-2.7,4.48,6.51,6.51,0,0,1-3.86,1.24h-10c-2.76,0-4.61-.82-5.53-3.27s2.13-4.21,5.53-5.71a111,111,0,0,0,12.9-6.53,21.88,21.88,0,0,1,10.13-3.27A48.22,48.22,0,0,0,591.5,187.55Z"/><path class="cls-6" d="M592.81,169.2l-25.26,21.61,15.78-29.37A30.93,30.93,0,0,1,592.81,169.2Z"/><path class="cls-6" d="M572.94,228c0,5.09-5,9.23-11.38,9.49h-1.24c-6.34-.26-11.38-4.4-11.38-9.49,0-3.38,2.23-5.31,5.58-6.25h0l.92,2.76a2.18,2.18,0,0,0,2.08,1.49h6.89a2.09,2.09,0,0,0,2-1.45l.93-2.8C570.71,222.69,572.94,224.62,572.94,228Z"/><path class="cls-6" d="M567.35,221.75l-.93,2.8a2.09,2.09,0,0,1-2,1.45h-6.89a2.18,2.18,0,0,1-2.08-1.49l-.92-2.76a27.77,27.77,0,0,1,12.82,0Z"/><path class="cls-6" d="M584.59,192.87s-3.72,4.66-7.82,5.35a30.19,30.19,0,0,1-7.62.28s2.48-4.45,6.58-5.14A49.93,49.93,0,0,1,584.59,192.87Z"/><path class="cls-6" d="M584.13,186.73a111,111,0,0,1-12.9,6.53c-3.4,1.5-6.45,3.26-5.53,5.71s2.77,3.27,5.53,3.27h10a6.51,6.51,0,0,0,3.86-1.24,8,8,0,0,0,2.7-4.48,49.27,49.27,0,0,1,3.69-9,48.22,48.22,0,0,1,2.76-4.09A21.88,21.88,0,0,0,584.13,186.73Zm-7.36,11.49a30.19,30.19,0,0,1-7.62.28s2.48-4.45,6.58-5.14a49.93,49.93,0,0,1,8.86-.49S580.87,197.53,576.77,198.22Z"/><path class="cls-6" d="M550.65,193.26a111,111,0,0,1-12.9-6.53,21.88,21.88,0,0,0-10.13-3.27,48.22,48.22,0,0,1,2.76,4.09,49.27,49.27,0,0,1,3.69,9,8,8,0,0,0,2.7,4.48,6.51,6.51,0,0,0,3.86,1.24h10c2.76,0,4.61-.82,5.53-3.27S554.05,194.76,550.65,193.26Zm-5.54,5c-4.1-.69-7.82-5.35-7.82-5.35a49.93,49.93,0,0,1,8.86.49c4.1.69,6.58,5.14,6.58,5.14A30.19,30.19,0,0,1,545.11,198.22Z"/><path class="cls-6" d="M552.73,198.5a30.19,30.19,0,0,1-7.62-.28c-4.1-.69-7.82-5.35-7.82-5.35a49.93,49.93,0,0,1,8.86.49C550.25,194.05,552.73,198.5,552.73,198.5Z"/><path class="cls-4" d="M572.94,120.5c0,5.09-5,9.23-11.38,9.49h-1.24c-6.34-.26-11.38-4.4-11.38-9.49,0-3.38,2.23-5.31,5.58-6.25h0l.92,2.76a2.18,2.18,0,0,0,2.08,1.49h6.89a2.09,2.09,0,0,0,2-1.45l.93-2.8C570.71,115.19,572.94,117.12,572.94,120.5Z"/><polyline class="cls-8" points="158.94 137 158.94 137.5 158.44 137.5"/><line class="cls-9" x1="156.44" y1="137.5" x2="64.44" y2="137.5"/><polyline class="cls-8" points="63.44 137.5 62.94 137.5 62.94 137"/><line class="cls-9" x1="62.94" y1="135" x2="62.94" y2="43"/><polyline class="cls-8" points="62.94 42 62.94 41.5 63.44 41.5"/><line class="cls-9" x1="65.44" y1="41.5" x2="157.44" y2="41.5"/><polyline class="cls-8" points="158.44 41.5 158.94 41.5 158.94 42"/><line class="cls-9" x1="158.94" y1="44" x2="158.94" y2="136"/><rect class="cls-10" x="66.94" y="45.5" width="88" height="88" rx="44"/><polyline class="cls-8" points="150.94 129 150.94 129.5 150.44 129.5"/><line class="cls-11" x1="148.47" y1="129.5" x2="72.43" y2="129.5"/><polyline class="cls-8" points="71.44 129.5 70.94 129.5 70.94 129"/><line class="cls-11" x1="70.94" y1="127.02" x2="70.94" y2="50.98"/><polyline class="cls-8" points="70.94 50 70.94 49.5 71.44 49.5"/><line class="cls-11" x1="73.42" y1="49.5" x2="149.46" y2="49.5"/><polyline class="cls-8" points="150.44 49.5 150.94 49.5 150.94 50"/><line class="cls-11" x1="150.94" y1="51.97" x2="150.94" y2="128.01"/><polyline class="cls-8" points="146.94 133 146.94 133.5 146.44 133.5"/><line class="cls-9" x1="144.44" y1="133.5" x2="76.44" y2="133.5"/><polyline class="cls-8" points="75.44 133.5 74.94 133.5 74.94 133"/><line class="cls-12" x1="74.94" y1="130.97" x2="74.94" y2="47.01"/><polyline class="cls-8" points="74.94 46 74.94 45.5 75.44 45.5"/><line class="cls-9" x1="77.44" y1="45.5" x2="145.44" y2="45.5"/><polyline class="cls-8" points="146.44 45.5 146.94 45.5 146.94 46"/><line class="cls-12" x1="146.94" y1="48.02" x2="146.94" y2="131.99"/><polyline class="cls-8" points="154.94 125 154.94 125.5 154.44 125.5"/><line class="cls-12" x1="152.42" y1="125.5" x2="68.46" y2="125.5"/><polyline class="cls-8" points="67.44 125.5 66.94 125.5 66.94 125"/><line class="cls-9" x1="66.94" y1="123" x2="66.94" y2="55"/><polyline class="cls-8" points="66.94 54 66.94 53.5 67.44 53.5"/><line class="cls-12" x1="69.47" y1="53.5" x2="153.43" y2="53.5"/><polyline class="cls-8" points="154.44 53.5 154.94 53.5 154.94 54"/><line class="cls-9" x1="154.94" y1="56" x2="154.94" y2="124"/><rect class="cls-13" x="66.94" y="45.5" width="88" height="88"/><line class="cls-8" x1="110.94" y1="41.5" x2="110.94" y2="42"/><line class="cls-9" x1="110.94" y1="44" x2="110.94" y2="136"/><line class="cls-8" x1="110.94" y1="137" x2="110.94" y2="137.5"/><line class="cls-8" x1="62.94" y1="89.5" x2="63.44" y2="89.5"/><line class="cls-9" x1="65.44" y1="89.5" x2="157.44" y2="89.5"/><line class="cls-8" x1="158.44" y1="89.5" x2="158.94" y2="89.5"/><polyline class="cls-8" points="308.94 137 308.94 137.5 308.44 137.5"/><line class="cls-9" x1="306.44" y1="137.5" x2="214.44" y2="137.5"/><polyline class="cls-8" points="213.44 137.5 212.94 137.5 212.94 137"/><line class="cls-9" x1="212.94" y1="135" x2="212.94" y2="43"/><polyline class="cls-8" points="212.94 42 212.94 41.5 213.44 41.5"/><line class="cls-9" x1="215.44" y1="41.5" x2="307.44" y2="41.5"/><polyline class="cls-8" points="308.44 41.5 308.94 41.5 308.94 42"/><line class="cls-9" x1="308.94" y1="44" x2="308.94" y2="136"/><rect class="cls-10" x="216.94" y="45.5" width="88" height="88" rx="44"/><polyline class="cls-8" points="300.94 129 300.94 129.5 300.44 129.5"/><line class="cls-11" x1="298.47" y1="129.5" x2="222.43" y2="129.5"/><polyline class="cls-8" points="221.44 129.5 220.94 129.5 220.94 129"/><line class="cls-11" x1="220.94" y1="127.02" x2="220.94" y2="50.98"/><polyline class="cls-8" points="220.94 50 220.94 49.5 221.44 49.5"/><line class="cls-11" x1="223.42" y1="49.5" x2="299.46" y2="49.5"/><polyline class="cls-8" points="300.44 49.5 300.94 49.5 300.94 50"/><line class="cls-11" x1="300.94" y1="51.97" x2="300.94" y2="128.01"/><polyline class="cls-8" points="296.94 133 296.94 133.5 296.44 133.5"/><line class="cls-9" x1="294.44" y1="133.5" x2="226.44" y2="133.5"/><polyline class="cls-8" points="225.44 133.5 224.94 133.5 224.94 133"/><line class="cls-12" x1="224.94" y1="130.97" x2="224.94" y2="47.01"/><polyline class="cls-8" points="224.94 46 224.94 45.5 225.44 45.5"/><line class="cls-9" x1="227.44" y1="45.5" x2="295.44" y2="45.5"/><polyline class="cls-8" points="296.44 45.5 296.94 45.5 296.94 46"/><line class="cls-12" x1="296.94" y1="48.02" x2="296.94" y2="131.99"/><polyline class="cls-8" points="304.94 125 304.94 125.5 304.44 125.5"/><line class="cls-12" x1="302.42" y1="125.5" x2="218.46" y2="125.5"/><polyline class="cls-8" points="217.44 125.5 216.94 125.5 216.94 125"/><line class="cls-9" x1="216.94" y1="123" x2="216.94" y2="55"/><polyline class="cls-8" points="216.94 54 216.94 53.5 217.44 53.5"/><line class="cls-12" x1="219.47" y1="53.5" x2="303.43" y2="53.5"/><polyline class="cls-8" points="304.44 53.5 304.94 53.5 304.94 54"/><line class="cls-9" x1="304.94" y1="56" x2="304.94" y2="124"/><rect class="cls-13" x="216.94" y="45.5" width="88" height="88"/><line class="cls-8" x1="260.94" y1="41.5" x2="260.94" y2="42"/><line class="cls-9" x1="260.94" y1="44" x2="260.94" y2="136"/><line class="cls-8" x1="260.94" y1="137" x2="260.94" y2="137.5"/><line class="cls-8" x1="212.94" y1="89.5" x2="213.44" y2="89.5"/><line class="cls-9" x1="215.44" y1="89.5" x2="307.44" y2="89.5"/><line class="cls-8" x1="308.44" y1="89.5" x2="308.94" y2="89.5"/><polyline class="cls-8" points="458.94 137 458.94 137.5 458.44 137.5"/><line class="cls-9" x1="456.44" y1="137.5" x2="364.44" y2="137.5"/><polyline class="cls-8" points="363.44 137.5 362.94 137.5 362.94 137"/><line class="cls-9" x1="362.94" y1="135" x2="362.94" y2="43"/><polyline class="cls-8" points="362.94 42 362.94 41.5 363.44 41.5"/><line class="cls-9" x1="365.44" y1="41.5" x2="457.44" y2="41.5"/><polyline class="cls-8" points="458.44 41.5 458.94 41.5 458.94 42"/><line class="cls-9" x1="458.94" y1="44" x2="458.94" y2="136"/><rect class="cls-10" x="366.94" y="45.5" width="88" height="88" rx="44"/><polyline class="cls-8" points="450.94 129 450.94 129.5 450.44 129.5"/><line class="cls-11" x1="448.47" y1="129.5" x2="372.43" y2="129.5"/><polyline class="cls-8" points="371.44 129.5 370.94 129.5 370.94 129"/><line class="cls-11" x1="370.94" y1="127.02" x2="370.94" y2="50.98"/><polyline class="cls-8" points="370.94 50 370.94 49.5 371.44 49.5"/><line class="cls-11" x1="373.42" y1="49.5" x2="449.46" y2="49.5"/><polyline class="cls-8" points="450.44 49.5 450.94 49.5 450.94 50"/><line class="cls-11" x1="450.94" y1="51.97" x2="450.94" y2="128.01"/><polyline class="cls-8" points="446.94 133 446.94 133.5 446.44 133.5"/><line class="cls-9" x1="444.44" y1="133.5" x2="376.44" y2="133.5"/><polyline class="cls-8" points="375.44 133.5 374.94 133.5 374.94 133"/><line class="cls-12" x1="374.94" y1="130.97" x2="374.94" y2="47.01"/><polyline class="cls-8" points="374.94 46 374.94 45.5 375.44 45.5"/><line class="cls-9" x1="377.44" y1="45.5" x2="445.44" y2="45.5"/><polyline class="cls-8" points="446.44 45.5 446.94 45.5 446.94 46"/><line class="cls-12" x1="446.94" y1="48.02" x2="446.94" y2="131.99"/><polyline class="cls-8" points="454.94 125 454.94 125.5 454.44 125.5"/><line class="cls-12" x1="452.42" y1="125.5" x2="368.46" y2="125.5"/><polyline class="cls-8" points="367.44 125.5 366.94 125.5 366.94 125"/><line class="cls-9" x1="366.94" y1="123" x2="366.94" y2="55"/><polyline class="cls-8" points="366.94 54 366.94 53.5 367.44 53.5"/><line class="cls-12" x1="369.47" y1="53.5" x2="453.43" y2="53.5"/><polyline class="cls-8" points="454.44 53.5 454.94 53.5 454.94 54"/><line class="cls-9" x1="454.94" y1="56" x2="454.94" y2="124"/><rect class="cls-13" x="366.94" y="45.5" width="88" height="88"/><line class="cls-8" x1="410.94" y1="41.5" x2="410.94" y2="42"/><line class="cls-9" x1="410.94" y1="44" x2="410.94" y2="136"/><line class="cls-8" x1="410.94" y1="137" x2="410.94" y2="137.5"/><line class="cls-8" x1="362.94" y1="89.5" x2="363.44" y2="89.5"/><line class="cls-9" x1="365.44" y1="89.5" x2="457.44" y2="89.5"/><line class="cls-8" x1="458.44" y1="89.5" x2="458.94" y2="89.5"/><polyline class="cls-8" points="608.94 137 608.94 137.5 608.44 137.5"/><line class="cls-9" x1="606.44" y1="137.5" x2="514.44" y2="137.5"/><polyline class="cls-8" points="513.44 137.5 512.94 137.5 512.94 137"/><line class="cls-9" x1="512.94" y1="135" x2="512.94" y2="43"/><polyline class="cls-8" points="512.94 42 512.94 41.5 513.44 41.5"/><line class="cls-9" x1="515.44" y1="41.5" x2="607.44" y2="41.5"/><polyline class="cls-8" points="608.44 41.5 608.94 41.5 608.94 42"/><line class="cls-9" x1="608.94" y1="44" x2="608.94" y2="136"/><rect class="cls-10" x="516.94" y="45.5" width="88" height="88" rx="44"/><polyline class="cls-8" points="600.94 129 600.94 129.5 600.44 129.5"/><line class="cls-11" x1="598.47" y1="129.5" x2="522.43" y2="129.5"/><polyline class="cls-8" points="521.44 129.5 520.94 129.5 520.94 129"/><line class="cls-11" x1="520.94" y1="127.02" x2="520.94" y2="50.98"/><polyline class="cls-8" points="520.94 50 520.94 49.5 521.44 49.5"/><line class="cls-11" x1="523.42" y1="49.5" x2="599.46" y2="49.5"/><polyline class="cls-8" points="600.44 49.5 600.94 49.5 600.94 50"/><line class="cls-11" x1="600.94" y1="51.97" x2="600.94" y2="128.01"/><polyline class="cls-8" points="596.94 133 596.94 133.5 596.44 133.5"/><line class="cls-9" x1="594.44" y1="133.5" x2="526.44" y2="133.5"/><polyline class="cls-8" points="525.44 133.5 524.94 133.5 524.94 133"/><line class="cls-12" x1="524.94" y1="130.97" x2="524.94" y2="47.01"/><polyline class="cls-8" points="524.94 46 524.94 45.5 525.44 45.5"/><line class="cls-9" x1="527.44" y1="45.5" x2="595.44" y2="45.5"/><polyline class="cls-8" points="596.44 45.5 596.94 45.5 596.94 46"/><line class="cls-12" x1="596.94" y1="48.02" x2="596.94" y2="131.99"/><polyline class="cls-8" points="604.94 125 604.94 125.5 604.44 125.5"/><line class="cls-12" x1="602.42" y1="125.5" x2="518.46" y2="125.5"/><polyline class="cls-8" points="517.44 125.5 516.94 125.5 516.94 125"/><line class="cls-9" x1="516.94" y1="123" x2="516.94" y2="55"/><polyline class="cls-8" points="516.94 54 516.94 53.5 517.44 53.5"/><line class="cls-12" x1="519.47" y1="53.5" x2="603.43" y2="53.5"/><polyline class="cls-8" points="604.44 53.5 604.94 53.5 604.94 54"/><line class="cls-9" x1="604.94" y1="56" x2="604.94" y2="124"/><rect class="cls-13" x="516.94" y="45.5" width="88" height="88"/><line class="cls-8" x1="560.94" y1="41.5" x2="560.94" y2="42"/><line class="cls-9" x1="560.94" y1="44" x2="560.94" y2="136"/><line class="cls-8" x1="560.94" y1="137" x2="560.94" y2="137.5"/><line class="cls-8" x1="512.94" y1="89.5" x2="513.44" y2="89.5"/><line class="cls-9" x1="515.44" y1="89.5" x2="607.44" y2="89.5"/><line class="cls-8" x1="608.44" y1="89.5" x2="608.94" y2="89.5"/></g></svg>