<svg xmlns="http://www.w3.org/2000/svg" viewBox="0 0 662.82 281.56"><defs><style>.cls-1{fill:#ce3a3a;}.cls-10,.cls-12,.cls-13,.cls-14,.cls-15,.cls-16,.cls-17,.cls-2{fill:none;}.cls-11,.cls-2{stroke:#000;}.cls-11,.cls-2,.cls-9{stroke-miterlimit:10;}.cls-3{fill:#e8e8e8;}.cls-4{fill:#f4d3a2;}.cls-5{fill:#aa3a3a;}.cls-6{fill:#775545;}.cls-7{fill:#c697c9;}.cls-8{fill:#cc4040;}.cls-9{fill:#f4e44d;stroke:#f94e4e;}.cls-11{fill:#fdffff;}.cls-12,.cls-13,.cls-14,.cls-15,.cls-16{stroke:#b2b2b2;}.cls-12,.cls-13,.cls-14,.cls-15,.cls-16,.cls-17{stroke-linecap:round;stroke-linejoin:round;stroke-width:0.3px;}.cls-13{stroke-dasharray:1 2;}.cls-14{stroke-dasharray:1 2;}.cls-15{stroke-dasharray:0.99 1.98;}.cls-16{stroke-dasharray:1.01 2.02;}.cls-17{stroke:#ff434d;}</style></defs><title>1b</title><g id="Grid"><path class="cls-1" d="M595.22,89.41c-5.34,4.74-11.94,10.45-15.12,12.64-5.83,4-15.16,5.2-19.16,4.45-1.34-2.37,1.83-11.88,3.5-15.74s10-7.28,13.5-10.84c2.43-2.48,5.83-9.54,7.67-13.62-6.82-7.18-17.07-11-30.34-11s-23.52,3.79-30.34,11c1.84,4.08,5.24,11.14,7.67,13.62,3.5,3.56,11.84,7,13.5,10.84s4.84,13.37,3.5,15.74c-4,.75-13.33-.44-19.16-4.45-3.18-2.19-9.78-7.9-15.12-12.64-.19,2-.29,4-.29,6.16,0,25.64,14.16,40.52,39.62,40.75-6.34-.26-11.38-4.4-11.38-9.49,0-3.38,2.23-5.31,5.58-6.25h0a27.77,27.77,0,0,1,12.82,0c3.36.94,5.59,2.87,5.59,6.25,0,5.09-5,9.23-11.38,9.49,25.46-.23,39.62-15.11,39.62-40.75C595.51,93.44,595.41,91.38,595.22,89.41Zm-40,11.65c-.91,0-2-.88-3.11-2.26l-.35-.46,0,0a2.7,2.7,0,0,1-.22-.31l0-.07,0,0a25.28,25.28,0,0,1-2.8-5.63c-.27-.78-.51-1.58-.7-2.37-.12-.53-.23-1.06-.31-1.58s-.14-1-.17-1.54a9.7,9.7,0,0,1,.44-3.73c2.16-6.09,7.83-19.68,7.66-23.21,0,0,1.5,9.25,3.5,14.44s4.84,11.29,3.5,16.79A19.53,19.53,0,0,1,558.91,99,5,5,0,0,1,555.25,101.06Z"/><path class="cls-2" d="M533.53,93.14c1.14.17,2,.27,2.32.3C535.08,93.31,534.3,93.22,533.53,93.14Zm-13.14-4.06a3.14,3.14,0,0,0,.86.78C520.08,88.63,519.71,88.11,520.39,89.08Z"/><path class="cls-3" d="M546.1,90.76c-1.66-3.86-10-7.28-13.5-10.84-2.43-2.48-5.83-9.54-7.67-13.62-5.39,5.66-8.66,13.43-9.61,23.11,5.34,4.74,11.94,10.45,15.12,12.64,5.83,4,15.16,5.2,19.16,4.45C550.94,104.13,547.77,94.62,546.1,90.76Zm-25.71-1.68c-.68-1-.31-.45.86.78A3.14,3.14,0,0,1,520.39,89.08ZM535,98.32c-5.81-.68-11.33-5.94-13.69-8.44,2.52,1.69,8.57,2.75,12.08,3.24a.55.55,0,0,0,.18,0c.77.08,1.55.17,2.32.3l.15,0c4.1.69,6.58,5.14,6.58,5.14A30.19,30.19,0,0,1,535,98.32Zm1.64-6.07c-4.66-2.08-12.5-8.62-12.16-12.33s.83-9.06.83-9.06,3.17,7.87,6.67,10.84,9.88,4.89,12.5,8.17,3.5,11.73,3.5,11.73S541.27,94.32,536.6,92.25Z"/><path d="M535,98.32c-5.81-.68-11.33-5.94-13.69-8.44,2.52,1.69,8.57,2.75,12.08,3.24a56.86,56.86,0,0,0-6.21-.15S530.86,97.63,535,98.32Z"/><path class="cls-3" d="M585.61,66.3c-1.84,4.08-5.24,11.14-7.67,13.62-3.5,3.56-11.84,7-13.5,10.84s-4.84,13.37-3.5,15.74c4,.75,13.33-.44,19.16-4.45,3.18-2.19,9.78-7.9,15.12-12.64C594.27,79.73,591,72,585.61,66.3Zm-23,35.3s.89-8.45,3.5-11.73,9-5.2,12.5-8.17,6.67-10.84,6.67-10.84.5,5.34.83,9.06-7.5,10.25-12.16,12.33S562.6,101.6,562.6,101.6Zm5.36-3s2.48-4.45,6.58-5.14l.15,0c.33,0,1.18-.13,2.32-.3a.55.55,0,0,0,.18,0A56.86,56.86,0,0,1,583.4,93s-3.72,4.66-7.82,5.35A30.19,30.19,0,0,1,568,98.6Z"/><path class="cls-4" d="M567.27,126.82c0,5.09-5,9.23-11.38,9.49h-1.24c-6.34-.26-11.38-4.4-11.38-9.49,0-3.38,2.23-5.31,5.58-6.25h0l.92,2.76a2.18,2.18,0,0,0,2.08,1.49h6.89a2.09,2.09,0,0,0,2-1.45l.93-2.8C565,121.51,567.27,123.44,567.27,126.82Z"/><path class="cls-5" d="M561.63,120.58l-.93,2.8a2.09,2.09,0,0,1-2,1.45h-6.89a2.18,2.18,0,0,1-2.08-1.49l-.92-2.76a27.77,27.77,0,0,1,12.82,0Z"/><path class="cls-6" d="M441.3,74.12A99.76,99.76,0,0,1,425.76,88c-6.88,4.77-11.08-1.26-5.41-3.76s9.41-10.44,10.61-15.5a11.47,11.47,0,0,0-1.09-7.3A31.14,31.14,0,0,1,441.3,74.12Z"/><path class="cls-3" d="M419.41,134.63a53.68,53.68,0,0,1-13.9,1.7c-11.63,0-20.95-3-27.67-8.71,5.11,1.59,13,4,13.92,3.85,1.32-.2,2.89-1.75,2.17-5.06s-.72-6.42,3.38-6.91h.11l1.52,2.56a4.67,4.67,0,0,0,4,2.16h4.66a4,4,0,0,0,3.31-1.67l2.09-3.12,2.73.08a5.8,5.8,0,0,1,5.43,5.34A19.21,19.21,0,0,1,419.41,134.63Z"/><path d="M426.5,130c-.46.62-1.09,1.64-1.76,2.78a40.72,40.72,0,0,1-5.33,1.84,19.21,19.21,0,0,0,1.78-9.79,5.8,5.8,0,0,0-5.43-5.34l-2.73-.08c-4.32-.11-12.55-.27-15.61.07h-.11c-4.1.49-4.1,3.6-3.38,6.91s-.85,4.86-2.17,5.06c-.89.13-8.81-2.26-13.92-3.85a29.66,29.66,0,0,1-3.21-3.13c6.25,1.2,12.7,1.93,14.1.75,1.72-1.46.21-5.35-2.09-7.39s-3.49-7.78,0-9.63,7.48,2.14,8.33,5.06,3.37,3.5,6.27,2.91,3.86-5.74,3.86-10.7a40,40,0,0,1,1.37-9.72s-.24,12.74,1.33,16.14,5.55,5.45,8.57,4.77,3.28-2.85,3.28-2.85,5.88,3.53,6.85,6.35S428.07,127.87,426.5,130Z"/><path class="cls-7" d="M398.15,108.22c-2.29.78-3.62-3.41-10.49-2.14S379.33,112.89,383,117s5.13,8.56,1.63,7.78c-2.55-.56-9.88-3.65-13.67-5.29-3.75-6.35-5.7-14.38-5.7-23.89a56.39,56.39,0,0,1,1.35-12.69c2,5.63,5.89,15.35,9.5,17.17,5.14,2.59,15.92,1.81,17.69,2.59S400.44,107.44,398.15,108.22Z"/><path class="cls-3" d="M441.3,74.12A99.76,99.76,0,0,1,425.76,88c-6.88,4.77-11.08-1.26-5.41-3.76s9.41-10.44,10.61-15.5a11.47,11.47,0,0,0-1.09-7.3c-6.36-4-14.53-6.09-24.36-6.09-21.25,0-34.76,9.72-38.89,27.55,2,5.63,5.89,15.35,9.5,17.17,5.14,2.59,15.92,1.81,17.69,2.59s6.63,4.8,4.34,5.58-3.62-3.41-10.49-2.14S379.33,112.89,383,117s5.13,8.56,1.63,7.78c-2.55-.56-9.88-3.65-13.67-5.29a31.74,31.74,0,0,0,3.66,5c6.25,1.2,12.7,1.93,14.1.75,1.72-1.46.21-5.35-2.09-7.39s-3.49-7.78,0-9.63,7.48,2.14,8.33,5.06,3.37,3.5,6.27,2.91,3.86-5.74,3.86-10.7a40,40,0,0,1,1.37-9.72s-.24,12.74,1.33,16.14,5.55,5.45,8.57,4.77,3.28-2.85,3.28-2.85,5.88,3.53,6.85,6.35,1.57,7.69,0,9.83c-.46.62-1.09,1.64-1.76,2.78,13.65-5.85,21-18.74,21-37.22C445.75,87.18,444.23,80,441.3,74.12ZM382.39,62.56S381.26,72.81,385,75.92s10.46,7.14,12.23,9.86,2.09,7.39,2.09,7.39-4.19-6.61-7.88-7.91S378.69,79.16,379,73.2A23.85,23.85,0,0,1,382.39,62.56Zm18,42.93s.32-3.63-8.68-4.54-15.93-1.55-18.82-9.27a47,47,0,0,1-3.06-13.81,32.29,32.29,0,0,0,16.09,11.28c10.45,3.11,13.83,8.43,14.47,11A12.68,12.68,0,0,1,400.4,105.49Zm4.34-15.23c-3.41-8.1-18.66-12.92-16.87-23.18,1.5-8.58,15.73-10.46,22.51-9.92,3.58.29,9.95.35,12.74,2.82,1.76,1.56,1.62,4.08,1.48,6.22-.42,6.45-3.66,14.12-10.17,16.5-2.79,1-6.45,1.14-9.05-.52a7.77,7.77,0,0,1-2.5-2.75,28.56,28.56,0,0,0-5.25-6.6c-3.82-3.77-2-7.93,2.87-9.86,4.52-1.78,16.1-4,18.66,2,2,4.57-3.59,12.29-8.37,12.44-4.16.13-8.53-6-5.37-9.53,2.46-2.76,7.11-.33,4.9,3.1-.36.56-1.27,0-.91-.53q-6.26,4.14.38,4.33c2,1.57,3.51,1.45,4.6-.34a10.38,10.38,0,0,0,2.78-3.64l-2.61-8.06-2.82-.3a30.21,30.21,0,0,0-3.43.2,39.07,39.07,0,0,0-4.57.57c-3.49.75-4.09,1-5.29,4.71-1.51,4.6-.23,3.5,2.27,6,1.28,1.3,1.79,2.84,2.72,4.35,2.23,3.64,6,4.92,10.07,3.67,6.24-1.91,9.32-9,9.93-15,.45-4.38-1.88-6.84-5.93-7.64a53,53,0,0,0-9.88-1.2c-6.07,0-18.76,2.57-18.8,10.54,0,5.85,6.73,10,10.59,13.31a21.44,21.44,0,0,1,6.33,8C406,90.6,405,90.87,404.74,90.26Zm34.47,7.26c.6,3.41-1,6.32-3.38,6.81s-2.66-2.53-3.38-7.88a10.81,10.81,0,0,0-3.86,7.49,30.27,30.27,0,0,1-.48-6.42c-5.8,2-3.86,10.31-3.86,10.31s-1.21-.29-1.21-2.62-.15-6.09-.15-6.09-.69-.24-3.83,1.81-1,8.53-.85,9a19.06,19.06,0,0,0-1.32-1.72A20.43,20.43,0,0,1,413,99.76c-.72-4,1.41-9.64,1.41-9.64a12.1,12.1,0,0,0-3.38,1.56,19.79,19.79,0,0,0-3.86,3s-2.78-4.58.6-4.28,7.24-3.41,7.48-3a9.11,9.11,0,0,0,3.62,5c3.14,2.34,9.29-3.6,12.06-6s11.22-5.25,11.22-5.25-.12.58-2.53,3.14S438.6,94.12,439.21,97.52Z"/><path class="cls-3" d="M255.27,55.33C229.42,55.33,215,69.71,215,95.57c0,18.58,7.43,31.51,21.22,37.31-.05-.22-.08-.39-.08-.39A48.42,48.42,0,0,1,235,123c0-1.15,5.58-13.61,8.6-15.27s5-.63,5-.63-1.84,2.29-1.21,3.84,3.51.86,3.51.86-1.43-1.65,0-2.28c.74-.33,1.87.46,2.78,1.3h0l.08.07.13-1.55h0c.18-2.36.51-6.82.51-9.36,0-3.56-1.75-10-2.07-18s2.87-22.48,2.87-22.48,3.19,14.89,2.87,22.83-2.07,14.43-2.07,18c0,3.2.52,9.48.62,10.71,0,.14,0,.21,0,.21.92-.87,2.1-1.72,2.86-1.38,1.43.63,0,2.28,0,2.28s2.87.69,3.51-.86-1.21-3.84-1.21-3.84,2-1,5,.63,8.6,14.12,8.6,15.27a48.42,48.42,0,0,1-1.13,9.48c13.74-5.81,21.14-18.73,21.14-37.27C295.51,69.71,281.12,55.33,255.27,55.33ZM233,79.13c5.1,1,13.86,1.78,15.13,7.76s0,5.47,0,5.47-3.5-4.71-6-5.35-7.49-1.78-10.51-4.32-6.46-10.54-6.68-11C225,72,228,78.14,233,79.13Zm14.34,22.38c-.48,1.28-3,1-3.83.77s-7.33-3.06-11.47-3.82a9.41,9.41,0,0,1-7.16-7.38c-.48-2.79-5.58-7.88-5.58-7.88a37.07,37.07,0,0,1,7,2.29c2.87,1.4,15.29,9,18,9.16a7.72,7.72,0,0,0,4.39-1S247.78,100.24,247.31,101.51Zm5.07-4.78c0,1-.46,1.72-1,1.72s-1-.77-1-1.72.46-1.71,1-1.71S252.38,95.78,252.38,96.73Zm6.8,2.07c-.56,0-1-.77-1-1.72s.46-1.72,1-1.72,1,.77,1,1.72S259.75,98.8,259.18,98.8Zm3.26-11.57c1.27-6,10-6.74,15.13-7.75,4.94-1,7.93-7.11,8.11-7.49-.22.51-3.74,8.58-6.68,11.05s-8,3.69-10.51,4.32-6.05,5.34-6.05,5.34S261.16,93.21,262.44,87.23Zm16.09,11.58c-4.14.76-10.68,3.56-11.47,3.82s-3.35.5-3.83-.77S261.87,94,261.87,94a7.67,7.67,0,0,0,4.39,1c2.71-.12,15.13-7.76,18-9.15a37.07,37.07,0,0,1,7-2.29s-5.1,5.08-5.58,7.88A9.41,9.41,0,0,1,278.53,98.81Z"/><path class="cls-2" d="M252.38,96.73c0,1-.46,1.72-1,1.72s-1-.77-1-1.72.46-1.71,1-1.71S252.38,95.78,252.38,96.73Z"/><path class="cls-2" d="M260.21,97.08c0,1-.46,1.72-1,1.72s-1-.77-1-1.72.46-1.72,1-1.72S260.21,96.13,260.21,97.08Z"/><path d="M275.5,123.36a48.42,48.42,0,0,1-1.13,9.48h0a48.32,48.32,0,0,1-18.48,3.47c6.34-.26,11.38-4.4,11.38-9.49,0-3.38-2.23-5.31-5.59-6.25a27.77,27.77,0,0,0-12.82,0h0c-3.35.94-5.58,2.87-5.58,6.25,0,5.09,5,9.23,11.38,9.49a48.41,48.41,0,0,1-18.4-3.44c-.05-.22-.08-.39-.08-.39A48.42,48.42,0,0,1,235,123c0-1.15,5.58-13.61,8.6-15.27s5-.63,5-.63-1.84,2.29-1.21,3.84,3.51.86,3.51.86-1.43-1.65,0-2.28c.74-.33,1.87.46,2.78,1.3h0a1.6,1.6,0,0,0,1.52,1.07,1.57,1.57,0,0,0,1.42-.86c0,.14,0,.21,0,.21.92-.87,2.1-1.72,2.86-1.38,1.43.63,0,2.28,0,2.28s2.87.69,3.51-.86-1.21-3.84-1.21-3.84,2-1,5,.63S275.5,122.21,275.5,123.36Z"/><path class="cls-1" d="M258.14,82.34c-.32,8-2.07,14.43-2.07,18,0,3.2.52,9.48.62,10.71a1.57,1.57,0,0,1-1.42.86,1.6,1.6,0,0,1-1.52-1.07l.08.07.13-1.55h0c.18-2.36.51-6.82.51-9.36,0-3.56-1.75-10-2.07-18s2.87-22.48,2.87-22.48S258.46,74.4,258.14,82.34Z"/><path class="cls-2" d="M278.05,95.79s-3.55,3.43-6.75,3.43a20.64,20.64,0,0,1-5.79-.85s2.59-3.43,5.79-3.43A34,34,0,0,1,278.05,95.79Z"/><path class="cls-4" d="M267.27,126.83c0,5.09-5,9.23-11.38,9.49h-1.24c-6.34-.26-11.38-4.4-11.38-9.49,0-3.38,2.23-5.31,5.58-6.25h0l.92,2.76a2.18,2.18,0,0,0,2.08,1.49h6.89a2.09,2.09,0,0,0,2-1.45l.93-2.8C265,121.52,267.27,123.45,267.27,126.83Z"/><path class="cls-8" d="M261.68,120.58l-.93,2.8a2.09,2.09,0,0,1-2,1.45h-6.89a2.18,2.18,0,0,1-2.08-1.49l-.92-2.76a27.77,27.77,0,0,1,12.82,0Z"/><path class="cls-2" d="M577,93.14c-1.14.17-2,.27-2.32.3C575.46,93.31,576.24,93.22,577,93.14Z"/><path class="cls-9" d="M104.11,108.47a1,1,0,0,0-.15.53,1,1,0,0,0,.09.41s0-.06,0-.09l0-.25c0-.11,0-.23,0-.35A2,2,0,0,0,104.11,108.47Zm2.31,0a.91.91,0,0,0,0,.17,2.28,2.28,0,0,0,0,.26v0c0,.1,0,.19,0,.27l0,.1a.62.62,0,0,0,0-.27A1.1,1.1,0,0,0,106.42,108.44Z"/><path class="cls-3" d="M123.38,58.32c-.17.43-.3.8-.4,1-1.15,2.31-2.29,4.63-3.44,6.94L112.75,80a28.13,28.13,0,0,0-2.18,5.25,22.13,22.13,0,0,0-.61,5.37c0,2.23,0,4.45.13,6.68.06,1.52.18,3.19,1.35,4.29,1.32,1.24,3.51,1.3,5.35.85s3.53-1.29,5.4-1.61c2.61-.45,5.4.16,7.92-.6a8.36,8.36,0,0,0,5-4.55,14.65,14.65,0,0,0,1.1-6.51c0-2.34-.26-4.93,1.39-6.74a16.38,16.38,0,0,1,2.29-1.8,10.94,10.94,0,0,0,2.67-2.94A31.9,31.9,0,0,0,123.38,58.32Zm4.86,6.9a2.37,2.37,0,1,1-2.62,2.36A2.51,2.51,0,0,1,128.24,65.22Zm-14.7,16.59a15,15,0,0,1,2.12-4.18c2.53-4,4.68-8.21,6.82-12.4.68-1.34,1.48-4.61,2.73-5.4a57.66,57.66,0,0,1-1.72,10.07,3.29,3.29,0,0,0-.18,2.65,2.69,2.69,0,0,0,2.54,1.11,8,8,0,0,0,2.8-.89,28.15,28.15,0,0,0,7.62-4.65c-1.51,2-3.84,3.44-5.83,5.11-3.65,3-6.19,7-8.71,10.82a7.2,7.2,0,0,1-2.53,2.67,4.27,4.27,0,0,1-4.62-.59A4.37,4.37,0,0,1,113.54,81.81Zm19.72,11.35c-2.17,6.75-4.59,5.23-11.56,6.42-6,1-7.14,3.1-9.43-2.36-.56-1.32-2.11-8.32.33-9a7.28,7.28,0,0,0,1.91,2.89c7.49,5,16.79-12.43,23-12.75C134.84,83.06,134.86,88.19,133.26,93.16Z"/><path d="M119.51,132c-1.57,1.21-3.08,2.42-4.46,3.55a55.21,55.21,0,0,1-9.16.79c6.34-.26,11.38-4.4,11.38-9.49,0-3.38-2.23-5.31-5.59-6.25a27.77,27.77,0,0,0-12.82,0h0c-3.35.94-5.58,2.87-5.58,6.25,0,5.09,5,9.23,11.38,9.49a55.6,55.6,0,0,1-9.67-.88c-1.39-1.13-3-2.41-4-3.16-6.11-4.71-4.76-11.15-4.37-13.35s2.62-3.93,5.24-6.29,1.75-3.92,3.49-6.28A3.09,3.09,0,0,1,98,105.13c-.18.07-.34.15-.5.23l-.08,0a1.38,1.38,0,0,0-.25.17,3.14,3.14,0,0,0-.57.45.6.6,0,0,0-.08.08.46.46,0,0,0-.07.07.34.34,0,0,0-.06.06,3.11,3.11,0,0,0-.23.28,3.18,3.18,0,0,0-.43.73,1.88,1.88,0,0,0-.12.3,2.38,2.38,0,0,0-.11.38,3,3,0,0,0-.06.32,3.59,3.59,0,0,0,0,.47,4.15,4.15,0,0,0,4.36,3.92h.32l.24,0s0,0,0,0l.27,0a4.31,4.31,0,0,0,3.07-2.17,1.69,1.69,0,0,0,.13-.27.92.92,0,0,0,.09-.23,1.49,1.49,0,0,0,.09-.3,1,1,0,0,0,0-.17,1.3,1.3,0,0,0,1.22.75,1.26,1.26,0,0,0,1.26-.88,1.93,1.93,0,0,0,.11.34.9.9,0,0,0,.08.21,1.2,1.2,0,0,0,.11.23,3.94,3.94,0,0,0,1.21,1.39.83.83,0,0,0,.23.15,2,2,0,0,0,.37.22l.31.14a3.13,3.13,0,0,0,.54.19c.12,0,.24.06.36.09a4.83,4.83,0,0,0,.94.09,4.15,4.15,0,0,0,4.36-3.92,3.29,3.29,0,0,0,0-.45,3,3,0,0,0-.08-.43,2.46,2.46,0,0,0-.09-.29,1.53,1.53,0,0,0-.11-.27,1.36,1.36,0,0,0-.1-.21s0,0,0,0a1.71,1.71,0,0,0-.13-.23,3.64,3.64,0,0,0-.64-.79,2.09,2.09,0,0,0-.28-.24.79.79,0,0,0-.18-.14,3,3,0,0,0-.42-.27L113,105l-.2-.09a1.69,1.69,0,0,0-.28-.12,3,3,0,0,1,2.64,1.25c1.74,2.36.87,3.93,3.49,6.28s4.82,4,5.24,6.29S125.62,127.27,119.51,132Z"/><path class="cls-1" d="M142.61,77.68a10.94,10.94,0,0,1-2.67,2.94,16.38,16.38,0,0,0-2.29,1.8c-1.65,1.81-1.43,4.4-1.39,6.74a14.65,14.65,0,0,1-1.1,6.51,8.36,8.36,0,0,1-5,4.55c-2.52.76-5.31.15-7.92.6-1.87.32-3.57,1.17-5.4,1.61s-4,.39-5.35-.85c-1.17-1.1-1.29-2.77-1.35-4.29-.09-2.23-.17-4.45-.13-6.68a22.13,22.13,0,0,1,.61-5.37A28.13,28.13,0,0,1,112.75,80l6.79-13.74c1.15-2.31,2.29-4.63,3.44-6.94.1-.19.23-.56.4-1a51,51,0,0,0-18.11-3A50.57,50.57,0,0,0,87,58.4c.32.66.57,1.15.6,1.21,1.15,2.31,2.29,4.63,3.44,6.94l6.79,13.74A28.13,28.13,0,0,1,100,85.54a22.13,22.13,0,0,1,.61,5.37c0,2.23,0,4.45-.13,6.68-.06,1.52-.18,3.19-1.35,4.29s-3.51,1.3-5.35.85-3.53-1.29-5.4-1.61c-2.61-.45-5.4.16-7.92-.6A8.36,8.36,0,0,1,75.38,96a14.65,14.65,0,0,1-1.1-6.51c0-2.34.26-4.93-1.39-6.74a16.38,16.38,0,0,0-2.29-1.8,22.77,22.77,0,0,1-2.72-3.08A51.19,51.19,0,0,0,65,95.57c0,22.18,10.6,36.31,30,39.87-1.39-1.13-3-2.41-4-3.16-6.11-4.71-4.76-11.15-4.37-13.35s2.62-3.93,5.24-6.29,1.75-3.92,3.49-6.28A3.09,3.09,0,0,1,98,105.13a4.69,4.69,0,0,1,1.77-.34,5.05,5.05,0,0,1,.88.08,3.2,3.2,0,0,1,.42.1,4.16,4.16,0,0,1,.79.3,2.71,2.71,0,0,1,.37.21,3.39,3.39,0,0,1,.53.38,3.45,3.45,0,0,1,.28.26,3.33,3.33,0,0,1,.25.28l.16.2.12.18a1.82,1.82,0,0,1,.15.27l.12.23a3.59,3.59,0,0,1,.29,1.18h0a2,2,0,0,1,0,.25c0,.12,0,.24,0,.35l0,.25s0,.06,0,.09h0a1.3,1.3,0,0,0,1.22.75,1.26,1.26,0,0,0,1.26-.88s0,0,0,0l0-.1c0-.08,0-.17,0-.27v0a2.28,2.28,0,0,1,0-.26.91.91,0,0,1,0-.17v0a4.17,4.17,0,0,1,4.37-3.93,4.65,4.65,0,0,1,1.72.32,3,3,0,0,1,2.64,1.25c1.74,2.36.87,3.93,3.49,6.28s4.82,4,5.24,6.29,1.74,8.64-4.37,13.35c-1.57,1.21-3.08,2.42-4.46,3.55,19.68-3.4,30.46-17.58,30.46-40A51.27,51.27,0,0,0,142.61,77.68Zm-36,13.63a1.63,1.63,0,0,1-1.3-.26,1.63,1.63,0,0,1-1.3.26c-.88-.18-1.26-1-1.59-1.75-1.33-3,.19-7-.83-10.19-2.15-6.81-8.41-10.75-7-18.55.12-.67,1.13-.39,1,.27-1.27,6.82,3.8,10.84,6.33,16.43a14.8,14.8,0,0,1,1.29,4.7c.11,1-.18,2.17,0,3.17a2.84,2.84,0,0,0,.38,1.41,1.2,1.2,0,0,1,1.72-.33,1.2,1.2,0,0,1,1.69.29c.41-.44.41-.53.37-2.14a22.61,22.61,0,0,1,0-2.47,15,15,0,0,1,1.29-4.63c2.51-5.56,7.59-9.65,6.33-16.43-.12-.66.89-.94,1-.27,1.45,7.76-4.73,11.8-7,18.55C108.31,81.44,109.94,90.63,106.57,91.31Z"/><path class="cls-4" d="M117.27,126.83c0,5.09-5,9.23-11.38,9.49h-1.24c-6.34-.26-11.38-4.4-11.38-9.49,0-3.38,2.23-5.31,5.58-6.25h0l.92,2.76a2.18,2.18,0,0,0,2.08,1.49h6.89a2.09,2.09,0,0,0,2-1.45l.93-2.8C115,121.52,117.27,123.45,117.27,126.83Z"/><path class="cls-8" d="M111.68,120.58l-.93,2.8a2.09,2.09,0,0,1-2,1.45h-6.89a2.18,2.18,0,0,1-2.08-1.49l-.92-2.76a27.77,27.77,0,0,1,12.82,0Z"/><path d="M128.65,72.77a8,8,0,0,1-2.8.89,2.69,2.69,0,0,1-2.54-1.11,3.29,3.29,0,0,1,.18-2.65,57.66,57.66,0,0,0,1.72-10.07c-1.25.79-2,4.06-2.73,5.4-2.14,4.19-4.29,8.39-6.82,12.4a15,15,0,0,0-2.12,4.18,4.37,4.37,0,0,0,1,4.32,4.27,4.27,0,0,0,4.62.59,7.2,7.2,0,0,0,2.53-2.67c2.52-3.85,5.06-7.78,8.71-10.82,2-1.67,4.32-3.07,5.83-5.11A28.15,28.15,0,0,1,128.65,72.77ZM117.33,84.86a2,2,0,1,1,2.18-2A2.08,2.08,0,0,1,117.33,84.86Z"/><path d="M114.51,91.07a7.28,7.28,0,0,1-1.91-2.89c-2.44.72-.89,7.72-.33,9,2.29,5.46,3.4,3.38,9.43,2.36,7-1.19,9.39.33,11.56-6.42,1.6-5,1.58-10.1,4.2-14.84C131.3,78.64,122,96,114.51,91.07Zm5.65,6.9a20.64,20.64,0,0,1-5.79-.85s2.59-3.43,5.79-3.43a34,34,0,0,1,6.75.85S123.36,98,120.16,98Zm8.51-5.26A2.77,2.77,0,1,1,131.73,90,2.91,2.91,0,0,1,128.67,92.71Z"/><path class="cls-3" d="M126.91,94.54S123.36,98,120.16,98a20.64,20.64,0,0,1-5.79-.85s2.59-3.43,5.79-3.43A34,34,0,0,1,126.91,94.54Z"/><path class="cls-9" d="M128.24,69.93a2.37,2.37,0,1,1,2.62-2.35,2.49,2.49,0,0,1-2.62,2.35"/><path class="cls-9" d="M119.51,82.89a2.19,2.19,0,1,1-2.18-2A2.08,2.08,0,0,1,119.51,82.89Z"/><path class="cls-9" d="M131.73,90a3.07,3.07,0,1,1-3.06-2.75A2.92,2.92,0,0,1,131.73,90Z"/><ellipse class="cls-9" cx="111.22" cy="108.81" rx="2.18" ry="1.96"/><path class="cls-9" d="M106.42,108.44a.91.91,0,0,0,0,.17,2.28,2.28,0,0,0,0,.26v0c0,.1,0,.19,0,.27l0,.1a.62.62,0,0,0,0-.27A1.1,1.1,0,0,0,106.42,108.44Z"/><path class="cls-3" d="M115.12,108a3,3,0,0,0-.08-.43,1.4,1.4,0,0,0-.09-.29,1.53,1.53,0,0,0-.11-.27,1.36,1.36,0,0,0-.1-.21s0,0,0,0a1.71,1.71,0,0,0-.13-.23,3.64,3.64,0,0,0-.64-.79,2.09,2.09,0,0,0-.28-.24.79.79,0,0,0-.18-.14,3,3,0,0,0-.42-.27L113,105l-.2-.09a1.69,1.69,0,0,0-.28-.12,4.65,4.65,0,0,0-1.72-.32,4.17,4.17,0,0,0-4.37,3.93v0a1.1,1.1,0,0,1,.16.56.62.62,0,0,1,0,.27s0,0,0,0a1.93,1.93,0,0,0,.11.34.9.9,0,0,0,.08.21,1.2,1.2,0,0,0,.11.23,3.94,3.94,0,0,0,1.21,1.39,1.14,1.14,0,0,0,.23.15,2,2,0,0,0,.37.22l.31.14a3.13,3.13,0,0,0,.54.19c.12,0,.24.06.36.09a4.83,4.83,0,0,0,.94.09,4.15,4.15,0,0,0,4.36-3.92A3.29,3.29,0,0,0,115.12,108Zm-3.9,2.8a2,2,0,1,1,2.18-2A2.08,2.08,0,0,1,111.22,110.77Z"/><path class="cls-10" d="M109,79.37c-.68,2.07,1,11.26-2.42,11.94a1.63,1.63,0,0,1-1.3-.26,1.63,1.63,0,0,1-1.3.26c-.88-.18-1.26-1-1.59-1.75-1.33-3,.19-7-.83-10.19-2.15-6.81-8.41-10.75-7-18.55.12-.67,1.13-.39,1,.27-1.27,6.82,3.8,10.84,6.33,16.43a14.8,14.8,0,0,1,1.29,4.7c.11,1-.18,2.17,0,3.17a2.84,2.84,0,0,0,.38,1.41,1.2,1.2,0,0,1,1.72-.33,1.2,1.2,0,0,1,1.69.29c.41-.44.41-.53.37-2.14a22.61,22.61,0,0,1,0-2.47,15,15,0,0,1,1.29-4.63c2.51-5.56,7.59-9.65,6.33-16.43-.12-.66.89-.94,1-.27C117.4,68.58,111.22,72.62,109,79.37Z"/><path class="cls-3" d="M100,85.54a28.13,28.13,0,0,0-2.18-5.25L91,66.55c-1.15-2.31-2.29-4.63-3.44-6.94,0-.06-.28-.55-.6-1.21A31.84,31.84,0,0,0,67.88,77.84a22.77,22.77,0,0,0,2.72,3.08,16.38,16.38,0,0,1,2.29,1.8c1.65,1.81,1.43,4.4,1.39,6.74A14.65,14.65,0,0,0,75.38,96a8.36,8.36,0,0,0,5.05,4.55c2.52.76,5.31.15,7.92.6,1.87.32,3.57,1.17,5.4,1.61s4,.39,5.35-.85,1.29-2.77,1.35-4.29c.09-2.23.17-4.45.13-6.68A22.13,22.13,0,0,0,100,85.54Zm-17.67-20a2.37,2.37,0,1,1-2.62,2.36A2.5,2.5,0,0,1,82.3,65.52Zm-.41,7.55a8,8,0,0,0,2.8.89,2.69,2.69,0,0,0,2.54-1.11,3.29,3.29,0,0,0-.18-2.65,57.66,57.66,0,0,1-1.72-10.07c1.25.79,2,4.06,2.73,5.4,2.14,4.19,4.29,8.39,6.82,12.4A15,15,0,0,1,97,82.11a4.37,4.37,0,0,1-1,4.32,4.27,4.27,0,0,1-4.62.59,7.2,7.2,0,0,1-2.53-2.67c-2.52-3.85-5.06-7.78-8.71-10.82-2-1.67-4.32-3.07-5.83-5.11A28.15,28.15,0,0,0,81.89,73.07ZM98.27,97.52c-2.29,5.46-3.4,3.38-9.43,2.36-7-1.19-9.39.33-11.56-6.42-1.6-5-1.58-10.1-4.2-14.84,6.16.32,15.46,17.7,23,12.75a7.28,7.28,0,0,0,1.91-2.89C100.38,89.2,98.83,96.2,98.27,97.52Z"/><path d="M97,82.11a15,15,0,0,0-2.12-4.18c-2.53-4-4.68-8.21-6.82-12.4-.68-1.34-1.48-4.61-2.73-5.4A57.66,57.66,0,0,0,87.05,70.2a3.29,3.29,0,0,1,.18,2.65A2.69,2.69,0,0,1,84.69,74a8,8,0,0,1-2.8-.89,28.15,28.15,0,0,1-7.62-4.65c1.51,2,3.84,3.44,5.83,5.11,3.65,3,6.19,7,8.71,10.82A7.2,7.2,0,0,0,91.34,87,4.27,4.27,0,0,0,96,86.43,4.37,4.37,0,0,0,97,82.11Zm-3.79,3a2,2,0,1,1,2.18-2A2.08,2.08,0,0,1,93.21,85.16Z"/><path d="M97.94,88.48A7.28,7.28,0,0,1,96,91.37c-7.49,4.95-16.79-12.43-23-12.75,2.62,4.74,2.6,9.87,4.2,14.84,2.17,6.75,4.59,5.23,11.56,6.42,6,1,7.14,3.1,9.43-2.36C98.83,96.2,100.38,89.2,97.94,88.48ZM81.87,93a2.76,2.76,0,1,1,3-2.75A2.92,2.92,0,0,1,81.87,93Zm9.07,5c-3.2,0-6.75-3.43-6.75-3.43a34,34,0,0,1,6.75-.85c3.2,0,5.79,3.43,5.79,3.43A20.64,20.64,0,0,1,90.94,98Z"/><path class="cls-3" d="M96.73,97.12a20.64,20.64,0,0,1-5.79.85c-3.2,0-6.75-3.43-6.75-3.43a34,34,0,0,1,6.75-.85C94.14,93.69,96.73,97.12,96.73,97.12Z"/><path class="cls-9" d="M84.92,67.88a2.63,2.63,0,1,1-2.62-2.36A2.49,2.49,0,0,1,84.92,67.88Z"/><path class="cls-9" d="M95.39,83.19a2.19,2.19,0,1,1-2.18-2A2.08,2.08,0,0,1,95.39,83.19Z"/><path class="cls-9" d="M84.92,90.26a3.07,3.07,0,1,1-3-2.75A2.91,2.91,0,0,1,84.92,90.26Z"/><path class="cls-9" d="M101.5,109.11a2.19,2.19,0,1,1-2.18-2A2.08,2.08,0,0,1,101.5,109.11Z"/><path class="cls-9" d="M104.11,108.47a1,1,0,0,0-.15.53,1,1,0,0,0,.09.41s0-.06,0-.09l0-.25c0-.11,0-.23,0-.35A2,2,0,0,0,104.11,108.47Z"/><path class="cls-3" d="M104.11,108.46a3.59,3.59,0,0,0-.29-1.18l-.12-.23a1.82,1.82,0,0,0-.15-.27l-.12-.18-.16-.2a3.33,3.33,0,0,0-.25-.28,3.45,3.45,0,0,0-.28-.26,3.39,3.39,0,0,0-.53-.38,2.71,2.71,0,0,0-.37-.21,4.16,4.16,0,0,0-.79-.3l-.42-.1a5.05,5.05,0,0,0-.88-.08,4.69,4.69,0,0,0-1.77.34c-.18.07-.34.15-.5.23l-.08,0a1.38,1.38,0,0,0-.25.17,3.14,3.14,0,0,0-.57.45.6.6,0,0,0-.08.08.46.46,0,0,0-.07.07.34.34,0,0,0-.06.06,3.11,3.11,0,0,0-.23.28,3.18,3.18,0,0,0-.43.73,1.88,1.88,0,0,0-.12.3,2.38,2.38,0,0,0-.11.38,3,3,0,0,0-.06.32,3.59,3.59,0,0,0,0,.47,4.15,4.15,0,0,0,4.36,3.92h.32l.24,0s0,0,0,0l.27,0a4.31,4.31,0,0,0,3.07-2.17,1.69,1.69,0,0,0,.13-.27.92.92,0,0,0,.09-.23,1.49,1.49,0,0,0,.09-.3,1,1,0,0,0,0-.17h0A1,1,0,0,1,104,109a1,1,0,0,1,.15-.53Zm-4.79,2.61a2,2,0,1,1,2.18-2A2.08,2.08,0,0,1,99.32,111.07Z"/><path class="cls-2" d="M104.11,207.06a1,1,0,0,0-.15.53,1,1,0,0,0,.09.41s0-.06,0-.09l0-.25c0-.11,0-.23,0-.35A2,2,0,0,0,104.11,207.06Zm2.31,0a.91.91,0,0,0,0,.17,2.28,2.28,0,0,0,0,.26v0c0,.1,0,.19,0,.27l0,.1a.62.62,0,0,0,0-.27A1.1,1.1,0,0,0,106.42,207Z"/><path class="cls-2" d="M123.38,156.91c-.17.43-.3.8-.4,1-1.15,2.31-2.29,4.63-3.44,6.94l-6.79,13.74a28.13,28.13,0,0,0-2.18,5.25,22.13,22.13,0,0,0-.61,5.37c0,2.23,0,4.45.13,6.68.06,1.52.18,3.19,1.35,4.29,1.32,1.24,3.51,1.3,5.35.85s3.53-1.29,5.4-1.61c2.61-.45,5.4.16,7.92-.6a8.36,8.36,0,0,0,5-4.55,14.65,14.65,0,0,0,1.1-6.51c0-2.34-.26-4.93,1.39-6.74a16.38,16.38,0,0,1,2.29-1.8,10.94,10.94,0,0,0,2.67-2.94A31.9,31.9,0,0,0,123.38,156.91Zm4.86,6.9a2.37,2.37,0,1,1-2.62,2.36A2.51,2.51,0,0,1,128.24,163.81Zm-14.7,16.59a15,15,0,0,1,2.12-4.18c2.53-4,4.68-8.21,6.82-12.4.68-1.34,1.48-4.61,2.73-5.4a57.66,57.66,0,0,1-1.72,10.07,3.29,3.29,0,0,0-.18,2.65,2.69,2.69,0,0,0,2.54,1.11,8,8,0,0,0,2.8-.89,28.15,28.15,0,0,0,7.62-4.65c-1.51,2-3.84,3.44-5.83,5.11-3.65,3-6.19,7-8.71,10.82a7.2,7.2,0,0,1-2.53,2.67,4.27,4.27,0,0,1-4.62-.59A4.37,4.37,0,0,1,113.54,180.4Zm19.72,11.35c-2.17,6.75-4.59,5.23-11.56,6.42-6,1-7.14,3.1-9.43-2.36-.56-1.32-2.11-8.32.33-9a7.28,7.28,0,0,0,1.91,2.89c7.49,5,16.79-12.43,23-12.75C134.84,181.65,134.86,186.78,133.26,191.75Z"/><path class="cls-2" d="M119.51,230.57c-1.57,1.21-3.08,2.42-4.46,3.55a55.21,55.21,0,0,1-9.16.79c6.34-.26,11.38-4.4,11.38-9.49,0-3.38-2.23-5.31-5.59-6.25a27.77,27.77,0,0,0-12.82,0h0c-3.35.94-5.58,2.87-5.58,6.25,0,5.09,5,9.23,11.38,9.49A55.6,55.6,0,0,1,95,234c-1.39-1.13-3-2.41-4-3.16-6.11-4.71-4.76-11.15-4.37-13.35s2.62-3.93,5.24-6.29,1.75-3.92,3.49-6.28A3.09,3.09,0,0,1,98,203.72c-.18.07-.34.15-.5.23l-.08.05a1.38,1.38,0,0,0-.25.17,3.14,3.14,0,0,0-.57.45.6.6,0,0,0-.08.08l-.07.07a.34.34,0,0,0-.06.06,3.11,3.11,0,0,0-.23.28,3.18,3.18,0,0,0-.43.73,1.88,1.88,0,0,0-.12.3,2.38,2.38,0,0,0-.11.38,3,3,0,0,0-.06.32,3.59,3.59,0,0,0,0,.47,4.15,4.15,0,0,0,4.36,3.92h.32l.24,0h0l.27,0A4.31,4.31,0,0,0,103.7,209a1.69,1.69,0,0,0,.13-.27.92.92,0,0,0,.09-.23,1.49,1.49,0,0,0,.09-.3,1,1,0,0,0,0-.17,1.3,1.3,0,0,0,1.22.75,1.26,1.26,0,0,0,1.26-.88,1.93,1.93,0,0,0,.11.34.9.9,0,0,0,.08.21,1.2,1.2,0,0,0,.11.23,3.94,3.94,0,0,0,1.21,1.39.83.83,0,0,0,.23.15,2,2,0,0,0,.37.22l.31.14a3.13,3.13,0,0,0,.54.19l.36.09a4.83,4.83,0,0,0,.94.09,4.15,4.15,0,0,0,4.36-3.92,3.29,3.29,0,0,0,0-.45,3,3,0,0,0-.08-.43,2.46,2.46,0,0,0-.09-.29,1.53,1.53,0,0,0-.11-.27,1.36,1.36,0,0,0-.1-.21s0,0,0,0a1.71,1.71,0,0,0-.13-.23,3.64,3.64,0,0,0-.64-.79,2.09,2.09,0,0,0-.28-.24.79.79,0,0,0-.18-.14,3,3,0,0,0-.42-.27l-.09-.06-.2-.09a1.69,1.69,0,0,0-.28-.12,3,3,0,0,1,2.64,1.25c1.74,2.36.87,3.93,3.49,6.28s4.82,4,5.24,6.29S125.62,225.86,119.51,230.57Z"/><path class="cls-2" d="M142.61,176.27a10.94,10.94,0,0,1-2.67,2.94,16.38,16.38,0,0,0-2.29,1.8c-1.65,1.81-1.43,4.4-1.39,6.74a14.65,14.65,0,0,1-1.1,6.51,8.36,8.36,0,0,1-5,4.55c-2.52.76-5.31.15-7.92.6-1.87.32-3.57,1.17-5.4,1.61s-4,.39-5.35-.85c-1.17-1.1-1.29-2.77-1.35-4.29-.09-2.23-.17-4.45-.13-6.68a22.13,22.13,0,0,1,.61-5.37,28.13,28.13,0,0,1,2.18-5.25l6.79-13.74c1.15-2.31,2.29-4.63,3.44-6.94.1-.19.23-.56.4-1a51,51,0,0,0-18.11-3A50.57,50.57,0,0,0,87,157c.32.66.57,1.15.6,1.21,1.15,2.31,2.29,4.63,3.44,6.94l6.79,13.74a28.13,28.13,0,0,1,2.18,5.25,22.13,22.13,0,0,1,.61,5.37c0,2.23,0,4.45-.13,6.68-.06,1.52-.18,3.19-1.35,4.29s-3.51,1.3-5.35.85-3.53-1.29-5.4-1.61c-2.61-.45-5.4.16-7.92-.6a8.36,8.36,0,0,1-5.05-4.55,14.65,14.65,0,0,1-1.1-6.51c0-2.34.26-4.93-1.39-6.74a16.38,16.38,0,0,0-2.29-1.8,22.77,22.77,0,0,1-2.72-3.08A51.19,51.19,0,0,0,65,194.16c0,22.18,10.6,36.31,30,39.87-1.39-1.13-3-2.41-4-3.16-6.11-4.71-4.76-11.15-4.37-13.35s2.62-3.93,5.24-6.29,1.75-3.92,3.49-6.28A3.09,3.09,0,0,1,98,203.72a4.69,4.69,0,0,1,1.77-.34,5.05,5.05,0,0,1,.88.08,3.2,3.2,0,0,1,.42.1,4.16,4.16,0,0,1,.79.3,2.71,2.71,0,0,1,.37.21,3.39,3.39,0,0,1,.53.38,3.45,3.45,0,0,1,.28.26,3.33,3.33,0,0,1,.25.28l.16.2.12.18a1.82,1.82,0,0,1,.15.27l.12.23a3.59,3.59,0,0,1,.29,1.18h0a2,2,0,0,1,0,.25c0,.12,0,.24,0,.35l0,.25s0,.06,0,.09h0a1.3,1.3,0,0,0,1.22.75,1.26,1.26,0,0,0,1.26-.88s0,0,0,0l0-.1c0-.08,0-.17,0-.27v0a2.28,2.28,0,0,1,0-.26.91.91,0,0,1,0-.17v0a4.17,4.17,0,0,1,4.37-3.93,4.65,4.65,0,0,1,1.72.32,3,3,0,0,1,2.64,1.25c1.74,2.36.87,3.93,3.49,6.28s4.82,4,5.24,6.29,1.74,8.64-4.37,13.35c-1.57,1.21-3.08,2.42-4.46,3.55,19.68-3.4,30.46-17.58,30.46-40A51.27,51.27,0,0,0,142.61,176.27Zm-36,13.63a1.63,1.63,0,0,1-1.3-.26,1.63,1.63,0,0,1-1.3.26c-.88-.18-1.26-1-1.59-1.75-1.33-3,.19-7-.83-10.19-2.15-6.81-8.41-10.75-7-18.55.12-.67,1.13-.39,1,.27-1.27,6.82,3.8,10.84,6.33,16.43a14.8,14.8,0,0,1,1.29,4.7c.11,1-.18,2.17,0,3.17a2.84,2.84,0,0,0,.38,1.41,1.2,1.2,0,0,1,1.72-.33,1.2,1.2,0,0,1,1.69.29c.41-.44.41-.53.37-2.14a22.61,22.61,0,0,1,0-2.47,15,15,0,0,1,1.29-4.63c2.51-5.56,7.59-9.65,6.33-16.43-.12-.66.89-.94,1-.27,1.45,7.76-4.73,11.8-7,18.55C108.31,180,109.94,189.22,106.57,189.9Z"/><path class="cls-2" d="M117.27,225.42c0,5.09-5,9.23-11.38,9.49h-1.24c-6.34-.26-11.38-4.4-11.38-9.49,0-3.38,2.23-5.31,5.58-6.25h0l.92,2.76a2.18,2.18,0,0,0,2.08,1.49h6.89a2.09,2.09,0,0,0,2-1.45l.93-2.8C115,220.11,117.27,222,117.27,225.42Z"/><path class="cls-2" d="M111.68,219.17l-.93,2.8a2.09,2.09,0,0,1-2,1.45h-6.89a2.18,2.18,0,0,1-2.08-1.49l-.92-2.76a27.77,27.77,0,0,1,12.82,0Z"/><path class="cls-2" d="M128.65,171.36a8,8,0,0,1-2.8.89,2.69,2.69,0,0,1-2.54-1.11,3.29,3.29,0,0,1,.18-2.65,57.66,57.66,0,0,0,1.72-10.07c-1.25.79-2,4.06-2.73,5.4-2.14,4.19-4.29,8.39-6.82,12.4a15,15,0,0,0-2.12,4.18,4.37,4.37,0,0,0,1,4.32,4.27,4.27,0,0,0,4.62.59,7.2,7.2,0,0,0,2.53-2.67c2.52-3.85,5.06-7.78,8.71-10.82,2-1.67,4.32-3.07,5.83-5.11A28.15,28.15,0,0,1,128.65,171.36Zm-11.32,12.09a2,2,0,1,1,2.18-2A2.08,2.08,0,0,1,117.33,183.45Z"/><path class="cls-2" d="M114.51,189.66a7.28,7.28,0,0,1-1.91-2.89c-2.44.72-.89,7.72-.33,9,2.29,5.46,3.4,3.38,9.43,2.36,7-1.19,9.39.33,11.56-6.42,1.6-5,1.58-10.1,4.2-14.84C131.3,177.23,122,194.61,114.51,189.66Zm5.65,6.9a20.64,20.64,0,0,1-5.79-.85s2.59-3.43,5.79-3.43a34,34,0,0,1,6.75.85S123.36,196.56,120.16,196.56Zm8.51-5.26a2.77,2.77,0,1,1,3.06-2.75A2.91,2.91,0,0,1,128.67,191.3Z"/><path class="cls-2" d="M278.05,95.79s-3.55,3.43-6.75,3.43a20.64,20.64,0,0,1-5.79-.85s2.59-3.43,5.79-3.43A34,34,0,0,1,278.05,95.79Z"/><path class="cls-2" d="M130.86,166.17a2.63,2.63,0,1,1-2.62-2.36A2.5,2.5,0,0,1,130.86,166.17Z"/><path class="cls-2" d="M119.51,181.48a2.19,2.19,0,1,1-2.18-2A2.08,2.08,0,0,1,119.51,181.48Z"/><path class="cls-2" d="M131.73,188.55a3.07,3.07,0,1,1-3.06-2.75A2.92,2.92,0,0,1,131.73,188.55Z"/><ellipse class="cls-2" cx="111.22" cy="207.4" rx="2.18" ry="1.96"/><path class="cls-2" d="M106.42,207a.91.91,0,0,0,0,.17,2.28,2.28,0,0,0,0,.26v0c0,.1,0,.19,0,.27l0,.1a.62.62,0,0,0,0-.27A1.1,1.1,0,0,0,106.42,207Z"/><path class="cls-2" d="M115.12,206.56a3,3,0,0,0-.08-.43,1.4,1.4,0,0,0-.09-.29,1.53,1.53,0,0,0-.11-.27,1.36,1.36,0,0,0-.1-.21s0,0,0,0a1.71,1.71,0,0,0-.13-.23,3.64,3.64,0,0,0-.64-.79,2.09,2.09,0,0,0-.28-.24.79.79,0,0,0-.18-.14,3,3,0,0,0-.42-.27l-.09-.06-.2-.09a1.69,1.69,0,0,0-.28-.12,4.65,4.65,0,0,0-1.72-.32,4.17,4.17,0,0,0-4.37,3.93v0a1.1,1.1,0,0,1,.16.56.62.62,0,0,1,0,.27s0,0,0,0a1.93,1.93,0,0,0,.11.34.9.9,0,0,0,.08.21,1.2,1.2,0,0,0,.11.23,3.94,3.94,0,0,0,1.21,1.39,1.14,1.14,0,0,0,.23.15,2,2,0,0,0,.37.22l.31.14a3.13,3.13,0,0,0,.54.19l.36.09a4.83,4.83,0,0,0,.94.09,4.15,4.15,0,0,0,4.36-3.92A3.29,3.29,0,0,0,115.12,206.56Zm-3.9,2.8a2,2,0,1,1,2.18-2A2.08,2.08,0,0,1,111.22,209.36Z"/><path class="cls-10" d="M109,178c-.68,2.07,1,11.26-2.42,11.94a1.63,1.63,0,0,1-1.3-.26,1.63,1.63,0,0,1-1.3.26c-.88-.18-1.26-1-1.59-1.75-1.33-3,.19-7-.83-10.19-2.15-6.81-8.41-10.75-7-18.55.12-.67,1.13-.39,1,.27-1.27,6.82,3.8,10.84,6.33,16.43a14.8,14.8,0,0,1,1.29,4.7c.11,1-.18,2.17,0,3.17a2.84,2.84,0,0,0,.38,1.41,1.2,1.2,0,0,1,1.72-.33,1.2,1.2,0,0,1,1.69.29c.41-.44.41-.53.37-2.14a22.61,22.61,0,0,1,0-2.47,15,15,0,0,1,1.29-4.63c2.51-5.56,7.59-9.65,6.33-16.43-.12-.66.89-.94,1-.27C117.4,167.17,111.22,171.21,109,178Z"/><path class="cls-2" d="M100,184.13a28.13,28.13,0,0,0-2.18-5.25L91,165.14c-1.15-2.31-2.29-4.63-3.44-6.94,0-.06-.28-.55-.6-1.21a31.84,31.84,0,0,0-19.08,19.44,22.77,22.77,0,0,0,2.72,3.08,16.38,16.38,0,0,1,2.29,1.8c1.65,1.81,1.43,4.4,1.39,6.74a14.65,14.65,0,0,0,1.1,6.51,8.36,8.36,0,0,0,5.05,4.55c2.52.76,5.31.15,7.92.6,1.87.32,3.57,1.17,5.4,1.61s4,.39,5.35-.85,1.29-2.77,1.35-4.29c.09-2.23.17-4.45.13-6.68A22.13,22.13,0,0,0,100,184.13Zm-17.67-20a2.37,2.37,0,1,1-2.62,2.36A2.5,2.5,0,0,1,82.3,164.11Zm-.41,7.55a8,8,0,0,0,2.8.89,2.69,2.69,0,0,0,2.54-1.11,3.29,3.29,0,0,0-.18-2.65,57.66,57.66,0,0,1-1.72-10.07c1.25.79,2,4.06,2.73,5.4,2.14,4.19,4.29,8.39,6.82,12.4A15,15,0,0,1,97,180.7,4.37,4.37,0,0,1,96,185a4.27,4.27,0,0,1-4.62.59,7.2,7.2,0,0,1-2.53-2.67c-2.52-3.85-5.06-7.78-8.71-10.82-2-1.67-4.32-3.07-5.83-5.11A28.15,28.15,0,0,0,81.89,171.66Zm16.38,24.45c-2.29,5.46-3.4,3.38-9.43,2.36-7-1.19-9.39.33-11.56-6.42-1.6-5-1.58-10.1-4.2-14.84,6.16.32,15.46,17.7,23,12.75a7.28,7.28,0,0,0,1.91-2.89C100.38,187.79,98.83,194.79,98.27,196.11Z"/><path class="cls-2" d="M97,180.7a15,15,0,0,0-2.12-4.18c-2.53-4-4.68-8.21-6.82-12.4-.68-1.34-1.48-4.61-2.73-5.4a57.66,57.66,0,0,0,1.72,10.07,3.29,3.29,0,0,1,.18,2.65,2.69,2.69,0,0,1-2.54,1.11,8,8,0,0,1-2.8-.89A28.15,28.15,0,0,1,74.27,167c1.51,2,3.84,3.44,5.83,5.11,3.65,3,6.19,7,8.71,10.82a7.2,7.2,0,0,0,2.53,2.67A4.27,4.27,0,0,0,96,185,4.37,4.37,0,0,0,97,180.7Zm-3.79,3.05a2,2,0,1,1,2.18-2A2.08,2.08,0,0,1,93.21,183.75Z"/><path class="cls-2" d="M97.94,187.07A7.28,7.28,0,0,1,96,190c-7.49,4.95-16.79-12.43-23-12.75,2.62,4.74,2.6,9.87,4.2,14.84,2.17,6.75,4.59,5.23,11.56,6.42,6,1,7.14,3.1,9.43-2.36C98.83,194.79,100.38,187.79,97.94,187.07ZM81.87,191.6a2.76,2.76,0,1,1,3-2.75A2.92,2.92,0,0,1,81.87,191.6Zm9.07,5c-3.2,0-6.75-3.43-6.75-3.43a34,34,0,0,1,6.75-.85c3.2,0,5.79,3.43,5.79,3.43A20.64,20.64,0,0,1,90.94,196.56Z"/><path class="cls-2" d="M84.92,166.47a2.63,2.63,0,1,1-2.62-2.36A2.49,2.49,0,0,1,84.92,166.47Z"/><path class="cls-2" d="M95.39,181.78a2.19,2.19,0,1,1-2.18-2A2.08,2.08,0,0,1,95.39,181.78Z"/><path class="cls-2" d="M84.92,188.85a3.07,3.07,0,1,1-3-2.75A2.91,2.91,0,0,1,84.92,188.85Z"/><path class="cls-2" d="M101.5,207.7a2.19,2.19,0,1,1-2.18-2A2.08,2.08,0,0,1,101.5,207.7Z"/><path class="cls-2" d="M104.11,207.06a1,1,0,0,0-.15.53,1,1,0,0,0,.09.41s0-.06,0-.09l0-.25c0-.11,0-.23,0-.35A2,2,0,0,0,104.11,207.06Z"/><path class="cls-2" d="M104.11,207.05a3.59,3.59,0,0,0-.29-1.18l-.12-.23a1.82,1.82,0,0,0-.15-.27l-.12-.18-.16-.2a3.33,3.33,0,0,0-.25-.28,3.45,3.45,0,0,0-.28-.26,3.39,3.39,0,0,0-.53-.38,2.71,2.71,0,0,0-.37-.21,4.16,4.16,0,0,0-.79-.3l-.42-.1a5.05,5.05,0,0,0-.88-.08,4.69,4.69,0,0,0-1.77.34c-.18.07-.34.15-.5.23l-.08.05a1.38,1.38,0,0,0-.25.17,3.14,3.14,0,0,0-.57.45.6.6,0,0,0-.08.08l-.07.07a.34.34,0,0,0-.06.06,3.11,3.11,0,0,0-.23.28,3.18,3.18,0,0,0-.43.73,1.88,1.88,0,0,0-.12.3,2.38,2.38,0,0,0-.11.38,3,3,0,0,0-.06.32,3.59,3.59,0,0,0,0,.47,4.15,4.15,0,0,0,4.36,3.92h.32l.24,0h0l.27,0A4.31,4.31,0,0,0,103.7,209a1.69,1.69,0,0,0,.13-.27.92.92,0,0,0,.09-.23,1.49,1.49,0,0,0,.09-.3,1,1,0,0,0,0-.17h0a1,1,0,0,1-.09-.41,1,1,0,0,1,.15-.53Zm-4.79,2.61a2,2,0,1,1,2.18-2A2.08,2.08,0,0,1,99.32,209.66Z"/><path d="M285.68,72c-.22.51-3.74,8.58-6.68,11.05s-8,3.69-10.51,4.32-6.05,5.34-6.05,5.34-1.28.51,0-5.47,10-6.74,15.13-7.75C282.51,78.49,285.5,72.37,285.68,72Z"/><path d="M284.26,85.84c-2.87,1.39-15.29,9-18,9.15a7.67,7.67,0,0,1-4.39-1s.89,6.61,1.36,7.88,3,1,3.83.77,7.33-3.06,11.47-3.82a9.41,9.41,0,0,0,7.16-7.38c.48-2.8,5.58-7.88,5.58-7.88A37.07,37.07,0,0,0,284.26,85.84Zm-13,13.38a20.64,20.64,0,0,1-5.79-.85s2.59-3.43,5.79-3.43a34,34,0,0,1,6.75.85S274.5,99.22,271.3,99.22Z"/><path class="cls-3" d="M278.05,95.79s-3.55,3.43-6.75,3.43a20.64,20.64,0,0,1-5.79-.85s2.59-3.43,5.79-3.43A34,34,0,0,1,278.05,95.79Z"/><path class="cls-1" d="M260.21,97.08c0,1-.46,1.72-1,1.72s-1-.77-1-1.72.46-1.72,1-1.72S260.21,96.13,260.21,97.08Z"/><path d="M248.1,92.36s-3.5-4.71-6-5.35-7.49-1.78-10.51-4.32-6.46-10.54-6.68-11c.18.38,3.17,6.5,8.11,7.49,5.1,1,13.86,1.78,15.13,7.76S248.1,92.36,248.1,92.36Z"/><path d="M244.28,94.65c-2.71-.13-15.13-7.76-18-9.16a37.07,37.07,0,0,0-7-2.29s5.1,5.09,5.58,7.88A9.41,9.41,0,0,0,232,98.46c4.14.76,10.68,3.56,11.47,3.82s3.35.51,3.83-.77,1.36-7.88,1.36-7.88A7.72,7.72,0,0,1,244.28,94.65Zm-4.4,4.57c-3.2,0-6.75-3.43-6.75-3.43a34,34,0,0,1,6.75-.85c3.2,0,5.79,3.43,5.79,3.43A20.64,20.64,0,0,1,239.88,99.22Z"/><path class="cls-3" d="M245.67,98.37a20.64,20.64,0,0,1-5.79.85c-3.2,0-6.75-3.43-6.75-3.43a34,34,0,0,1,6.75-.85C243.08,94.94,245.67,98.37,245.67,98.37Z"/><path class="cls-1" d="M252.38,96.73c0,1-.46,1.72-1,1.72s-1-.77-1-1.72.46-1.71,1-1.71S252.38,95.78,252.38,96.73Z"/><path class="cls-2" d="M294.2,194.66c0,25.85-14.38,40.76-40.24,40.76s-40.23-14.91-40.23-40.76,14.38-40.24,40.23-40.24S294.2,168.81,294.2,194.66Z"/><path class="cls-2" d="M266,225.92c0,5.09-5,9.23-11.38,9.49h-1.24C247,235.15,242,231,242,225.92c0-3.38,2.23-5.31,5.58-6.25h0l.92,2.76a2.18,2.18,0,0,0,2.08,1.49h6.89a2.09,2.09,0,0,0,2-1.45l.93-2.8C263.73,220.61,266,222.54,266,225.92Z"/><path class="cls-2" d="M260.37,219.67l-.93,2.8a2.09,2.09,0,0,1-2,1.45h-6.89a2.18,2.18,0,0,1-2.08-1.49l-.92-2.76a27.77,27.77,0,0,1,12.82,0Z"/><path class="cls-2" d="M276.74,194.88s-3.55,3.43-6.75,3.43a20.64,20.64,0,0,1-5.79-.85S266.79,194,270,194A34,34,0,0,1,276.74,194.88Z"/><path class="cls-2" d="M244.36,197.46a20.64,20.64,0,0,1-5.79.85c-3.2,0-6.75-3.43-6.75-3.43a34,34,0,0,1,6.75-.85C241.77,194,244.36,197.46,244.36,197.46Z"/><path class="cls-2" d="M284.39,171.06s-3,6.49-8.12,7.51-13.86,1.78-15.14,7.76,0,5.47,0,5.47,3.51-4.71,6.06-5.35,7.48-1.78,10.51-4.32S284.39,171.06,284.39,171.06Z"/><path class="cls-2" d="M260.57,193.07a7.72,7.72,0,0,0,4.39,1c2.7-.13,15.13-7.76,18-9.16a36.84,36.84,0,0,1,7-2.29s-5.09,5.09-5.57,7.88a9.43,9.43,0,0,1-7.17,7.38c-4.14.76-10.67,3.56-11.47,3.82s-3.34.51-3.82-.77S260.57,193.07,260.57,193.07Z"/><path class="cls-2" d="M273.06,231.94h0a48.42,48.42,0,0,0,1.13-9.48c0-1.15-5.58-13.61-8.6-15.27s-5-.63-5-.63,1.84,2.29,1.21,3.84-3.51.86-3.51.86,1.43-1.65,0-2.28c-.76-.34-1.94.51-2.86,1.38"/><path class="cls-2" d="M254,158.6s3.19,14.89,2.87,22.83-2.07,14.44-2.07,18,.65,10.92.65,10.92"/><ellipse class="cls-2" cx="257.88" cy="196.17" rx="1.02" ry="1.72"/><path class="cls-2" d="M223.54,170.71s3,6.49,8.12,7.51S245.52,180,246.8,186s0,5.47,0,5.47-3.51-4.71-6.06-5.34-7.48-1.79-10.51-4.33S223.54,170.71,223.54,170.71Z"/><path class="cls-2" d="M247.36,192.72a7.72,7.72,0,0,1-4.39,1c-2.7-.13-15.13-7.76-18-9.16a36.84,36.84,0,0,0-7-2.29s5.1,5.09,5.58,7.89a9.44,9.44,0,0,0,7.17,7.37c4.14.77,10.67,3.56,11.47,3.82s3.34.51,3.82-.76S247.36,192.72,247.36,192.72Z"/><path class="cls-2" d="M234.86,231.59h0a48.42,48.42,0,0,1-1.13-9.48c0-1.15,5.58-13.61,8.6-15.27s5-.63,5-.63-1.84,2.29-1.21,3.84,3.51.86,3.51.86-1.43-1.65,0-2.28c.76-.34,1.94.51,2.86,1.38"/><path class="cls-2" d="M254,158.25s-3.18,14.89-2.86,22.84,2.07,14.43,2.07,18-.65,10.92-.65,10.92"/><ellipse class="cls-2" cx="250.05" cy="195.82" rx="1.02" ry="1.72"/><path class="cls-2" d="M252.44,209.92h0A1.6,1.6,0,0,0,254,211a1.57,1.57,0,0,0,1.42-.86"/><line class="cls-2" x1="252.65" y1="208.45" x2="252.65" y2="208.44"/><path d="M399.28,93.17s-4.19-6.61-7.88-7.91S378.69,79.16,379,73.2a23.85,23.85,0,0,1,3.38-10.64S381.26,72.81,385,75.92s10.46,7.14,12.23,9.86S399.28,93.17,399.28,93.17Z"/><path class="cls-3" d="M396.28,97.06a20.64,20.64,0,0,1-5.79.85c-3.2,0-6.75-3.43-6.75-3.43a34,34,0,0,1,6.75-.85C393.69,93.63,396.28,97.06,396.28,97.06Z"/><path d="M400.4,100.18c-.64-2.6-4-7.92-14.47-11a32.29,32.29,0,0,1-16.09-11.28,47,47,0,0,0,3.06,13.81c2.89,7.72,9.81,8.37,18.82,9.27s8.68,4.54,8.68,4.54A12.68,12.68,0,0,0,400.4,100.18Zm-9.91-2.27c-3.2,0-6.75-3.43-6.75-3.43a34,34,0,0,1,6.75-.85c3.2,0,5.79,3.43,5.79,3.43A20.64,20.64,0,0,1,390.49,97.91Z"/><path class="cls-3" d="M428.66,94.48s-3.55,3.43-6.75,3.43a20.64,20.64,0,0,1-5.79-.85s2.59-3.43,5.79-3.43A34,34,0,0,1,428.66,94.48Z"/><path d="M442.18,81.08S433.74,83.9,431,86.33s-8.92,8.37-12.06,6a9.11,9.11,0,0,1-3.62-5c-.24-.39-4.1,3.31-7.48,3s-.6,4.28-.6,4.28a19.79,19.79,0,0,1,3.86-3,12.1,12.1,0,0,1,3.38-1.56s-2.13,5.65-1.41,9.64a20.43,20.43,0,0,0,3.86,8.46,19.06,19.06,0,0,1,1.32,1.72c-.15-.48-2.16-7,.85-9s3.83-1.81,3.83-1.81.15,3.75.15,6.09,1.21,2.62,1.21,2.62-1.94-8.27,3.86-10.31a30.27,30.27,0,0,0,.48,6.42,10.81,10.81,0,0,1,3.86-7.49c.72,5.35,1,8.37,3.38,7.88s4-3.4,3.38-6.81-2-10.74.44-13.3S442.18,81.08,442.18,81.08ZM421.91,97.91a20.64,20.64,0,0,1-5.79-.85s2.59-3.43,5.79-3.43a34,34,0,0,1,6.75.85S425.11,97.91,421.91,97.91Z"/><path class="cls-1" d="M424.6,66.2c-.42,6.45-3.66,14.12-10.17,16.5-2.79,1-6.45,1.14-9.05-.52a7.77,7.77,0,0,1-2.5-2.75,28.56,28.56,0,0,0-5.25-6.6c-3.82-3.77-2-7.93,2.87-9.86,4.52-1.78,16.1-4,18.66,2,2,4.57-3.59,12.29-8.37,12.44-4.16.13-8.53-6-5.37-9.53,2.46-2.76,7.11-.33,4.9,3.1-.36.56-1.27,0-.91-.53q-6.26,4.14.38,4.33c2,1.57,3.51,1.45,4.6-.34a10.38,10.38,0,0,0,2.78-3.64l-2.61-8.06-2.82-.3a30.21,30.21,0,0,0-3.43.2,39.07,39.07,0,0,0-4.57.57c-3.49.75-4.09,1-5.29,4.71-1.51,4.6-.23,3.5,2.27,6,1.28,1.3,1.79,2.84,2.72,4.35,2.23,3.64,6,4.92,10.07,3.67,6.24-1.91,9.32-9,9.93-15,.45-4.38-1.88-6.84-5.93-7.64a53,53,0,0,0-9.88-1.2c-6.07,0-18.76,2.57-18.8,10.54,0,5.85,6.73,10,10.59,13.31a21.44,21.44,0,0,1,6.33,8c.26.62-.75.89-1,.28-3.41-8.1-18.66-12.92-16.87-23.18,1.5-8.58,15.73-10.46,22.51-9.92,3.58.29,9.95.35,12.74,2.82C424.88,61.54,424.74,64.06,424.6,66.2Z"/><path class="cls-8" d="M413,119.42l-2.09,3.12a4,4,0,0,1-3.31,1.67H403a4.67,4.67,0,0,1-4-2.16l-1.52-2.56C400.48,119.15,408.71,119.31,413,119.42Z"/><path class="cls-2" d="M440.87,172.4a99.76,99.76,0,0,1-15.54,13.86c-6.88,4.77-11.08-1.26-5.41-3.76s9.41-10.44,10.61-15.5a11.47,11.47,0,0,0-1.09-7.3A31.14,31.14,0,0,1,440.87,172.4Z"/><path class="cls-2" d="M419,232.91a53.68,53.68,0,0,1-13.9,1.7c-11.63,0-20.95-3-27.67-8.71,5.11,1.59,13,4,13.92,3.85,1.32-.2,2.89-1.75,2.17-5.06s-.72-6.42,3.38-6.91H397l1.52,2.56a4.67,4.67,0,0,0,4,2.16h4.66a4,4,0,0,0,3.31-1.67l2.09-3.12,2.73.08a5.8,5.8,0,0,1,5.43,5.34A19.21,19.21,0,0,1,419,232.91Z"/><path class="cls-2" d="M426.07,228.29c-.46.62-1.09,1.64-1.76,2.78a40.72,40.72,0,0,1-5.33,1.84,19.21,19.21,0,0,0,1.78-9.79,5.8,5.8,0,0,0-5.43-5.34l-2.73-.08c-4.32-.11-12.55-.27-15.61.07h-.11c-4.1.49-4.1,3.6-3.38,6.91s-.85,4.86-2.17,5.06c-.89.13-8.81-2.26-13.92-3.85a29.66,29.66,0,0,1-3.21-3.13c6.25,1.2,12.7,1.93,14.1.75,1.72-1.46.21-5.35-2.09-7.39s-3.49-7.78,0-9.63,7.48,2.14,8.33,5.06,3.37,3.5,6.27,2.91,3.86-5.74,3.86-10.7a40,40,0,0,1,1.37-9.72s-.24,12.74,1.33,16.14,5.55,5.45,8.57,4.77,3.28-2.85,3.28-2.85,5.88,3.53,6.85,6.35S427.64,226.15,426.07,228.29Z"/><path class="cls-2" d="M397.72,206.5c-2.29.78-3.62-3.41-10.49-2.14s-8.33,6.81-4.65,10.89,5.13,8.56,1.63,7.78c-2.55-.56-9.88-3.65-13.67-5.29-3.75-6.35-5.7-14.38-5.7-23.89a56.39,56.39,0,0,1,1.35-12.69c2,5.63,5.89,15.35,9.5,17.17,5.14,2.59,15.92,1.81,17.69,2.59S400,205.72,397.72,206.5Z"/><path class="cls-2" d="M440.87,172.4a99.76,99.76,0,0,1-15.54,13.86c-6.88,4.77-11.08-1.26-5.41-3.76s9.41-10.44,10.61-15.5a11.47,11.47,0,0,0-1.09-7.3c-6.36-4-14.53-6.09-24.36-6.09-21.25,0-34.76,9.72-38.89,27.55,2,5.63,5.89,15.35,9.5,17.17,5.14,2.59,15.92,1.81,17.69,2.59s6.63,4.8,4.34,5.58-3.62-3.41-10.49-2.14-8.33,6.81-4.65,10.89,5.13,8.56,1.63,7.78c-2.55-.56-9.88-3.65-13.67-5.29a31.74,31.74,0,0,0,3.66,5c6.25,1.2,12.7,1.93,14.1.75,1.72-1.46.21-5.35-2.09-7.39s-3.49-7.78,0-9.63,7.48,2.14,8.33,5.06,3.37,3.5,6.27,2.91,3.86-5.74,3.86-10.7a40,40,0,0,1,1.37-9.72s-.24,12.74,1.33,16.14,5.55,5.45,8.57,4.77,3.28-2.85,3.28-2.85,5.88,3.53,6.85,6.35,1.57,7.69,0,9.83c-.46.62-1.09,1.64-1.76,2.78,13.65-5.85,21-18.74,21-37.22C445.32,185.46,443.8,178.28,440.87,172.4ZM382,160.84s-1.13,10.25,2.57,13.36,10.46,7.14,12.23,9.86,2.09,7.39,2.09,7.39-4.19-6.61-7.88-7.91-12.71-6.1-12.39-12.06A23.85,23.85,0,0,1,382,160.84Zm18,42.93s.32-3.63-8.68-4.54-15.93-1.55-18.82-9.27a47,47,0,0,1-3.06-13.81,32.29,32.29,0,0,0,16.09,11.28c10.45,3.11,13.83,8.43,14.47,11A12.68,12.68,0,0,1,400,203.77Zm4.34-15.23c-3.41-8.1-18.66-12.92-16.87-23.18,1.5-8.58,15.73-10.46,22.51-9.92,3.58.29,9.95.35,12.74,2.82,1.76,1.56,1.62,4.08,1.48,6.22-.42,6.45-3.66,14.12-10.17,16.5-2.79,1-6.45,1.14-9.05-.52a7.77,7.77,0,0,1-2.5-2.75,28.56,28.56,0,0,0-5.25-6.6c-3.82-3.77-2-7.93,2.87-9.86,4.52-1.78,16.1-4,18.66,2,2,4.57-3.59,12.29-8.37,12.44-4.16.13-8.53-6-5.37-9.53,2.46-2.76,7.11-.33,4.9,3.1-.36.56-1.27,0-.91-.53q-6.25,4.14.38,4.33c2,1.57,3.51,1.45,4.6-.34a10.38,10.38,0,0,0,2.78-3.64L414.13,161l-2.82-.3a30.21,30.21,0,0,0-3.43.2,39.07,39.07,0,0,0-4.57.57c-3.49.75-4.09,1-5.29,4.71-1.51,4.6-.23,3.5,2.27,6,1.28,1.3,1.79,2.84,2.72,4.35,2.23,3.64,6,4.92,10.07,3.67,6.24-1.91,9.32-9,9.93-15,.45-4.38-1.88-6.84-5.93-7.64a53,53,0,0,0-9.88-1.2c-6.07,0-18.76,2.57-18.8,10.54,0,5.85,6.73,10,10.59,13.31a21.44,21.44,0,0,1,6.33,8C405.58,188.88,404.57,189.15,404.31,188.54Zm34.47,7.26c.6,3.41-1,6.32-3.38,6.81s-2.66-2.53-3.38-7.88a10.81,10.81,0,0,0-3.86,7.49,30.27,30.27,0,0,1-.48-6.42c-5.8,2-3.86,10.31-3.86,10.31s-1.21-.29-1.21-2.62-.15-6.09-.15-6.09-.69-.24-3.83,1.81-1,8.53-.85,9a19.06,19.06,0,0,0-1.32-1.72A20.43,20.43,0,0,1,412.6,198c-.72-4,1.41-9.64,1.41-9.64a12.1,12.1,0,0,0-3.38,1.56,19.79,19.79,0,0,0-3.86,3s-2.78-4.58.6-4.28,7.24-3.41,7.48-3a9.11,9.11,0,0,0,3.62,5c3.14,2.34,9.29-3.6,12.06-6s11.22-5.25,11.22-5.25-.12.58-2.53,3.14S438.17,192.4,438.78,195.8Z"/><path class="cls-2" d="M398.85,191.45s-4.19-6.61-7.88-7.91-12.71-6.1-12.39-12.06A23.85,23.85,0,0,1,382,160.84s-1.13,10.25,2.57,13.36,10.46,7.14,12.23,9.86S398.85,191.45,398.85,191.45Z"/><path class="cls-2" d="M395.85,195.34a20.64,20.64,0,0,1-5.79.85c-3.2,0-6.75-3.43-6.75-3.43a34,34,0,0,1,6.75-.85C393.26,191.91,395.85,195.34,395.85,195.34Z"/><path class="cls-2" d="M400,198.46c-.64-2.6-4-7.92-14.47-11a32.29,32.29,0,0,1-16.09-11.28A47,47,0,0,0,372.47,190c2.89,7.72,9.81,8.37,18.82,9.27s8.68,4.54,8.68,4.54A12.68,12.68,0,0,0,400,198.46Zm-9.91-2.27c-3.2,0-6.75-3.43-6.75-3.43a34,34,0,0,1,6.75-.85c3.2,0,5.79,3.43,5.79,3.43A20.64,20.64,0,0,1,390.06,196.19Z"/><path class="cls-2" d="M428.23,192.76s-3.55,3.43-6.75,3.43a20.64,20.64,0,0,1-5.79-.85s2.59-3.43,5.79-3.43A34,34,0,0,1,428.23,192.76Z"/><path class="cls-2" d="M441.75,179.36s-8.44,2.82-11.22,5.25-8.92,8.37-12.06,6a9.11,9.11,0,0,1-3.62-5c-.24-.39-4.1,3.31-7.48,3s-.6,4.28-.6,4.28a19.79,19.79,0,0,1,3.86-3A12.1,12.1,0,0,1,414,188.4s-2.13,5.65-1.41,9.64a20.43,20.43,0,0,0,3.86,8.46,19.06,19.06,0,0,1,1.32,1.72c-.15-.48-2.16-7.05.85-9s3.83-1.81,3.83-1.81.15,3.75.15,6.09,1.21,2.62,1.21,2.62-1.94-8.27,3.86-10.31a30.27,30.27,0,0,0,.48,6.42,10.81,10.81,0,0,1,3.86-7.49c.72,5.35,1,8.37,3.38,7.88s4-3.4,3.38-6.81-2-10.74.44-13.3S441.75,179.36,441.75,179.36Zm-20.27,16.83a20.64,20.64,0,0,1-5.79-.85s2.59-3.43,5.79-3.43a34,34,0,0,1,6.75.85S424.68,196.19,421.48,196.19Z"/><path class="cls-10" d="M424.17,164.48c-.42,6.45-3.66,14.12-10.17,16.5-2.79,1-6.45,1.14-9.05-.52a7.77,7.77,0,0,1-2.5-2.75,28.56,28.56,0,0,0-5.25-6.6c-3.82-3.77-2-7.93,2.87-9.86,4.52-1.78,16.1-4,18.66,2,2,4.57-3.59,12.29-8.37,12.44-4.16.13-8.53-6-5.37-9.53,2.46-2.76,7.11-.33,4.9,3.1-.36.56-1.27,0-.91-.53q-6.25,4.14.38,4.33c2,1.57,3.51,1.45,4.6-.34a10.38,10.38,0,0,0,2.78-3.64L414.13,161l-2.82-.3a30.21,30.21,0,0,0-3.43.2,39.07,39.07,0,0,0-4.57.57c-3.49.75-4.09,1-5.29,4.71-1.51,4.6-.23,3.5,2.27,6,1.28,1.3,1.79,2.84,2.72,4.35,2.23,3.64,6,4.92,10.07,3.67,6.24-1.91,9.32-9,9.93-15,.45-4.38-1.88-6.84-5.93-7.64a53,53,0,0,0-9.88-1.2c-6.07,0-18.76,2.57-18.8,10.54,0,5.85,6.73,10,10.59,13.31a21.44,21.44,0,0,1,6.33,8c.26.62-.75.89-1,.28-3.41-8.1-18.66-12.92-16.87-23.18,1.5-8.58,15.73-10.46,22.51-9.92,3.58.29,9.95.35,12.74,2.82C424.45,159.82,424.31,162.34,424.17,164.48Z"/><path class="cls-2" d="M412.6,217.7l-2.09,3.12a4,4,0,0,1-3.31,1.67h-4.66a4.67,4.67,0,0,1-4-2.16L397,217.77C400.05,217.43,408.28,217.59,412.6,217.7Z"/><path d="M586.1,79.92c.34,3.71-7.5,10.25-12.16,12.33s-11.34,9.35-11.34,9.35.89-8.45,3.5-11.73,9-5.2,12.5-8.17,6.67-10.84,6.67-10.84S585.77,76.2,586.1,79.92Z"/><path class="cls-1" d="M562.6,91.06A19.53,19.53,0,0,1,558.91,99c1.14-4.08,3.22-13.19.69-18.53-3.32-7-6.5-3.64-9,1.56s2.67,11.88,4.61,11.88,2.39-9.51,0-9.8,0,5.79,0,5.79-3.5.83-3.74-6.68c3.13-8,7.8-3.42,7.13,3s-.66,11.51-3.39,12.68a4.46,4.46,0,0,1-3.07-.11l-.35-.46,0,0a3,3,0,0,0-.22-.31l0-.07,0,0a25.28,25.28,0,0,1-2.8-5.63c-.27-.78-.51-1.58-.7-2.37-.12-.53-.23-1.06-.31-1.58s-.14-1-.17-1.54a9.7,9.7,0,0,1,.44-3.73c2.16-6.09,7.83-19.68,7.66-23.21,0,0,1.5,9.25,3.5,14.44S563.94,85.56,562.6,91.06Z"/><path class="cls-3" d="M558.91,99a5,5,0,0,1-3.66,2.09c-.91,0-2-.88-3.11-2.26a4.46,4.46,0,0,0,3.07.11c2.73-1.17,2.73-6.22,3.39-12.68s-4-11-7.13-3c.24,7.51,3.74,6.68,3.74,6.68s-2.38-6.09,0-5.79,1.95,9.8,0,9.8S548.1,87.2,550.6,82s5.68-8.6,9-1.56C562.13,85.78,560.05,94.89,558.91,99Z"/><path d="M575.58,98.32c5.81-.68,11.33-5.94,13.69-8.44l0,0c1.17-1.23,1.54-1.75.86-.78a3.14,3.14,0,0,1-.86.78l0,0c-2.52,1.69-8.57,2.75-12.08,3.24"/><path class="cls-11" d="M542.58,98.6a30.19,30.19,0,0,1-7.62-.28c-4.1-.69-7.82-5.35-7.82-5.35a56.86,56.86,0,0,1,6.21.15.55.55,0,0,0,.18,0c1.14.17,2,.27,2.32.3l.15,0C540.1,94.15,542.58,98.6,542.58,98.6Z"/><path d="M547.94,101.6s-6.67-7.28-11.34-9.35-12.5-8.62-12.16-12.33.83-9.06.83-9.06,3.17,7.87,6.67,10.84,9.88,4.89,12.5,8.17S547.94,101.6,547.94,101.6Z"/><path class="cls-2" d="M521.27,89.88s0,0,0,0,0,0,0,0"/><path class="cls-2" d="M595.22,187.63c-5.34,4.74-11.94,10.45-15.12,12.64-5.83,4-15.16,5.2-19.16,4.45-1.34-2.37,1.83-11.88,3.5-15.74s10-7.28,13.5-10.84c2.43-2.48,5.83-9.54,7.67-13.62-6.82-7.18-17.07-11-30.34-11s-23.52,3.79-30.34,11c1.84,4.08,5.24,11.14,7.67,13.62,3.5,3.56,11.84,7,13.5,10.84s4.84,13.37,3.5,15.74c-4,.75-13.33-.44-19.16-4.45-3.18-2.19-9.78-7.9-15.12-12.64-.19,2-.29,4-.29,6.16,0,25.64,14.16,40.52,39.62,40.75-6.34-.26-11.38-4.4-11.38-9.49,0-3.38,2.23-5.31,5.58-6.25h0a27.77,27.77,0,0,1,12.82,0c3.36.94,5.59,2.87,5.59,6.25,0,5.09-5,9.23-11.38,9.49,25.46-.23,39.62-15.11,39.62-40.75C595.51,191.66,595.41,189.6,595.22,187.63Zm-40,11.65c-.91,0-2-.88-3.11-2.26l-.35-.46s0,0,0,0a2.7,2.7,0,0,1-.22-.31l0-.07,0,0a25.28,25.28,0,0,1-2.8-5.63c-.27-.78-.51-1.58-.7-2.37-.12-.53-.23-1.06-.31-1.58s-.14-1-.17-1.54a9.7,9.7,0,0,1,.44-3.73c2.16-6.09,7.83-19.68,7.66-23.21,0,0,1.5,9.25,3.5,14.44s4.84,11.29,3.5,16.79a19.53,19.53,0,0,1-3.69,7.91A5,5,0,0,1,555.25,199.28Z"/><path class="cls-2" d="M533.53,191.36c1.14.17,2,.27,2.32.3C535.08,191.53,534.3,191.44,533.53,191.36Zm-13.14-4.06a3.14,3.14,0,0,0,.86.78C520.08,186.85,519.71,186.33,520.39,187.3Z"/><path class="cls-2" d="M546.1,189c-1.66-3.86-10-7.28-13.5-10.84-2.43-2.48-5.83-9.54-7.67-13.62-5.39,5.66-8.66,13.43-9.61,23.11,5.34,4.74,11.94,10.45,15.12,12.64,5.83,4,15.16,5.2,19.16,4.45C550.94,202.35,547.77,192.84,546.1,189Zm-25.71-1.68c-.68-1-.31-.45.86.78A3.14,3.14,0,0,1,520.39,187.3ZM535,196.54c-5.81-.68-11.33-5.94-13.69-8.44,2.52,1.69,8.57,2.75,12.08,3.24a.55.55,0,0,0,.18,0c.77.08,1.55.17,2.32.3l.15,0c4.1.69,6.58,5.14,6.58,5.14A30.19,30.19,0,0,1,535,196.54Zm1.64-6.07c-4.66-2.08-12.5-8.62-12.16-12.33s.83-9.06.83-9.06,3.17,7.87,6.67,10.84,9.88,4.89,12.5,8.17,3.5,11.73,3.5,11.73S541.27,192.54,536.6,190.47Z"/><path class="cls-2" d="M535,196.54c-5.81-.68-11.33-5.94-13.69-8.44,2.52,1.69,8.57,2.75,12.08,3.24a56.86,56.86,0,0,0-6.21-.15S530.86,195.85,535,196.54Z"/><path class="cls-2" d="M567.27,225.05c0,5.09-5,9.23-11.38,9.49h-1.24c-6.34-.26-11.38-4.4-11.38-9.49,0-3.38,2.23-5.31,5.58-6.25h0a27.77,27.77,0,0,1,12.82,0C565,219.74,567.27,221.67,567.27,225.05Z"/><path class="cls-2" d="M585.61,164.52c-1.84,4.08-5.24,11.14-7.67,13.62-3.5,3.56-11.84,7-13.5,10.84s-4.84,13.37-3.5,15.74c4,.75,13.33-.44,19.16-4.45,3.18-2.19,9.78-7.9,15.12-12.64C594.27,178,591,170.18,585.61,164.52Zm-23,35.3s.89-8.45,3.5-11.73,9-5.2,12.5-8.17,6.67-10.84,6.67-10.84.5,5.34.83,9.06-7.5,10.25-12.16,12.33S562.6,199.82,562.6,199.82Zm5.36-3s2.48-4.45,6.58-5.14l.15,0c.33,0,1.18-.13,2.32-.3a.55.55,0,0,0,.18,0,56.86,56.86,0,0,1,6.21-.15s-3.72,4.66-7.82,5.35A30.19,30.19,0,0,1,568,196.82Z"/><path class="cls-2" d="M567.27,225.05c0,5.09-5,9.23-11.38,9.49h-1.24c-6.34-.26-11.38-4.4-11.38-9.49,0-3.38,2.23-5.31,5.58-6.25h0l.92,2.76a2.18,2.18,0,0,0,2.08,1.49h6.89a2.09,2.09,0,0,0,2-1.45l.93-2.8C565,219.74,567.27,221.67,567.27,225.05Z"/><path class="cls-2" d="M561.68,218.8l-.93,2.8a2.09,2.09,0,0,1-2,1.45h-6.89a2.18,2.18,0,0,1-2.08-1.49l-.92-2.76a27.77,27.77,0,0,1,12.82,0Z"/><path class="cls-2" d="M583.4,191.19s-3.72,4.66-7.82,5.35a30.19,30.19,0,0,1-7.62.28s2.48-4.45,6.58-5.14l.15,0c.33,0,1.18-.13,2.32-.3a.55.55,0,0,0,.18,0A56.86,56.86,0,0,1,583.4,191.19Z"/><path class="cls-2" d="M577,191.36c-1.14.17-2,.27-2.32.3C575.46,191.53,576.24,191.44,577,191.36Z"/><path class="cls-2" d="M586.1,178.14c.34,3.71-7.5,10.25-12.16,12.33s-11.34,9.35-11.34,9.35.89-8.45,3.5-11.73,9-5.2,12.5-8.17,6.67-10.84,6.67-10.84S585.77,174.42,586.1,178.14Z"/><path class="cls-2" d="M562.6,189.28a19.53,19.53,0,0,1-3.69,7.91c1.14-4.08,3.22-13.19.69-18.53-3.32-7-6.5-3.64-9,1.56s2.67,11.88,4.61,11.88,2.39-9.51,0-9.8,0,5.79,0,5.79-3.5.83-3.74-6.68c3.13-8,7.8-3.42,7.13,3s-.66,11.51-3.39,12.68a4.46,4.46,0,0,1-3.07-.11l-.35-.46s0,0,0,0a3,3,0,0,0-.22-.31l0-.07,0,0a25.28,25.28,0,0,1-2.8-5.63c-.27-.78-.51-1.58-.7-2.37-.12-.53-.23-1.06-.31-1.58s-.14-1-.17-1.54a9.7,9.7,0,0,1,.44-3.73c2.16-6.09,7.83-19.68,7.66-23.21,0,0,1.5,9.25,3.5,14.44S563.94,183.78,562.6,189.28Z"/><path class="cls-2" d="M558.91,197.19a5,5,0,0,1-3.66,2.09c-.91,0-2-.88-3.11-2.26a4.46,4.46,0,0,0,3.07.11c2.73-1.17,2.73-6.22,3.39-12.68s-4-11-7.13-3c.24,7.51,3.74,6.68,3.74,6.68s-2.38-6.09,0-5.79,1.95,9.8,0,9.8-7.11-6.68-4.61-11.88,5.68-8.6,9-1.56C562.13,184,560.05,193.11,558.91,197.19Z"/><path class="cls-2" d="M551.5,196.15l0-.06"/><path class="cls-2" d="M575.58,196.54c5.81-.68,11.33-5.94,13.69-8.44l0,0c1.17-1.23,1.54-1.75.86-.78a3.14,3.14,0,0,1-.86.78l0,0c-2.52,1.69-8.57,2.75-12.08,3.24"/><path class="cls-2" d="M542.58,196.82a30.19,30.19,0,0,1-7.62-.28c-4.1-.69-7.82-5.35-7.82-5.35a56.86,56.86,0,0,1,6.21.15.55.55,0,0,0,.18,0c1.14.17,2,.27,2.32.3l.15,0C540.1,192.37,542.58,196.82,542.58,196.82Z"/><path class="cls-2" d="M535.85,191.66c-.33,0-1.18-.13-2.32-.3C534.3,191.44,535.08,191.53,535.85,191.66Z"/><path class="cls-2" d="M547.94,199.82s-6.67-7.28-11.34-9.35-12.5-8.62-12.16-12.33.83-9.06.83-9.06,3.17,7.87,6.67,10.84,9.88,4.89,12.5,8.17S547.94,199.82,547.94,199.82Z"/><path class="cls-2" d="M521.27,188.1l0,0,0,0"/><path class="cls-11" d="M583.4,93s-3.72,4.66-7.82,5.35a30.19,30.19,0,0,1-7.62.28s2.48-4.45,6.58-5.14l.15,0c.33,0,1.18-.13,2.32-.3a.55.55,0,0,0,.18,0A56.86,56.86,0,0,1,583.4,93Z"/><polyline class="cls-12" points="153.27 143.33 153.27 143.83 152.77 143.83"/><line class="cls-13" x1="150.77" y1="143.83" x2="58.77" y2="143.83"/><polyline class="cls-12" points="57.77 143.83 57.27 143.83 57.27 143.33"/><line class="cls-13" x1="57.27" y1="141.33" x2="57.27" y2="49.33"/><polyline class="cls-12" points="57.27 48.33 57.27 47.83 57.77 47.83"/><line class="cls-13" x1="59.77" y1="47.83" x2="151.77" y2="47.83"/><polyline class="cls-12" points="152.77 47.83 153.27 47.83 153.27 48.33"/><line class="cls-13" x1="153.27" y1="50.33" x2="153.27" y2="142.33"/><rect class="cls-14" x="61.27" y="51.83" width="88" height="88" rx="44"/><polyline class="cls-12" points="145.27 135.33 145.27 135.83 144.77 135.83"/><line class="cls-15" x1="142.8" y1="135.83" x2="66.76" y2="135.83"/><polyline class="cls-12" points="65.77 135.83 65.27 135.83 65.27 135.33"/><line class="cls-15" x1="65.27" y1="133.35" x2="65.27" y2="57.31"/><polyline class="cls-12" points="65.27 56.33 65.27 55.83 65.77 55.83"/><line class="cls-15" x1="67.75" y1="55.83" x2="143.79" y2="55.83"/><polyline class="cls-12" points="144.77 55.83 145.27 55.83 145.27 56.33"/><line class="cls-15" x1="145.27" y1="58.3" x2="145.27" y2="134.34"/><polyline class="cls-12" points="141.27 139.33 141.27 139.83 140.77 139.83"/><line class="cls-13" x1="138.77" y1="139.83" x2="70.77" y2="139.83"/><polyline class="cls-12" points="69.77 139.83 69.27 139.83 69.27 139.33"/><line class="cls-16" x1="69.27" y1="137.3" x2="69.27" y2="53.34"/><polyline class="cls-12" points="69.27 52.33 69.27 51.83 69.77 51.83"/><line class="cls-13" x1="71.77" y1="51.83" x2="139.77" y2="51.83"/><polyline class="cls-12" points="140.77 51.83 141.27 51.83 141.27 52.33"/><line class="cls-16" x1="141.27" y1="54.35" x2="141.27" y2="138.32"/><polyline class="cls-12" points="149.27 131.33 149.27 131.83 148.77 131.83"/><line class="cls-16" x1="146.75" y1="131.83" x2="62.79" y2="131.83"/><polyline class="cls-12" points="61.77 131.83 61.27 131.83 61.27 131.33"/><line class="cls-13" x1="61.27" y1="129.33" x2="61.27" y2="61.33"/><polyline class="cls-12" points="61.27 60.33 61.27 59.83 61.77 59.83"/><line class="cls-16" x1="63.8" y1="59.83" x2="147.76" y2="59.83"/><polyline class="cls-12" points="148.77 59.83 149.27 59.83 149.27 60.33"/><line class="cls-13" x1="149.27" y1="62.33" x2="149.27" y2="130.33"/><rect class="cls-17" x="61.27" y="51.83" width="88" height="88"/><line class="cls-12" x1="105.27" y1="47.83" x2="105.27" y2="48.33"/><line class="cls-13" x1="105.27" y1="50.33" x2="105.27" y2="142.33"/><line class="cls-12" x1="105.27" y1="143.33" x2="105.27" y2="143.83"/><line class="cls-12" x1="57.27" y1="95.83" x2="57.77" y2="95.83"/><line class="cls-13" x1="59.77" y1="95.83" x2="151.77" y2="95.83"/><line class="cls-12" x1="152.77" y1="95.83" x2="153.27" y2="95.83"/><polyline class="cls-12" points="303.27 143.33 303.27 143.83 302.77 143.83"/><line class="cls-13" x1="300.77" y1="143.83" x2="208.77" y2="143.83"/><polyline class="cls-12" points="207.77 143.83 207.27 143.83 207.27 143.33"/><line class="cls-13" x1="207.27" y1="141.33" x2="207.27" y2="49.33"/><polyline class="cls-12" points="207.27 48.33 207.27 47.83 207.77 47.83"/><line class="cls-13" x1="209.77" y1="47.83" x2="301.77" y2="47.83"/><polyline class="cls-12" points="302.77 47.83 303.27 47.83 303.27 48.33"/><line class="cls-13" x1="303.27" y1="50.33" x2="303.27" y2="142.33"/><rect class="cls-14" x="211.27" y="51.83" width="88" height="88" rx="44"/><polyline class="cls-12" points="295.27 135.33 295.27 135.83 294.77 135.83"/><line class="cls-15" x1="292.8" y1="135.83" x2="216.76" y2="135.83"/><polyline class="cls-12" points="215.77 135.83 215.27 135.83 215.27 135.33"/><line class="cls-15" x1="215.27" y1="133.35" x2="215.27" y2="57.31"/><polyline class="cls-12" points="215.27 56.33 215.27 55.83 215.77 55.83"/><line class="cls-15" x1="217.75" y1="55.83" x2="293.79" y2="55.83"/><polyline class="cls-12" points="294.77 55.83 295.27 55.83 295.27 56.33"/><line class="cls-15" x1="295.27" y1="58.3" x2="295.27" y2="134.34"/><polyline class="cls-12" points="291.27 139.33 291.27 139.83 290.77 139.83"/><line class="cls-13" x1="288.77" y1="139.83" x2="220.77" y2="139.83"/><polyline class="cls-12" points="219.77 139.83 219.27 139.83 219.27 139.33"/><line class="cls-16" x1="219.27" y1="137.3" x2="219.27" y2="53.34"/><polyline class="cls-12" points="219.27 52.33 219.27 51.83 219.77 51.83"/><line class="cls-13" x1="221.77" y1="51.83" x2="289.77" y2="51.83"/><polyline class="cls-12" points="290.77 51.83 291.27 51.83 291.27 52.33"/><line class="cls-16" x1="291.27" y1="54.35" x2="291.27" y2="138.32"/><polyline class="cls-12" points="299.27 131.33 299.27 131.83 298.77 131.83"/><line class="cls-16" x1="296.75" y1="131.83" x2="212.79" y2="131.83"/><polyline class="cls-12" points="211.77 131.83 211.27 131.83 211.27 131.33"/><line class="cls-13" x1="211.27" y1="129.33" x2="211.27" y2="61.33"/><polyline class="cls-12" points="211.27 60.33 211.27 59.83 211.77 59.83"/><line class="cls-16" x1="213.8" y1="59.83" x2="297.76" y2="59.83"/><polyline class="cls-12" points="298.77 59.83 299.27 59.83 299.27 60.33"/><line class="cls-13" x1="299.27" y1="62.33" x2="299.27" y2="130.33"/><rect class="cls-17" x="211.27" y="51.83" width="88" height="88"/><line class="cls-12" x1="255.27" y1="47.83" x2="255.27" y2="48.33"/><line class="cls-13" x1="255.27" y1="50.33" x2="255.27" y2="142.33"/><line class="cls-12" x1="255.27" y1="143.33" x2="255.27" y2="143.83"/><line class="cls-12" x1="207.27" y1="95.83" x2="207.77" y2="95.83"/><line class="cls-13" x1="209.77" y1="95.83" x2="301.77" y2="95.83"/><line class="cls-12" x1="302.77" y1="95.83" x2="303.27" y2="95.83"/><polyline class="cls-12" points="453.27 143.33 453.27 143.83 452.77 143.83"/><line class="cls-13" x1="450.77" y1="143.83" x2="358.77" y2="143.83"/><polyline class="cls-12" points="357.77 143.83 357.27 143.83 357.27 143.33"/><line class="cls-13" x1="357.27" y1="141.33" x2="357.27" y2="49.33"/><polyline class="cls-12" points="357.27 48.33 357.27 47.83 357.77 47.83"/><line class="cls-13" x1="359.77" y1="47.83" x2="451.77" y2="47.83"/><polyline class="cls-12" points="452.77 47.83 453.27 47.83 453.27 48.33"/><line class="cls-13" x1="453.27" y1="50.33" x2="453.27" y2="142.33"/><rect class="cls-14" x="361.27" y="51.83" width="88" height="88" rx="44"/><polyline class="cls-12" points="445.27 135.33 445.27 135.83 444.77 135.83"/><line class="cls-15" x1="442.8" y1="135.83" x2="366.76" y2="135.83"/><polyline class="cls-12" points="365.77 135.83 365.27 135.83 365.27 135.33"/><line class="cls-15" x1="365.27" y1="133.35" x2="365.27" y2="57.31"/><polyline class="cls-12" points="365.27 56.33 365.27 55.83 365.77 55.83"/><line class="cls-15" x1="367.75" y1="55.83" x2="443.79" y2="55.83"/><polyline class="cls-12" points="444.77 55.83 445.27 55.83 445.27 56.33"/><line class="cls-15" x1="445.27" y1="58.3" x2="445.27" y2="134.34"/><polyline class="cls-12" points="441.27 139.33 441.27 139.83 440.77 139.83"/><line class="cls-13" x1="438.77" y1="139.83" x2="370.77" y2="139.83"/><polyline class="cls-12" points="369.77 139.83 369.27 139.83 369.27 139.33"/><line class="cls-16" x1="369.27" y1="137.3" x2="369.27" y2="53.34"/><polyline class="cls-12" points="369.27 52.33 369.27 51.83 369.77 51.83"/><line class="cls-13" x1="371.77" y1="51.83" x2="439.77" y2="51.83"/><polyline class="cls-12" points="440.77 51.83 441.27 51.83 441.27 52.33"/><line class="cls-16" x1="441.27" y1="54.35" x2="441.27" y2="138.32"/><polyline class="cls-12" points="449.27 131.33 449.27 131.83 448.77 131.83"/><line class="cls-16" x1="446.75" y1="131.83" x2="362.79" y2="131.83"/><polyline class="cls-12" points="361.77 131.83 361.27 131.83 361.27 131.33"/><line class="cls-13" x1="361.27" y1="129.33" x2="361.27" y2="61.33"/><polyline class="cls-12" points="361.27 60.33 361.27 59.83 361.77 59.83"/><line class="cls-16" x1="363.8" y1="59.83" x2="447.76" y2="59.83"/><polyline class="cls-12" points="448.77 59.83 449.27 59.83 449.27 60.33"/><line class="cls-13" x1="449.27" y1="62.33" x2="449.27" y2="130.33"/><rect class="cls-17" x="361.27" y="51.83" width="88" height="88"/><line class="cls-12" x1="405.27" y1="47.83" x2="405.27" y2="48.33"/><line class="cls-13" x1="405.27" y1="50.33" x2="405.27" y2="142.33"/><line class="cls-12" x1="405.27" y1="143.33" x2="405.27" y2="143.83"/><line class="cls-12" x1="357.27" y1="95.83" x2="357.77" y2="95.83"/><line class="cls-13" x1="359.77" y1="95.83" x2="451.77" y2="95.83"/><line class="cls-12" x1="452.77" y1="95.83" x2="453.27" y2="95.83"/><polyline class="cls-12" points="603.27 143.33 603.27 143.83 602.77 143.83"/><line class="cls-13" x1="600.77" y1="143.83" x2="508.77" y2="143.83"/><polyline class="cls-12" points="507.77 143.83 507.27 143.83 507.27 143.33"/><line class="cls-13" x1="507.27" y1="141.33" x2="507.27" y2="49.33"/><polyline class="cls-12" points="507.27 48.33 507.27 47.83 507.77 47.83"/><line class="cls-13" x1="509.77" y1="47.83" x2="601.77" y2="47.83"/><polyline class="cls-12" points="602.77 47.83 603.27 47.83 603.27 48.33"/><line class="cls-13" x1="603.27" y1="50.33" x2="603.27" y2="142.33"/><rect class="cls-14" x="511.27" y="51.83" width="88" height="88" rx="44"/><polyline class="cls-12" points="595.27 135.33 595.27 135.83 594.77 135.83"/><line class="cls-15" x1="592.8" y1="135.83" x2="516.76" y2="135.83"/><polyline class="cls-12" points="515.77 135.83 515.27 135.83 515.27 135.33"/><line class="cls-15" x1="515.27" y1="133.35" x2="515.27" y2="57.31"/><polyline class="cls-12" points="515.27 56.33 515.27 55.83 515.77 55.83"/><line class="cls-15" x1="517.75" y1="55.83" x2="593.79" y2="55.83"/><polyline class="cls-12" points="594.77 55.83 595.27 55.83 595.27 56.33"/><line class="cls-15" x1="595.27" y1="58.3" x2="595.27" y2="134.34"/><polyline class="cls-12" points="591.27 139.33 591.27 139.83 590.77 139.83"/><line class="cls-13" x1="588.77" y1="139.83" x2="520.77" y2="139.83"/><polyline class="cls-12" points="519.77 139.83 519.27 139.83 519.27 139.33"/><line class="cls-16" x1="519.27" y1="137.3" x2="519.27" y2="53.34"/><polyline class="cls-12" points="519.27 52.33 519.27 51.83 519.77 51.83"/><line class="cls-13" x1="521.77" y1="51.83" x2="589.77" y2="51.83"/><polyline class="cls-12" points="590.77 51.83 591.27 51.83 591.27 52.33"/><line class="cls-16" x1="591.27" y1="54.35" x2="591.27" y2="138.32"/><polyline class="cls-12" points="599.27 131.33 599.27 131.83 598.77 131.83"/><line class="cls-16" x1="596.75" y1="131.83" x2="512.79" y2="131.83"/><polyline class="cls-12" points="511.77 131.83 511.27 131.83 511.27 131.33"/><line class="cls-13" x1="511.27" y1="129.33" x2="511.27" y2="61.33"/><polyline class="cls-12" points="511.27 60.33 511.27 59.83 511.77 59.83"/><line class="cls-16" x1="513.8" y1="59.83" x2="597.76" y2="59.83"/><polyline class="cls-12" points="598.77 59.83 599.27 59.83 599.27 60.33"/><line class="cls-13" x1="599.27" y1="62.33" x2="599.27" y2="130.33"/><rect class="cls-17" x="511.27" y="51.83" width="88" height="88"/><line class="cls-12" x1="555.27" y1="47.83" x2="555.27" y2="48.33"/><line class="cls-13" x1="555.27" y1="50.33" x2="555.27" y2="142.33"/><line class="cls-12" x1="555.27" y1="143.33" x2="555.27" y2="143.83"/><line class="cls-12" x1="507.27" y1="95.83" x2="507.77" y2="95.83"/><line class="cls-13" x1="509.77" y1="95.83" x2="601.77" y2="95.83"/><line class="cls-12" x1="602.77" y1="95.83" x2="603.27" y2="95.83"/></g></svg>