<svg xmlns="http://www.w3.org/2000/svg" viewBox="0 0 616 304"><defs><style>.cls-1,.cls-13,.cls-2,.cls-3,.cls-4,.cls-5,.cls-6,.cls-9{fill:none;}.cls-1,.cls-2,.cls-3,.cls-4,.cls-5{stroke:#b2b2b2;}.cls-1,.cls-13,.cls-2,.cls-3,.cls-4,.cls-5,.cls-6,.cls-7,.cls-8,.cls-9{stroke-linecap:round;}.cls-1,.cls-2,.cls-3,.cls-4,.cls-5,.cls-6,.cls-7,.cls-8,.cls-9{stroke-linejoin:round;}.cls-1,.cls-2,.cls-3,.cls-4,.cls-5,.cls-6{stroke-width:0.3px;}.cls-2{stroke-dasharray:1 2;}.cls-3{stroke-dasharray:1 2;}.cls-4{stroke-dasharray:0.99 1.98;}.cls-5{stroke-dasharray:1.01 2.02;}.cls-6{stroke:#ff434d;}.cls-10,.cls-12,.cls-7{fill:#fff;}.cls-12,.cls-13,.cls-7,.cls-8,.cls-9{stroke:#270095;}.cls-8{fill:#5c73ff;}.cls-11{fill:#270095;}.cls-12,.cls-13{stroke-miterlimit:10;}</style></defs><title>2</title><g id="Grid"><polyline class="cls-1" points="127 125.5 127 126 126.5 126"/><line class="cls-2" x1="124.5" y1="126" x2="32.5" y2="126"/><polyline class="cls-1" points="31.5 126 31 126 31 125.5"/><line class="cls-2" x1="31" y1="123.5" x2="31" y2="31.5"/><polyline class="cls-1" points="31 30.5 31 30 31.5 30"/><line class="cls-2" x1="33.5" y1="30" x2="125.5" y2="30"/><polyline class="cls-1" points="126.5 30 127 30 127 30.5"/><line class="cls-2" x1="127" y1="32.5" x2="127" y2="124.5"/><rect class="cls-3" x="35" y="34" width="88" height="88" rx="44"/><polyline class="cls-1" points="119 117.5 119 118 118.5 118"/><line class="cls-4" x1="116.52" y1="118" x2="40.49" y2="118"/><polyline class="cls-1" points="39.5 118 39 118 39 117.5"/><line class="cls-4" x1="39" y1="115.52" x2="39" y2="39.49"/><polyline class="cls-1" points="39 38.5 39 38 39.5 38"/><line class="cls-4" x1="41.48" y1="38" x2="117.51" y2="38"/><polyline class="cls-1" points="118.5 38 119 38 119 38.5"/><line class="cls-4" x1="119" y1="40.47" x2="119" y2="116.51"/><polyline class="cls-1" points="115 121.5 115 122 114.5 122"/><line class="cls-2" x1="112.5" y1="122" x2="44.5" y2="122"/><polyline class="cls-1" points="43.5 122 43 122 43 121.5"/><line class="cls-5" x1="43" y1="119.48" x2="43" y2="35.51"/><polyline class="cls-1" points="43 34.5 43 34 43.5 34"/><line class="cls-2" x1="45.5" y1="34" x2="113.5" y2="34"/><polyline class="cls-1" points="114.5 34 115 34 115 34.5"/><line class="cls-5" x1="115" y1="36.52" x2="115" y2="120.49"/><polyline class="cls-1" points="123 113.5 123 114 122.5 114"/><line class="cls-5" x1="120.48" y1="114" x2="36.51" y2="114"/><polyline class="cls-1" points="35.5 114 35 114 35 113.5"/><line class="cls-2" x1="35" y1="111.5" x2="35" y2="43.5"/><polyline class="cls-1" points="35 42.5 35 42 35.5 42"/><line class="cls-5" x1="37.52" y1="42" x2="121.49" y2="42"/><polyline class="cls-1" points="122.5 42 123 42 123 42.5"/><line class="cls-2" x1="123" y1="44.5" x2="123" y2="112.5"/><rect class="cls-6" x="35" y="34" width="88" height="88"/><line class="cls-1" x1="79" y1="30" x2="79" y2="30.5"/><line class="cls-2" x1="79" y1="32.5" x2="79" y2="124.5"/><line class="cls-1" x1="79" y1="125.5" x2="79" y2="126"/><line class="cls-1" x1="31" y1="78" x2="31.5" y2="78"/><line class="cls-2" x1="33.5" y1="78" x2="125.5" y2="78"/><line class="cls-1" x1="126.5" y1="78" x2="127" y2="78"/><polyline class="cls-1" points="277 125.5 277 126 276.5 126"/><line class="cls-2" x1="274.5" y1="126" x2="182.5" y2="126"/><polyline class="cls-1" points="181.5 126 181 126 181 125.5"/><line class="cls-2" x1="181" y1="123.5" x2="181" y2="31.5"/><polyline class="cls-1" points="181 30.5 181 30 181.5 30"/><line class="cls-2" x1="183.5" y1="30" x2="275.5" y2="30"/><polyline class="cls-1" points="276.5 30 277 30 277 30.5"/><line class="cls-2" x1="277" y1="32.5" x2="277" y2="124.5"/><rect class="cls-3" x="185" y="34" width="88" height="88" rx="44"/><polyline class="cls-1" points="269 117.5 269 118 268.5 118"/><line class="cls-4" x1="266.52" y1="118" x2="190.49" y2="118"/><polyline class="cls-1" points="189.5 118 189 118 189 117.5"/><line class="cls-4" x1="189" y1="115.52" x2="189" y2="39.49"/><polyline class="cls-1" points="189 38.5 189 38 189.5 38"/><line class="cls-4" x1="191.48" y1="38" x2="267.51" y2="38"/><polyline class="cls-1" points="268.5 38 269 38 269 38.5"/><line class="cls-4" x1="269" y1="40.47" x2="269" y2="116.51"/><polyline class="cls-1" points="265 121.5 265 122 264.5 122"/><line class="cls-2" x1="262.5" y1="122" x2="194.5" y2="122"/><polyline class="cls-1" points="193.5 122 193 122 193 121.5"/><line class="cls-5" x1="193" y1="119.48" x2="193" y2="35.51"/><polyline class="cls-1" points="193 34.5 193 34 193.5 34"/><line class="cls-2" x1="195.5" y1="34" x2="263.5" y2="34"/><polyline class="cls-1" points="264.5 34 265 34 265 34.5"/><line class="cls-5" x1="265" y1="36.52" x2="265" y2="120.49"/><polyline class="cls-1" points="273 113.5 273 114 272.5 114"/><line class="cls-5" x1="270.48" y1="114" x2="186.51" y2="114"/><polyline class="cls-1" points="185.5 114 185 114 185 113.5"/><line class="cls-2" x1="185" y1="111.5" x2="185" y2="43.5"/><polyline class="cls-1" points="185 42.5 185 42 185.5 42"/><line class="cls-5" x1="187.52" y1="42" x2="271.49" y2="42"/><polyline class="cls-1" points="272.5 42 273 42 273 42.5"/><line class="cls-2" x1="273" y1="44.5" x2="273" y2="112.5"/><rect class="cls-6" x="185" y="34" width="88" height="88"/><line class="cls-1" x1="229" y1="30" x2="229" y2="30.5"/><line class="cls-2" x1="229" y1="32.5" x2="229" y2="124.5"/><line class="cls-1" x1="229" y1="125.5" x2="229" y2="126"/><line class="cls-1" x1="181" y1="78" x2="181.5" y2="78"/><line class="cls-2" x1="183.5" y1="78" x2="275.5" y2="78"/><line class="cls-1" x1="276.5" y1="78" x2="277" y2="78"/><polyline class="cls-1" points="427 125.5 427 126 426.5 126"/><line class="cls-2" x1="424.5" y1="126" x2="332.5" y2="126"/><polyline class="cls-1" points="331.5 126 331 126 331 125.5"/><line class="cls-2" x1="331" y1="123.5" x2="331" y2="31.5"/><polyline class="cls-1" points="331 30.5 331 30 331.5 30"/><line class="cls-2" x1="333.5" y1="30" x2="425.5" y2="30"/><polyline class="cls-1" points="426.5 30 427 30 427 30.5"/><line class="cls-2" x1="427" y1="32.5" x2="427" y2="124.5"/><rect class="cls-3" x="335" y="34" width="88" height="88" rx="44"/><polyline class="cls-1" points="419 117.5 419 118 418.5 118"/><line class="cls-4" x1="416.52" y1="118" x2="340.49" y2="118"/><polyline class="cls-1" points="339.5 118 339 118 339 117.5"/><line class="cls-4" x1="339" y1="115.52" x2="339" y2="39.49"/><polyline class="cls-1" points="339 38.5 339 38 339.5 38"/><line class="cls-4" x1="341.48" y1="38" x2="417.51" y2="38"/><polyline class="cls-1" points="418.5 38 419 38 419 38.5"/><line class="cls-4" x1="419" y1="40.47" x2="419" y2="116.51"/><polyline class="cls-1" points="415 121.5 415 122 414.5 122"/><line class="cls-2" x1="412.5" y1="122" x2="344.5" y2="122"/><polyline class="cls-1" points="343.5 122 343 122 343 121.5"/><line class="cls-5" x1="343" y1="119.48" x2="343" y2="35.51"/><polyline class="cls-1" points="343 34.5 343 34 343.5 34"/><line class="cls-2" x1="345.5" y1="34" x2="413.5" y2="34"/><polyline class="cls-1" points="414.5 34 415 34 415 34.5"/><line class="cls-5" x1="415" y1="36.52" x2="415" y2="120.49"/><polyline class="cls-1" points="423 113.5 423 114 422.5 114"/><line class="cls-5" x1="420.48" y1="114" x2="336.51" y2="114"/><polyline class="cls-1" points="335.5 114 335 114 335 113.5"/><line class="cls-2" x1="335" y1="111.5" x2="335" y2="43.5"/><polyline class="cls-1" points="335 42.5 335 42 335.5 42"/><line class="cls-5" x1="337.52" y1="42" x2="421.49" y2="42"/><polyline class="cls-1" points="422.5 42 423 42 423 42.5"/><line class="cls-2" x1="423" y1="44.5" x2="423" y2="112.5"/><rect class="cls-6" x="335" y="34" width="88" height="88"/><line class="cls-1" x1="379" y1="30" x2="379" y2="30.5"/><line class="cls-2" x1="379" y1="32.5" x2="379" y2="124.5"/><line class="cls-1" x1="379" y1="125.5" x2="379" y2="126"/><line class="cls-1" x1="331" y1="78" x2="331.5" y2="78"/><line class="cls-2" x1="333.5" y1="78" x2="425.5" y2="78"/><line class="cls-1" x1="426.5" y1="78" x2="427" y2="78"/><polyline class="cls-1" points="577 125.5 577 126 576.5 126"/><line class="cls-2" x1="574.5" y1="126" x2="482.5" y2="126"/><polyline class="cls-1" points="481.5 126 481 126 481 125.5"/><line class="cls-2" x1="481" y1="123.5" x2="481" y2="31.5"/><polyline class="cls-1" points="481 30.5 481 30 481.5 30"/><line class="cls-2" x1="483.5" y1="30" x2="575.5" y2="30"/><polyline class="cls-1" points="576.5 30 577 30 577 30.5"/><line class="cls-2" x1="577" y1="32.5" x2="577" y2="124.5"/><rect class="cls-3" x="485" y="34" width="88" height="88" rx="44"/><polyline class="cls-1" points="569 117.5 569 118 568.5 118"/><line class="cls-4" x1="566.53" y1="118" x2="490.49" y2="118"/><polyline class="cls-1" points="489.5 118 489 118 489 117.5"/><line class="cls-4" x1="489" y1="115.52" x2="489" y2="39.49"/><polyline class="cls-1" points="489 38.5 489 38 489.5 38"/><line class="cls-4" x1="491.47" y1="38" x2="567.51" y2="38"/><polyline class="cls-1" points="568.5 38 569 38 569 38.5"/><line class="cls-4" x1="569" y1="40.47" x2="569" y2="116.51"/><polyline class="cls-1" points="565 121.5 565 122 564.5 122"/><line class="cls-2" x1="562.5" y1="122" x2="494.5" y2="122"/><polyline class="cls-1" points="493.5 122 493 122 493 121.5"/><line class="cls-5" x1="493" y1="119.48" x2="493" y2="35.51"/><polyline class="cls-1" points="493 34.5 493 34 493.5 34"/><line class="cls-2" x1="495.5" y1="34" x2="563.5" y2="34"/><polyline class="cls-1" points="564.5 34 565 34 565 34.5"/><line class="cls-5" x1="565" y1="36.52" x2="565" y2="120.49"/><polyline class="cls-1" points="573 113.5 573 114 572.5 114"/><line class="cls-5" x1="570.48" y1="114" x2="486.51" y2="114"/><polyline class="cls-1" points="485.5 114 485 114 485 113.5"/><line class="cls-2" x1="485" y1="111.5" x2="485" y2="43.5"/><polyline class="cls-1" points="485 42.5 485 42 485.5 42"/><line class="cls-5" x1="487.52" y1="42" x2="571.49" y2="42"/><polyline class="cls-1" points="572.5 42 573 42 573 42.5"/><line class="cls-2" x1="573" y1="44.5" x2="573" y2="112.5"/><rect class="cls-6" x="485" y="34" width="88" height="88"/><line class="cls-1" x1="529" y1="30" x2="529" y2="30.5"/><line class="cls-2" x1="529" y1="32.5" x2="529" y2="124.5"/><line class="cls-1" x1="529" y1="125.5" x2="529" y2="126"/><line class="cls-1" x1="481" y1="78" x2="481.5" y2="78"/><line class="cls-2" x1="483.5" y1="78" x2="575.5" y2="78"/><line class="cls-1" x1="576.5" y1="78" x2="577" y2="78"/><polyline class="cls-1" points="127 275.5 127 276 126.5 276"/><line class="cls-2" x1="124.5" y1="276" x2="32.5" y2="276"/><polyline class="cls-1" points="31.5 276 31 276 31 275.5"/><line class="cls-2" x1="31" y1="273.5" x2="31" y2="181.5"/><polyline class="cls-1" points="31 180.5 31 180 31.5 180"/><line class="cls-2" x1="33.5" y1="180" x2="125.5" y2="180"/><polyline class="cls-1" points="126.5 180 127 180 127 180.5"/><line class="cls-2" x1="127" y1="182.5" x2="127" y2="274.5"/><rect class="cls-3" x="35" y="184" width="88" height="88" rx="44"/><polyline class="cls-1" points="119 267.5 119 268 118.5 268"/><line class="cls-4" x1="116.52" y1="268" x2="40.49" y2="268"/><polyline class="cls-1" points="39.5 268 39 268 39 267.5"/><line class="cls-4" x1="39" y1="265.52" x2="39" y2="189.49"/><polyline class="cls-1" points="39 188.5 39 188 39.5 188"/><line class="cls-4" x1="41.48" y1="188" x2="117.51" y2="188"/><polyline class="cls-1" points="118.5 188 119 188 119 188.5"/><line class="cls-4" x1="119" y1="190.48" x2="119" y2="266.51"/><polyline class="cls-1" points="115 271.5 115 272 114.5 272"/><line class="cls-2" x1="112.5" y1="272" x2="44.5" y2="272"/><polyline class="cls-1" points="43.5 272 43 272 43 271.5"/><line class="cls-5" x1="43" y1="269.48" x2="43" y2="185.51"/><polyline class="cls-1" points="43 184.5 43 184 43.5 184"/><line class="cls-2" x1="45.5" y1="184" x2="113.5" y2="184"/><polyline class="cls-1" points="114.5 184 115 184 115 184.5"/><line class="cls-5" x1="115" y1="186.52" x2="115" y2="270.49"/><polyline class="cls-1" points="123 263.5 123 264 122.5 264"/><line class="cls-5" x1="120.48" y1="264" x2="36.51" y2="264"/><polyline class="cls-1" points="35.5 264 35 264 35 263.5"/><line class="cls-2" x1="35" y1="261.5" x2="35" y2="193.5"/><polyline class="cls-1" points="35 192.5 35 192 35.5 192"/><line class="cls-5" x1="37.52" y1="192" x2="121.49" y2="192"/><polyline class="cls-1" points="122.5 192 123 192 123 192.5"/><line class="cls-2" x1="123" y1="194.5" x2="123" y2="262.5"/><rect class="cls-6" x="35" y="184" width="88" height="88"/><line class="cls-1" x1="79" y1="180" x2="79" y2="180.5"/><line class="cls-2" x1="79" y1="182.5" x2="79" y2="274.5"/><line class="cls-1" x1="79" y1="275.5" x2="79" y2="276"/><line class="cls-1" x1="31" y1="228" x2="31.5" y2="228"/><line class="cls-2" x1="33.5" y1="228" x2="125.5" y2="228"/><line class="cls-1" x1="126.5" y1="228" x2="127" y2="228"/><polyline class="cls-1" points="277 275.5 277 276 276.5 276"/><line class="cls-2" x1="274.5" y1="276" x2="182.5" y2="276"/><polyline class="cls-1" points="181.5 276 181 276 181 275.5"/><line class="cls-2" x1="181" y1="273.5" x2="181" y2="181.5"/><polyline class="cls-1" points="181 180.5 181 180 181.5 180"/><line class="cls-2" x1="183.5" y1="180" x2="275.5" y2="180"/><polyline class="cls-1" points="276.5 180 277 180 277 180.5"/><line class="cls-2" x1="277" y1="182.5" x2="277" y2="274.5"/><rect class="cls-3" x="185" y="184" width="88" height="88" rx="44"/><polyline class="cls-1" points="269 267.5 269 268 268.5 268"/><line class="cls-4" x1="266.52" y1="268" x2="190.49" y2="268"/><polyline class="cls-1" points="189.5 268 189 268 189 267.5"/><line class="cls-4" x1="189" y1="265.52" x2="189" y2="189.49"/><polyline class="cls-1" points="189 188.5 189 188 189.5 188"/><line class="cls-4" x1="191.48" y1="188" x2="267.51" y2="188"/><polyline class="cls-1" points="268.5 188 269 188 269 188.5"/><line class="cls-4" x1="269" y1="190.48" x2="269" y2="266.51"/><polyline class="cls-1" points="265 271.5 265 272 264.5 272"/><line class="cls-2" x1="262.5" y1="272" x2="194.5" y2="272"/><polyline class="cls-1" points="193.5 272 193 272 193 271.5"/><line class="cls-5" x1="193" y1="269.48" x2="193" y2="185.51"/><polyline class="cls-1" points="193 184.5 193 184 193.5 184"/><line class="cls-2" x1="195.5" y1="184" x2="263.5" y2="184"/><polyline class="cls-1" points="264.5 184 265 184 265 184.5"/><line class="cls-5" x1="265" y1="186.52" x2="265" y2="270.49"/><polyline class="cls-1" points="273 263.5 273 264 272.5 264"/><line class="cls-5" x1="270.48" y1="264" x2="186.51" y2="264"/><polyline class="cls-1" points="185.5 264 185 264 185 263.5"/><line class="cls-2" x1="185" y1="261.5" x2="185" y2="193.5"/><polyline class="cls-1" points="185 192.5 185 192 185.5 192"/><line class="cls-5" x1="187.52" y1="192" x2="271.49" y2="192"/><polyline class="cls-1" points="272.5 192 273 192 273 192.5"/><line class="cls-2" x1="273" y1="194.5" x2="273" y2="262.5"/><rect class="cls-6" x="185" y="184" width="88" height="88"/><line class="cls-1" x1="229" y1="180" x2="229" y2="180.5"/><line class="cls-2" x1="229" y1="182.5" x2="229" y2="274.5"/><line class="cls-1" x1="229" y1="275.5" x2="229" y2="276"/><line class="cls-1" x1="181" y1="228" x2="181.5" y2="228"/><line class="cls-2" x1="183.5" y1="228" x2="275.5" y2="228"/><line class="cls-1" x1="276.5" y1="228" x2="277" y2="228"/><polyline class="cls-1" points="427 275.5 427 276 426.5 276"/><line class="cls-2" x1="424.5" y1="276" x2="332.5" y2="276"/><polyline class="cls-1" points="331.5 276 331 276 331 275.5"/><line class="cls-2" x1="331" y1="273.5" x2="331" y2="181.5"/><polyline class="cls-1" points="331 180.5 331 180 331.5 180"/><line class="cls-2" x1="333.5" y1="180" x2="425.5" y2="180"/><polyline class="cls-1" points="426.5 180 427 180 427 180.5"/><line class="cls-2" x1="427" y1="182.5" x2="427" y2="274.5"/><rect class="cls-3" x="335" y="184" width="88" height="88" rx="44"/><polyline class="cls-1" points="419 267.5 419 268 418.5 268"/><line class="cls-4" x1="416.52" y1="268" x2="340.49" y2="268"/><polyline class="cls-1" points="339.5 268 339 268 339 267.5"/><line class="cls-4" x1="339" y1="265.52" x2="339" y2="189.49"/><polyline class="cls-1" points="339 188.5 339 188 339.5 188"/><line class="cls-4" x1="341.48" y1="188" x2="417.51" y2="188"/><polyline class="cls-1" points="418.5 188 419 188 419 188.5"/><line class="cls-4" x1="419" y1="190.48" x2="419" y2="266.51"/><polyline class="cls-1" points="415 271.5 415 272 414.5 272"/><line class="cls-2" x1="412.5" y1="272" x2="344.5" y2="272"/><polyline class="cls-1" points="343.5 272 343 272 343 271.5"/><line class="cls-5" x1="343" y1="269.48" x2="343" y2="185.51"/><polyline class="cls-1" points="343 184.5 343 184 343.5 184"/><line class="cls-2" x1="345.5" y1="184" x2="413.5" y2="184"/><polyline class="cls-1" points="414.5 184 415 184 415 184.5"/><line class="cls-5" x1="415" y1="186.52" x2="415" y2="270.49"/><polyline class="cls-1" points="423 263.5 423 264 422.5 264"/><line class="cls-5" x1="420.48" y1="264" x2="336.51" y2="264"/><polyline class="cls-1" points="335.5 264 335 264 335 263.5"/><line class="cls-2" x1="335" y1="261.5" x2="335" y2="193.5"/><polyline class="cls-1" points="335 192.5 335 192 335.5 192"/><line class="cls-5" x1="337.52" y1="192" x2="421.49" y2="192"/><polyline class="cls-1" points="422.5 192 423 192 423 192.5"/><line class="cls-2" x1="423" y1="194.5" x2="423" y2="262.5"/><rect class="cls-6" x="335" y="184" width="88" height="88"/><line class="cls-1" x1="379" y1="180" x2="379" y2="180.5"/><line class="cls-2" x1="379" y1="182.5" x2="379" y2="274.5"/><line class="cls-1" x1="379" y1="275.5" x2="379" y2="276"/><line class="cls-1" x1="331" y1="228" x2="331.5" y2="228"/><line class="cls-2" x1="333.5" y1="228" x2="425.5" y2="228"/><line class="cls-1" x1="426.5" y1="228" x2="427" y2="228"/><polyline class="cls-1" points="577 275.5 577 276 576.5 276"/><line class="cls-2" x1="574.5" y1="276" x2="482.5" y2="276"/><polyline class="cls-1" points="481.5 276 481 276 481 275.5"/><line class="cls-2" x1="481" y1="273.5" x2="481" y2="181.5"/><polyline class="cls-1" points="481 180.5 481 180 481.5 180"/><line class="cls-2" x1="483.5" y1="180" x2="575.5" y2="180"/><polyline class="cls-1" points="576.5 180 577 180 577 180.5"/><line class="cls-2" x1="577" y1="182.5" x2="577" y2="274.5"/><rect class="cls-3" x="485" y="184" width="88" height="88" rx="44"/><polyline class="cls-1" points="569 267.5 569 268 568.5 268"/><line class="cls-4" x1="566.53" y1="268" x2="490.49" y2="268"/><polyline class="cls-1" points="489.5 268 489 268 489 267.5"/><line class="cls-4" x1="489" y1="265.52" x2="489" y2="189.49"/><polyline class="cls-1" points="489 188.5 489 188 489.5 188"/><line class="cls-4" x1="491.47" y1="188" x2="567.51" y2="188"/><polyline class="cls-1" points="568.5 188 569 188 569 188.5"/><line class="cls-4" x1="569" y1="190.48" x2="569" y2="266.51"/><polyline class="cls-1" points="565 271.5 565 272 564.5 272"/><line class="cls-2" x1="562.5" y1="272" x2="494.5" y2="272"/><polyline class="cls-1" points="493.5 272 493 272 493 271.5"/><line class="cls-5" x1="493" y1="269.48" x2="493" y2="185.51"/><polyline class="cls-1" points="493 184.5 493 184 493.5 184"/><line class="cls-2" x1="495.5" y1="184" x2="563.5" y2="184"/><polyline class="cls-1" points="564.5 184 565 184 565 184.5"/><line class="cls-5" x1="565" y1="186.52" x2="565" y2="270.49"/><polyline class="cls-1" points="573 263.5 573 264 572.5 264"/><line class="cls-5" x1="570.48" y1="264" x2="486.51" y2="264"/><polyline class="cls-1" points="485.5 264 485 264 485 263.5"/><line class="cls-2" x1="485" y1="261.5" x2="485" y2="193.5"/><polyline class="cls-1" points="485 192.5 485 192 485.5 192"/><line class="cls-5" x1="487.52" y1="192" x2="571.49" y2="192"/><polyline class="cls-1" points="572.5 192 573 192 573 192.5"/><line class="cls-2" x1="573" y1="194.5" x2="573" y2="262.5"/><rect class="cls-6" x="485" y="184" width="88" height="88"/><line class="cls-1" x1="529" y1="180" x2="529" y2="180.5"/><line class="cls-2" x1="529" y1="182.5" x2="529" y2="274.5"/><line class="cls-1" x1="529" y1="275.5" x2="529" y2="276"/><line class="cls-1" x1="481" y1="228" x2="481.5" y2="228"/><line class="cls-2" x1="483.5" y1="228" x2="575.5" y2="228"/><line class="cls-1" x1="576.5" y1="228" x2="577" y2="228"/></g><g id="图层_8" data-name="图层 8"><path class="cls-7" d="M529.41,251.29a4.92,4.92,0,0,1-1.59.28h-17a5.07,5.07,0,0,1-5-5.95l4.61-26.09a7.5,7.5,0,0,1,7.38-6.2h6.05a9,9,0,0,1,5.56,1.93V202.9H512.52a11.63,11.63,0,0,0-11.45,9.61l-6.33,35.84A11.63,11.63,0,0,0,506.19,262h23.22Z"/><path class="cls-7" d="M528.25,251.29a5,5,0,0,0,1.59.28h17a5.07,5.07,0,0,0,5-5.95l-4.6-26.09a7.5,7.5,0,0,0-7.39-6.2h-6a9,9,0,0,0-5.57,1.93V202.9h16.9a11.63,11.63,0,0,1,11.45,9.61l6.32,35.84A11.63,11.63,0,0,1,551.48,262H528.25Z"/><path class="cls-7" d="M559.21,252.73a11.45,11.45,0,0,1-7.2,6.47"/><path class="cls-7" d="M557.4,231.87l2.54,14.43a11.32,11.32,0,0,1,.14,2.95"/><path class="cls-7" d="M541,193.63c0,2.56-5.45,2.32-12.17,2.32s-12.16.24-12.16-2.32,5.44-4.63,12.16-4.63S541,191.08,541,193.63Z"/><path class="cls-8" d="M537.08,199.43H520.59a1.16,1.16,0,0,1-1.1-1.53l.39-1.16A1.16,1.16,0,0,1,521,196h15.71a1.16,1.16,0,0,1,1.1.79l.38,1.16A1.16,1.16,0,0,1,537.08,199.43Z"/><path class="cls-8" d="M541.61,205.22H516.06a1.16,1.16,0,0,1-1.08-1.58l1.4-3.49a1.16,1.16,0,0,1,1.07-.72h22.77a1.17,1.17,0,0,1,1.07.72l1.39,3.49A1.15,1.15,0,0,1,541.61,205.22Z"/><path class="cls-8" d="M541.61,211H516.05A1.16,1.16,0,0,0,515,212.6l1.4,3.48a1.15,1.15,0,0,0,1.07.73h22.77a1.16,1.16,0,0,0,1.07-.73l1.39-3.48A1.15,1.15,0,0,0,541.61,211Z"/><path class="cls-7" d="M543.76,211H513.91a1.15,1.15,0,0,1-1.15-1.28l.39-3.48a1.15,1.15,0,0,1,1.15-1h29.07a1.15,1.15,0,0,1,1.15,1l.39,3.48A1.15,1.15,0,0,1,543.76,211Z"/><path class="cls-7" d="M546.79,235.35c0,7.06-1.93,13.08-4.63,15.3a3.69,3.69,0,0,1-2.32.92h-22a3.69,3.69,0,0,1-2.32-.92c-2.7-2.22-4.64-8.24-4.64-15.3s1.94-13.08,4.64-15.3a3.64,3.64,0,0,1,2.32-.92h22a3.64,3.64,0,0,1,2.32.92C544.86,222.27,546.79,228.28,546.79,235.35Z"/><path class="cls-8" d="M530.57,234.19s-4.63,6.95-2.32,9.27S532.89,240,530.57,234.19Z"/><path class="cls-9" d="M546.26,241.72c1,3.28.92,6-.63,7.53-3.62,3.62-13.68-.58-22.48-9.38s-13-18.86-9.38-22.48a4.44,4.44,0,0,1,2.32-1.18"/><path class="cls-9" d="M511.24,240.56c-1.46,3.8-1.5,7,.21,8.69,3.62,3.62,13.69-.58,22.49-9.38s13-18.86,9.38-22.48a4.14,4.14,0,0,0-1.74-1"/><path class="cls-8" d="M540.9,219.7H516.77a1.16,1.16,0,0,1-.91-1.89l.46-.57a1.17,1.17,0,0,1,.91-.43h23.21a1.18,1.18,0,0,1,.91.43l.45.57A1.16,1.16,0,0,1,540.9,219.7Z"/><path class="cls-8" d="M529.32,253h9.27a6.72,6.72,0,0,1,5.21,5.21c1.16,4.64,3.48,5.79,3.48,5.79s1.16,1.16-2.32,2.32-16.22,1.16-16.22,1.16h.19s-12.75,0-16.22-1.16-2.32-2.32-2.32-2.32,2.32-1.15,3.47-5.79a6.74,6.74,0,0,1,5.22-5.21h10.24Z"/><path class="cls-8" d="M525.94,264.86c-1.19,0-2.61-.05-4.06-.11"/><path class="cls-8" d="M542.16,264.22c-3.76.67-13.41.67-13.41.67h.16s-1.22,0-3,0"/><path class="cls-8" d="M541.44,250.41H516.23a1.15,1.15,0,0,0-.89,1.89l.5.59a1.14,1.14,0,0,0,.88.42H541a1.16,1.16,0,0,0,.88-.42l.49-.59A1.15,1.15,0,0,0,541.44,250.41Z"/><path class="cls-9" d="M527.1,223.76s2.31,4.63,1.15,8.11-5.79,5.79-3.47,11.59,8.11,1.16,8.11,1.16"/><path class="cls-8" d="M533.71,234s-2.23-4.23-1.66-6.76"/></g><g id="图层_9" data-name="图层 9"><rect class="cls-7" x="351.8" y="249.32" width="6.16" height="7.18" rx="2"/><rect class="cls-7" x="401.07" y="249.32" width="6.16" height="7.18" rx="2"/><path class="cls-7" d="M416.07,200.67c0-1.06-16.59-1.92-37.07-1.92s-37.07.86-37.07,1.92c-1.07,0-1.93,11.21-1.93,25s.86,25,1.93,25c0,1.06,16.59,1.92,37.07,1.92s37.07-.86,37.07-1.92c1.07,0,1.93-11.21,1.93-25S417.14,200.67,416.07,200.67Z"/><path class="cls-9" d="M353,201.4c-5.72.31-9.24.72-9.24,1.19-.68,0-1.26,5-1.55,12.34"/><path class="cls-9" d="M385.92,200.94c-2.85,0-5.86-.06-9-.06-6.82,0-13.17.1-18.44.28"/><path class="cls-8" d="M340.21,237c.31,8.15,1,13.75,1.72,13.75,0,1.06,16.59,1.92,37.07,1.92s37.07-.86,37.07-1.92c.76,0,1.41-5.6,1.72-13.75Z"/><rect class="cls-8" x="349.75" y="207.24" width="27.71" height="4.11" rx="2"/><rect class="cls-8" x="349.75" y="216.47" width="27.71" height="4.11" rx="2"/><rect class="cls-8" x="349.75" y="225.71" width="27.71" height="4.11" rx="2"/><circle class="cls-8" cx="396.96" cy="218.53" r="11.29"/><circle class="cls-7" cx="396.96" cy="218.53" r="7.18"/><path class="cls-10" d="M392.86,226.72a1,1,0,0,1-.51-.13,1,1,0,0,1-.38-1.38l8.22-14.37a1,1,0,0,1,.88-.51,1.09,1.09,0,0,1,.5.13,1,1,0,0,1,.47.61,1,1,0,0,1-.09.77l-8.21,14.37A1,1,0,0,1,392.86,226.72Z"/><path class="cls-11" d="M401.07,210.83a.47.47,0,0,1,.25.07.51.51,0,0,1,.19.7L393.3,226a.51.51,0,0,1-.44.25.58.58,0,0,1-.26-.06.51.51,0,0,1-.19-.7l8.21-14.37a.5.5,0,0,1,.45-.26m0-1h0a1.52,1.52,0,0,0-1.32.76L391.54,225a1.53,1.53,0,0,0,.57,2.07,1.58,1.58,0,0,0,.75.19,1.51,1.51,0,0,0,1.31-.76l8.21-14.37a1.54,1.54,0,0,0,.15-1.15,1.51,1.51,0,0,0-.71-.91,1.53,1.53,0,0,0-.75-.2Z"/><circle class="cls-7" cx="391.32" cy="244.7" r="3.59"/><circle class="cls-7" cx="402.61" cy="244.7" r="3.59"/><line class="cls-7" x1="350.78" y1="244.18" x2="361.04" y2="244.18"/><path class="cls-10" d="M350.78,245.2a1,1,0,1,1,0-2H361a1,1,0,0,1,0,2Z"/><path class="cls-11" d="M361,243.67a.52.52,0,0,1,0,1H350.78a.52.52,0,1,1,0-1H361m0-1H350.78a1.52,1.52,0,1,0,0,3H361a1.52,1.52,0,0,0,0-3Z"/><line class="cls-7" x1="366.17" y1="244.18" x2="370.28" y2="244.18"/><path class="cls-10" d="M366.17,245.2a1,1,0,0,1,0-2h4.11a1,1,0,0,1,0,2Z"/><path class="cls-11" d="M370.28,243.67a.52.52,0,0,1,0,1h-4.11a.52.52,0,0,1,0-1h4.11m0-1h-4.11a1.52,1.52,0,0,0,0,3h4.11a1.52,1.52,0,0,0,0-3Z"/></g><g id="图层_10" data-name="图层 10"><rect class="cls-8" x="189.5" y="199.5" width="79" height="55" rx="1"/><path class="cls-7" d="M194.5,212.5v3a1,1,0,0,1-1,1h-3a1,1,0,0,0-1,1v36a1,1,0,0,0,1,1h77a1,1,0,0,0,1-1v-41a1,1,0,0,0-1-1h-72A1,1,0,0,0,194.5,212.5Z"/><path class="cls-7" d="M192.09,244v6.12a.88.88,0,0,0,.88.88h2"/><path class="cls-7" d="M228,252h37a.88.88,0,0,0,.88-.88V245"/><rect class="cls-7" x="194.5" y="203.5" width="7" height="4"/><path class="cls-8" d="M257.5,221.5h-57c-1.66,0-3,4.7-3,10.5s1.34,10.5,3,10.5h57c1.66,0,3-4.7,3-10.5S259.16,221.5,257.5,221.5Z"/><circle class="cls-7" cx="212" cy="232" r="10.5"/><circle class="cls-7" cx="212" cy="232" r="6.5"/><circle class="cls-7" cx="246" cy="232" r="10.5"/><circle class="cls-7" cx="246" cy="232" r="6.5"/><rect class="cls-7" x="220.5" y="221.5" width="17" height="21"/><polygon class="cls-8" points="215.5 231 213 231 213 228.5 211 228.5 211 231 208.5 231 208.5 233 211 233 211 235.5 213 235.5 213 233 215.5 233 215.5 231"/><polygon class="cls-8" points="249.5 231 247 231 247 228.5 245 228.5 245 231 242.5 231 242.5 233 245 233 245 235.5 247 235.5 247 233 249.5 233 249.5 231"/></g><g id="图层_11" data-name="图层 11"><rect class="cls-8" x="78.12" y="214.13" width="3.43" height="11.42"/><path class="cls-8" d="M86.68,214.7H71.84a9.14,9.14,0,0,1,0-18.28H86.68a9.14,9.14,0,0,1,0,18.28ZM71.84,199.85a5.71,5.71,0,0,0,0,11.42H86.68a5.71,5.71,0,0,0,0-11.42Z"/><path class="cls-7" d="M101.36,215.5c-.92-.71-1.59-1.87-.4-3.66q3.42-5.13-3.43-6.85c-4.57-1.14-27.41-2.28-38.83,1.14,0,0-2.28,2.29,1.14,4.57s1.15,14.85-8,18.27S37,222.12,38.14,213c0,0,1.15-12.56,8-14.84s33.12-10.28,67.38,0c0,0,9.14,2.28,5.71,20.55,0,0,0,3.43-6.85,1.15-2.19-.73-3.9-1.34-5.23-1.84a4.89,4.89,0,0,0-2.65,2.5c-1,2-1,11,3,15a19.87,19.87,0,0,1,6.18,15.5"/><path class="cls-9" d="M89.5,202.1c-8.19-.48-20.31-.41-28.5,1.43"/><path class="cls-9" d="M98.5,203.26c-.3-.09-.63-.19-1-.27a28.43,28.43,0,0,0-3.53-.54"/><rect class="cls-8" x="68.98" y="223.26" width="21.7" height="7.99" rx="1"/><path class="cls-7" d="M100.13,227.83H60.65a1.15,1.15,0,0,0-1.08.76L49,258.29A1.13,1.13,0,0,0,50,259.81h59.63a1.14,1.14,0,0,0,1.09-1.49l-9.55-29.7A1.14,1.14,0,0,0,100.13,227.83Z"/><rect class="cls-8" x="43.86" y="259.81" width="71.95" height="4.57" rx="1"/><circle class="cls-7" cx="79.83" cy="244.39" r="11.99"/><circle class="cls-8" cx="79.83" cy="244.39" r="6.28"/><circle class="cls-8" cx="87.25" cy="239.25" r="1.14"/><circle class="cls-8" cx="82.69" cy="235.82" r="1.14"/><circle class="cls-8" cx="76.97" cy="235.82" r="1.14"/><circle class="cls-8" cx="72.41" cy="239.25" r="1.14"/><circle class="cls-8" cx="87.25" cy="249.82" r="1.14"/><circle class="cls-8" cx="82.69" cy="253.25" r="1.14"/><circle class="cls-8" cx="76.97" cy="253.25" r="1.14"/><circle class="cls-8" cx="72.41" cy="249.82" r="1.14"/><path class="cls-7" d="M55.5,216.32a15.89,15.89,0,0,1-3,3.18,20.22,20.22,0,0,1-10,3.85"/><path class="cls-7" d="M106.5,213.19c3.59,1.28,9,3.31,9,3.31a17.46,17.46,0,0,0,1.94.5"/><path class="cls-7" d="M103,212c.33.14.81.32,1.5.55"/><path class="cls-9" d="M102.12,220.5a19.33,19.33,0,0,0,4.38,18c7,8,4,18,4,18"/><path class="cls-7" d="M102.5,216.5s1,1,0,3"/><path class="cls-7" d="M113.5,255.5s0,3-1,4"/></g><g id="图层_12" data-name="图层 12"><rect class="cls-8" x="536.01" y="71.43" width="28.95" height="18.88" rx="6"/><rect class="cls-8" x="498.26" y="37.45" width="61.67" height="80.55" rx="1"/><rect class="cls-8" x="498.26" y="39.96" width="59.15" height="75.51"/><rect class="cls-7" x="498.26" y="39.96" width="51.6" height="75.51"/><path class="cls-7" d="M536,118h-36.5a1.25,1.25,0,0,1-1.25-1.26v-78a1.25,1.25,0,0,1,1.25-1.26h51.6a1.25,1.25,0,0,1,1.26,1.26v61.66L542.3,110.44Z"/><rect class="cls-7" x="536.01" y="68.91" width="28.95" height="18.88" rx="6"/><rect class="cls-8" x="541.05" y="73.95" width="8.81" height="8.81" rx="3"/><path class="cls-8" d="M552.37,100.37a15.18,15.18,0,0,1-12.58-1.25L536,118Z"/><path class="cls-9" d="M568,40.64c-47.37,27.6-80,68.21-80,68.21,22.17-8.58,34.68-19.75,40.78-27.86s1-13.19,1-13.19-4-4.45-15.07,2.24l4.37,2.51-9.06.61S491.44,93,488.3,108.57"/><path class="cls-7" d="M488.3,108.57C491.44,93,510,73.16,510,73.16l9.06-.61L514.73,70c11.09-6.69,15.07-2.24,15.07-2.24s5.06,5.08-1,13.19S510.16,100.27,488,108.85c0,0,25.64-29.28,41-40.82"/><line class="cls-7" x1="501.4" y1="39.96" x2="548.6" y2="39.96"/><line class="cls-7" x1="501.4" y1="115.48" x2="532.24" y2="115.48"/></g><g id="图层_13" data-name="图层 13"><rect class="cls-9" x="366.5" y="47.36" width="26" height="25.28" rx="1"/><path class="cls-7" d="M404.85,37.5h-50.7a1.09,1.09,0,0,0-1.15,1v78a1.09,1.09,0,0,0,1.15,1h50.7a1.09,1.09,0,0,0,1.15-1v-78A1.09,1.09,0,0,0,404.85,37.5Zm-4.61,39a1.09,1.09,0,0,1-1.15,1H359.91a1.09,1.09,0,0,1-1.15-1v-33a1.09,1.09,0,0,1,1.15-1h39.18a1.09,1.09,0,0,1,1.15,1Z"/><path class="cls-8" d="M400.24,43.5v33a1.09,1.09,0,0,1-1.15,1H359.91a1.09,1.09,0,0,1-1.15-1v-33a1.09,1.09,0,0,1,1.15-1h39.18A1.09,1.09,0,0,1,400.24,43.5Z"/><rect class="cls-9" x="366.5" y="47.36" width="26" height="25.28" rx="1"/><path class="cls-8" d="M394,48.36V71.64a1.07,1.07,0,0,1-1.12,1H366.12a1.07,1.07,0,0,1-1.12-1V48.36a1.07,1.07,0,0,1,1.12-1h26.76A1.07,1.07,0,0,1,394,48.36Z"/><path class="cls-7" d="M371.75,87.5H368.5V84a2,2,0,0,0-4,0v3.5h-3.25a2,2,0,0,0,0,4h3.25V95a2,2,0,0,0,4,0V91.5h3.25a2,2,0,0,0,0-4Z"/><circle class="cls-8" cx="393" cy="93.24" r="1.5"/><circle class="cls-8" cx="397.24" cy="89" r="1.5"/><circle class="cls-8" cx="388.76" cy="89" r="1.5"/><circle class="cls-8" cx="393" cy="84.76" r="1.5"/><rect class="cls-8" x="360.5" y="105.5" width="9" height="3" rx="1.5" transform="translate(-14.9 125.7) rotate(-19.16)"/><rect class="cls-7" x="372.5" y="105.5" width="9" height="3" rx="1.5" transform="translate(-14.24 129.64) rotate(-19.16)"/><polygon class="cls-7" points="392.72 54.87 389.73 55.03 388.17 57.58 387.09 54.79 384.18 54.09 386.51 52.2 386.27 49.22 388.78 50.85 391.55 49.7 390.78 52.59 392.72 54.87"/><polygon class="cls-7" points="378.45 49.63 376.1 49.75 374.87 51.76 374.02 49.56 371.73 49.02 373.56 47.53 373.38 45.19 375.35 46.47 377.53 45.56 376.92 47.84 378.45 49.63"/><polygon class="cls-7" points="377.28 70.29 372.61 70.53 370.16 74.52 368.48 70.16 363.93 69.06 367.57 66.12 367.2 61.45 371.13 64 375.45 62.21 374.24 66.73 377.28 70.29"/><polyline class="cls-9" points="372.5 115.5 355 115.5 355 72"/><polyline class="cls-9" points="404 104 404 115.5 383 115.5"/><polyline class="cls-9" points="397 39.5 403.5 39.5 403.5 55.5"/><path class="cls-9" d="M359.16,42.82l5.89,4.64"/><path class="cls-9" d="M400,42.83l-5.7,4.55"/><path class="cls-9" d="M393.77,72.29l6,4.34"/><path class="cls-9" d="M365.12,72.44l-5.52,4.22"/></g><g id="图层_14" data-name="图层 14"><path class="cls-7" d="M213.1,75.4l-7.65,2.33a1.14,1.14,0,0,0-.72,1.54L206.3,83a1.16,1.16,0,0,0,1.37.66L217.25,81c20.07-6.13,28.93-3.59,41.54,4.63a1.34,1.34,0,0,0,1.38.06l5.18-2.79a1.18,1.18,0,0,0,.48-1.6L242.3,37.65a1.18,1.18,0,0,0-1.6-.48L235.5,40a1.34,1.34,0,0,0-.7,1.19c.11,14.55-4.34,27.11-20.52,33.83C213.89,75.15,213.5,75.28,213.1,75.4Z"/><circle class="cls-8" cx="204.5" cy="87.5" r="5"/><path class="cls-7" d="M196.53,91.59h4.56a1,1,0,0,1,1,1v5.56a0,0,0,0,1,0,0h-5.56a1,1,0,0,1-1-1V92.59A1,1,0,0,1,196.53,91.59Z"/><path class="cls-7" d="M213,96h35.06a1,1,0,0,1,1,1v.19a1,1,0,0,1-1,1H213a0,0,0,0,1,0,0V96A0,0,0,0,1,213,96Z"/><path class="cls-7" d="M204.27,77.39a9.84,9.84,0,1,0,9.84,9.83A9.83,9.83,0,0,0,204.27,77.39Zm0,14.2a4.37,4.37,0,1,1,4.37-4.37A4.37,4.37,0,0,1,204.27,91.59Z"/><path class="cls-7" d="M206.16,86.13a2.18,2.18,0,1,0-1.89,3.28,2.17,2.17,0,0,0,1.89-1.1h36.69a.76.76,0,0,1,.76.76v5a.76.76,0,0,0,.75.76H245a.76.76,0,0,0,.75-.76V86.89a.76.76,0,0,0-.75-.76Z"/><rect class="cls-8" x="195.53" y="98.15" width="56.81" height="19.67"/><rect class="cls-7" x="194.44" y="114.54" width="59" height="4.96" rx="1"/><rect class="cls-7" x="194.44" y="98.15" width="59" height="4.37" rx="1"/><line class="cls-7" x1="237.38" y1="42.3" x2="258.6" y2="81.94"/></g><g id="图层_15" data-name="图层 15"><polygon class="cls-8" points="47.77 58.6 74.83 42.36 91.5 66.5 64.5 79.5 45.75 60.75 48 58.5 47.77 58.6"/><ellipse class="cls-12" cx="80.96" cy="53.93" rx="16.13" ry="15.92" transform="translate(-16.3 52.09) rotate(-32.59)"/><ellipse class="cls-8" cx="80.96" cy="53.93" rx="4.85" ry="4.79" transform="translate(-16.3 52.09) rotate(-32.59)"/><path class="cls-13" d="M89.46,47.27a8.56,8.56,0,0,1,.59.85,10.54,10.54,0,0,1,1.14,9"/><ellipse class="cls-12" cx="53.53" cy="70.3" rx="15.93" ry="15.72" transform="translate(-29.43 39.9) rotate(-32.59)"/><ellipse class="cls-8" cx="53.53" cy="70.3" rx="4.56" ry="4.5" transform="translate(-29.43 39.9) rotate(-32.59)"/><path class="cls-13" d="M56.83,80.41a10.62,10.62,0,0,1-9-19.07,10.89,10.89,0,0,1,5.37-1.71"/><path class="cls-13" d="M60.81,78.05a10.4,10.4,0,0,1-1.56,1.2"/><rect class="cls-8" x="107.95" y="74.4" width="4.06" height="18.03"/><rect class="cls-7" x="112.01" y="67.97" width="8.99" height="30.9" rx="1"/><path class="cls-8" d="M87.73,119.92h2.56a1.29,1.29,0,0,0,1.29-1.36l-.74-15a1.28,1.28,0,0,0-1.28-1.22H87a1.29,1.29,0,0,0-1.29,1.35l.74,15A1.29,1.29,0,0,0,87.73,119.92Z"/><path class="cls-7" d="M107,66.68H64.28a1,1,0,0,0-1,1V99.19a1,1,0,0,0,1,1H74.9a1.28,1.28,0,0,0-1.29,1.28v.87a1.26,1.26,0,0,0,.93,1.21l-9,14.39a1.28,1.28,0,0,0,1.06,2h3.75a1.28,1.28,0,0,0,1.06-.56l9.42-15a1.25,1.25,0,0,0,.22-.73h9.18a1.2,1.2,0,0,0,.22.72l9.42,15a1.26,1.26,0,0,0,1,.56h3.76a1.29,1.29,0,0,0,1.06-2l-9-14.39a1.27,1.27,0,0,0,.93-1.21v-.87a1.28,1.28,0,0,0-1.29-1.28H107a1,1,0,0,0,1-1V67.65A1,1,0,0,0,107,66.68Z"/><path class="cls-9" d="M93.68,100.16H77.09"/><rect class="cls-7" x="73.13" y="100.1" width="24.74" height="4.3" rx="1"/></g></svg>